<svg xmlns="http://www.w3.org/2000/svg" xmlns:xlink="http://www.w3.org/1999/xlink" width="500" zoomAndPan="magnify" viewBox="0 0 375 374.999991" height="500" preserveAspectRatio="xMidYMid meet" version="1.0"><defs><filter x="0%" y="0%" width="100%" height="100%" id="8af9398a29"><feColorMatrix values="0 0 0 0 1 0 0 0 0 1 0 0 0 0 1 0 0 0 1 0" color-interpolation-filters="sRGB"/></filter><clipPath id="0e46bc648b"><path d="M 196.925781 178.765625 L 201.550781 178.765625 L 201.550781 184.425781 L 196.925781 184.425781 Z M 196.925781 178.765625 " clip-rule="nonzero"/></clipPath><clipPath id="8f476452e2"><path d="M 196.949219 182.25 C 197.324219 179.773438 198 179.023438 198.601562 178.875 C 199.199219 178.726562 200.175781 178.949219 200.625 179.324219 C 201.148438 179.773438 201.523438 180.675781 201.449219 181.351562 C 201.375 181.949219 200.773438 182.773438 200.25 183.074219 C 199.726562 183.375 198.675781 183.375 198.148438 183.074219 C 197.550781 182.773438 196.949219 181.949219 196.949219 181.351562 C 196.875 180.675781 197.25 179.773438 197.699219 179.324219 C 198.148438 178.949219 199.199219 178.648438 199.800781 178.875 C 200.476562 179.101562 201.226562 180.300781 201.449219 181.050781 C 201.675781 181.800781 201.449219 182.699219 201.148438 183.300781 C 200.925781 183.75 200.476562 184.199219 199.949219 184.351562 C 199.425781 184.5 198.375 184.425781 197.925781 184.125 C 197.398438 183.75 196.949219 182.25 196.949219 182.25 " clip-rule="nonzero"/></clipPath><clipPath id="0b98256826"><path d="M 62 24 L 312 24 L 312 332 L 62 332 Z M 62 24 " clip-rule="nonzero"/></clipPath><clipPath id="b2df5fb445"><path d="M 100.375 -56.101562 L 427.085938 89.652344 L 274.609375 431.433594 L -52.101562 285.679688 Z M 100.375 -56.101562 " clip-rule="nonzero"/></clipPath><clipPath id="2ffc8ddbd4"><path d="M 274.621094 431.089844 L -52.089844 285.335938 L 100.386719 -56.445312 L 427.097656 89.308594 Z M 274.621094 431.089844 " clip-rule="nonzero"/></clipPath><clipPath id="c4fb5985fb"><path d="M 86 49 L 312 49 L 312 349 L 86 349 Z M 86 49 " clip-rule="nonzero"/></clipPath><clipPath id="64ed8da72f"><path d="M 100.375 -56.101562 L 427.085938 89.652344 L 274.609375 431.433594 L -52.101562 285.679688 Z M 100.375 -56.101562 " clip-rule="nonzero"/></clipPath><clipPath id="adc2d4be7a"><path d="M 274.621094 431.089844 L -52.089844 285.335938 L 100.386719 -56.445312 L 427.097656 89.308594 Z M 274.621094 431.089844 " clip-rule="nonzero"/></clipPath><clipPath id="72cad4e6ca"><path d="M 285 50 L 312 50 L 312 349 L 285 349 Z M 285 50 " clip-rule="nonzero"/></clipPath><clipPath id="1302c02f8e"><path d="M 100.375 -56.101562 L 427.085938 89.652344 L 274.609375 431.433594 L -52.101562 285.679688 Z M 100.375 -56.101562 " clip-rule="nonzero"/></clipPath><clipPath id="fd49069502"><path d="M 274.621094 431.089844 L -52.089844 285.335938 L 100.386719 -56.445312 L 427.097656 89.308594 Z M 274.621094 431.089844 " clip-rule="nonzero"/></clipPath><clipPath id="0df609070b"><path d="M 64 0 L 375 0 L 375 298 L 64 298 Z M 64 0 " clip-rule="nonzero"/></clipPath><clipPath id="ab120cb09d"><path d="M 100.375 -56.101562 L 427.085938 89.652344 L 274.609375 431.433594 L -52.101562 285.679688 Z M 100.375 -56.101562 " clip-rule="nonzero"/></clipPath><clipPath id="b59fb1d472"><path d="M 274.621094 431.089844 L -52.089844 285.335938 L 100.386719 -56.445312 L 427.097656 89.308594 Z M 274.621094 431.089844 " clip-rule="nonzero"/></clipPath><mask id="50caecd271"><g filter="url(#8af9398a29)"><rect x="-37.5" width="450" fill="#000000" y="-37.499999" height="449.999989" fill-opacity="0.4"/></g></mask><clipPath id="3ef31db63c"><path d="M 63 49 L 248 49 L 248 297.839844 L 63 297.839844 Z M 63 49 " clip-rule="nonzero"/></clipPath><clipPath id="3b227cd215"><path d="M 36.375 -56.101562 L 363.085938 89.652344 L 210.609375 431.433594 L -116.101562 285.679688 Z M 36.375 -56.101562 " clip-rule="nonzero"/></clipPath><clipPath id="7f29e60909"><path d="M 210.621094 431.089844 L -116.089844 285.335938 L 36.386719 -56.445312 L 363.097656 89.308594 Z M 210.621094 431.089844 " clip-rule="nonzero"/></clipPath><clipPath id="4fa144b24c"><rect x="0" width="311" y="0" height="298"/></clipPath><clipPath id="6d774dcfc4"><path d="M 67 30 L 303 30 L 303 340 L 67 340 Z M 67 30 " clip-rule="nonzero"/></clipPath><clipPath id="a33e93692c"><path d="M 100.375 -56.101562 L 427.085938 89.652344 L 274.609375 431.433594 L -52.101562 285.679688 Z M 100.375 -56.101562 " clip-rule="nonzero"/></clipPath><clipPath id="d83ff91b86"><path d="M 274.621094 431.089844 L -52.089844 285.335938 L 100.386719 -56.445312 L 427.097656 89.308594 Z M 274.621094 431.089844 " clip-rule="nonzero"/></clipPath></defs><g clip-path="url(#0e46bc648b)"><g clip-path="url(#8f476452e2)"><path fill="#e7191f" d="M 193.949219 175.875 L 204.523438 175.875 L 204.523438 187.441406 L 193.949219 187.441406 Z M 193.949219 175.875 " fill-opacity="1" fill-rule="nonzero"/></g></g><g clip-path="url(#0b98256826)"><g clip-path="url(#b2df5fb445)"><g clip-path="url(#2ffc8ddbd4)"><path fill="#004aad" d="M 111.367188 331.160156 C 95.183594 326.949219 78.992188 322.734375 62.8125 318.527344 C 63.414062 220.441406 64.019531 122.371094 64.621094 24.285156 C 139.34375 25.511719 214.058594 26.730469 288.785156 27.953125 C 296.5 35.410156 304.207031 42.867188 311.925781 50.316406 C 245.070312 143.941406 178.222656 237.558594 111.367188 331.160156 Z M 111.367188 331.160156 " fill-opacity="1" fill-rule="nonzero"/></g></g></g><g clip-path="url(#c4fb5985fb)"><g clip-path="url(#64ed8da72f)"><g clip-path="url(#adc2d4be7a)"><path fill="#5271ff" d="M 311.503906 348.195312 L 86.222656 347.042969 L 86.640625 49.171875 L 311.921875 50.324219 Z M 311.503906 348.195312 " fill-opacity="1" fill-rule="nonzero"/></g></g></g><g clip-path="url(#72cad4e6ca)"><g clip-path="url(#1302c02f8e)"><g clip-path="url(#fd49069502)"><path fill="#004aad" d="M 311.503906 348.195312 L 287.261719 348.070312 L 285.964844 50.464844 L 311.921875 50.324219 Z M 311.503906 348.195312 " fill-opacity="1" fill-rule="nonzero"/></g></g></g><g clip-path="url(#0df609070b)"><g clip-path="url(#ab120cb09d)"><g clip-path="url(#b59fb1d472)"><g mask="url(#50caecd271)"><g transform="matrix(1, 0, 0, 1, 64, 0)"><g clip-path="url(#4fa144b24c)"><g clip-path="url(#3ef31db63c)"><g clip-path="url(#3b227cd215)"><g clip-path="url(#7f29e60909)"><path fill="#83d1ac" d="M 247.574219 297.257812 L 247.921875 50.324219 L 63.378906 49.386719 C 172.851562 132.128906 223.972656 229.960938 247.574219 297.257812 Z M 247.574219 297.257812 " fill-opacity="1" fill-rule="nonzero"/></g></g></g></g></g></g></g></g></g><g clip-path="url(#6d774dcfc4)"><g clip-path="url(#a33e93692c)"><g clip-path="url(#d83ff91b86)"><path fill="#e9eaea" d="M 302.558594 50.277344 L 286.136719 33.882812 L 71.027344 30.167969 L 67.996094 319.882812 L 86.238281 339.542969 C 86.375 242.75 86.503906 145.964844 86.648438 49.175781 C 158.609375 49.546875 230.582031 49.910156 302.558594 50.277344 Z M 302.558594 50.277344 " fill-opacity="1" fill-rule="nonzero"/></g></g></g></svg>