<svg xmlns="http://www.w3.org/2000/svg" xmlns:xlink="http://www.w3.org/1999/xlink" width="500" zoomAndPan="magnify" viewBox="0 0 375 374.999991" height="500" preserveAspectRatio="xMidYMid meet" version="1.0"><defs><clipPath id="2c7cb4553d"><path d="M 187.394531 199.546875 L 194.574219 199.546875 L 194.574219 207.085938 L 187.394531 207.085938 Z M 187.394531 199.546875 " clip-rule="nonzero"/></clipPath><clipPath id="b4f18ee7f3"><path d="M 194.550781 202.125 C 194.398438 204.824219 193.351562 206.25 192.523438 206.699219 C 192 207 191.398438 207.148438 190.800781 207 C 189.898438 206.851562 188.324219 206.101562 187.800781 205.199219 C 187.273438 204.300781 187.351562 202.574219 187.574219 201.75 C 187.800781 201.074219 188.25 200.699219 188.699219 200.324219 C 189.148438 199.949219 189.675781 199.648438 190.351562 199.574219 C 191.25 199.5 193.648438 200.625 193.648438 200.625 " clip-rule="nonzero"/></clipPath><clipPath id="e44800686c"><path d="M 49.664062 11.070312 L 325.664062 11.070312 L 325.664062 363.570312 L 49.664062 363.570312 Z M 49.664062 11.070312 " clip-rule="nonzero"/></clipPath><clipPath id="518ce49e5a"><path d="M 138.113281 318.414062 L 147.0625 318.414062 L 147.0625 326.285156 L 138.113281 326.285156 Z M 138.113281 318.414062 " clip-rule="nonzero"/></clipPath><clipPath id="d4598ec974"><path d="M 141.976562 326.25 C 138.300781 323.925781 138.074219 323.023438 138.148438 322.199219 C 138.300781 321.226562 139.125 319.726562 139.949219 319.199219 C 140.851562 318.675781 142.574219 318.523438 143.550781 318.976562 C 144.449219 319.425781 145.5 320.773438 145.648438 321.824219 C 145.875 322.875 145.273438 324.449219 144.523438 325.199219 C 143.773438 325.875 142.125 326.324219 141.148438 326.101562 C 140.101562 325.875 138.824219 324.824219 138.449219 323.851562 C 138 322.875 138.148438 321.148438 138.824219 320.324219 C 139.5 319.351562 141.675781 318.523438 142.875 318.449219 C 143.851562 318.375 144.898438 318.75 145.574219 319.351562 C 146.25 319.875 146.851562 320.851562 147 321.75 C 147.148438 322.574219 146.925781 323.773438 146.476562 324.523438 C 146.023438 325.273438 144.300781 326.25 144.300781 326.25 " clip-rule="nonzero"/></clipPath></defs><g clip-path="url(#2c7cb4553d)"><g clip-path="url(#b4f18ee7f3)"><path fill="#ffffff" d="M 184.574219 196.574219 L 197.699219 196.574219 L 197.699219 210.058594 L 184.574219 210.058594 Z M 184.574219 196.574219 " fill-opacity="1" fill-rule="nonzero"/></g></g><g clip-path="url(#e44800686c)"><path fill="#059e54" d="M 314.800781 262.496094 C 320.457031 262.496094 325.148438 257.804688 325.148438 252.144531 L 325.148438 21.417969 C 325.148438 15.761719 320.457031 11.070312 314.800781 11.070312 L 115.121094 11.070312 C 79.65625 11.070312 50.953125 39.910156 50.953125 75.238281 L 50.953125 280.847656 C 50.265625 284.296875 49.851562 287.75 49.851562 291.335938 C 49.851562 318.660156 72.066406 340.875 99.390625 340.875 L 108.5 340.875 L 108.5 355.640625 C 108.5 358.816406 110.429688 361.574219 113.191406 362.679688 C 116.089844 363.921875 119.398438 363.230469 121.609375 361.023438 L 141.753906 340.875 L 144.789062 340.875 L 165.488281 361.574219 C 167.007812 363.09375 168.941406 363.785156 170.871094 363.785156 C 171.835938 363.785156 172.804688 363.644531 173.769531 363.230469 C 176.667969 361.988281 178.460938 359.230469 178.460938 356.195312 L 178.460938 341.015625 L 314.800781 341.015625 C 320.457031 341.015625 325.148438 336.324219 325.148438 330.664062 C 325.148438 325.007812 320.457031 320.316406 314.800781 320.316406 L 286.925781 320.316406 L 286.925781 262.632812 L 314.800781 262.632812 Z M 266.226562 320.175781 L 178.460938 320.175781 L 178.460938 294.234375 C 178.460938 289.957031 175.011719 286.507812 170.734375 286.507812 L 115.949219 286.507812 C 111.671875 286.507812 108.222656 289.957031 108.222656 294.234375 L 108.222656 320.175781 L 99.113281 320.175781 C 83.246094 320.175781 70.273438 307.207031 70.273438 291.335938 C 70.273438 288.578125 70.6875 285.953125 71.378906 283.472656 C 71.515625 283.195312 71.515625 282.78125 71.652344 282.503906 C 71.929688 281.816406 72.207031 281.125 72.480469 280.296875 C 72.480469 280.160156 72.480469 280.160156 72.621094 280.019531 C 75.515625 273.121094 81.039062 267.601562 87.9375 264.703125 C 87.9375 264.703125 87.9375 264.703125 88.074219 264.703125 C 88.902344 264.425781 89.59375 264.152344 90.421875 263.875 C 90.558594 263.875 90.835938 263.738281 90.972656 263.738281 C 91.664062 263.597656 92.214844 263.324219 92.90625 263.1875 C 93.179688 263.1875 93.457031 263.046875 93.734375 263.046875 C 94.421875 262.910156 94.976562 262.773438 95.664062 262.773438 C 95.941406 262.773438 96.214844 262.632812 96.492188 262.632812 C 97.457031 262.496094 98.285156 262.496094 99.253906 262.496094 L 266.226562 262.496094 Z M 266.226562 320.175781 " fill-opacity="1" fill-rule="nonzero"/></g><g clip-path="url(#518ce49e5a)"><g clip-path="url(#d4598ec974)"><path fill="#059e54" d="M 135.148438 315.449219 L 150.082031 315.449219 L 150.082031 329.25 L 135.148438 329.25 Z M 135.148438 315.449219 " fill-opacity="1" fill-rule="nonzero"/></g></g></svg>