<svg xmlns="http://www.w3.org/2000/svg" xmlns:xlink="http://www.w3.org/1999/xlink" width="512" zoomAndPan="magnify" viewBox="0 0 384 383.999986" height="512" preserveAspectRatio="xMidYMid meet" version="1.0"><defs><clipPath id="33edaf8971"><path d="M 67.976562 101.855469 L 68.328125 101.855469 L 68.328125 102.132812 L 67.976562 102.132812 Z M 67.976562 101.855469 " clip-rule="nonzero"/></clipPath><clipPath id="df117894ee"><path d="M 68.308594 102.023438 C 67.640625 102.320312 68.234375 101.875 68.234375 101.875 " clip-rule="nonzero"/></clipPath><clipPath id="d5c14195c9"><path d="M 43 44 L 341 44 L 341 341.789062 L 43 341.789062 Z M 43 44 " clip-rule="nonzero"/></clipPath></defs><g clip-path="url(#33edaf8971)"><g clip-path="url(#df117894ee)"><path fill="#9747ff" d="M 64.664062 98.898438 L 71.363281 98.898438 L 71.363281 105.371094 L 64.664062 105.371094 Z M 64.664062 98.898438 " fill-opacity="1" fill-rule="nonzero"/></g></g><g clip-path="url(#d5c14195c9)"><path fill="#ffffff" d="M 189.125 44.433594 C 109.3125 46.144531 45.550781 110.035156 43.972656 189.894531 C 42.351562 271.589844 107.429688 339.519531 189.082031 341.316406 C 190.179688 341.363281 191.273438 341.363281 192.371094 341.363281 C 218.507812 341.363281 243.984375 334.5625 266.484375 321.582031 L 309.195312 329.476562 C 315.027344 330.53125 321.035156 328.6875 325.203125 324.476562 C 329.410156 320.269531 331.253906 314.304688 330.203125 308.472656 L 322.175781 265.058594 C 335.199219 241.683594 341.648438 215.195312 340.859375 188.269531 C 338.359375 107.1875 270.386719 42.632812 189.125 44.433594 Z M 305.425781 265.101562 L 313.976562 311.453125 C 314.105469 312.113281 313.800781 312.550781 313.539062 312.8125 C 313.273438 313.078125 312.835938 313.382812 312.175781 313.25 L 266.4375 304.789062 C 264.464844 304.4375 262.40625 304.789062 260.695312 305.839844 C 239.292969 318.820312 214.605469 325.355469 189.433594 324.828125 C 116.855469 323.25 58.96875 262.863281 60.417969 190.199219 C 61.820312 119.246094 118.523438 62.457031 189.476562 60.878906 C 190.441406 60.878906 191.40625 60.832031 192.371094 60.832031 C 263.28125 60.832031 322.175781 117.625 324.367188 188.753906 C 325.113281 213.617188 318.929688 238.042969 306.390625 259.398438 C 305.378906 261.109375 305.03125 263.128906 305.425781 265.101562 Z M 305.425781 265.101562 " fill-opacity="1" fill-rule="nonzero"/></g></svg>