<svg xmlns="http://www.w3.org/2000/svg" xmlns:xlink="http://www.w3.org/1999/xlink" width="500" zoomAndPan="magnify" viewBox="0 0 375 374.999991" height="500" preserveAspectRatio="xMidYMid meet" version="1.0"><defs><clipPath id="f1997df606"><path d="M 62.515625 96.65625 L 62.871094 96.65625 L 62.871094 96.9375 L 62.515625 96.9375 Z M 62.515625 96.65625 " clip-rule="nonzero"/></clipPath><clipPath id="1c3cf7eb62"><path d="M 62.851562 96.824219 C 62.175781 97.125 62.773438 96.675781 62.773438 96.675781 " clip-rule="nonzero"/></clipPath><clipPath id="bb027baa14"><path d="M 84.925781 209.5 L 89.1875 209.5 L 89.1875 213.148438 L 84.925781 213.148438 Z M 84.925781 209.5 " clip-rule="nonzero"/></clipPath><clipPath id="de5600014a"><path d="M 89.175781 210.75 C 87.300781 213.824219 85.5 213.226562 85.125 212.625 C 84.75 211.949219 85.050781 210.148438 85.648438 209.699219 C 86.25 209.25 88.648438 209.851562 88.648438 209.851562 " clip-rule="nonzero"/></clipPath><clipPath id="b8dcfa8474"><path d="M 15.246094 15.246094 L 359.496094 15.246094 L 359.496094 359.496094 L 15.246094 359.496094 Z M 15.246094 15.246094 " clip-rule="nonzero"/></clipPath></defs><g clip-path="url(#f1997df606)"><g clip-path="url(#1c3cf7eb62)"><path fill="#9747ff" d="M 59.175781 93.675781 L 65.929688 93.675781 L 65.929688 100.199219 L 59.175781 100.199219 Z M 59.175781 93.675781 " fill-opacity="1" fill-rule="nonzero"/></g></g><g clip-path="url(#bb027baa14)"><g clip-path="url(#de5600014a)"><path fill="#545454" d="M 82.125 206.699219 L 92.257812 206.699219 L 92.257812 216.523438 L 82.125 216.523438 Z M 82.125 206.699219 " fill-opacity="1" fill-rule="nonzero"/></g></g><g clip-path="url(#b8dcfa8474)"><path fill="#545454" d="M 187.5 359.777344 C 92.363281 359.777344 15.246094 282.65625 15.246094 187.523438 C 15.246094 92.390625 92.363281 15.269531 187.5 15.269531 C 282.632812 15.269531 359.753906 92.390625 359.753906 187.523438 C 359.753906 282.65625 282.632812 359.777344 187.5 359.777344 Z M 187.5 359.777344 " fill-opacity="1" fill-rule="nonzero"/><path fill="#545454" d="M 187.5 15.246094 C 92.375 15.246094 15.246094 92.375 15.246094 187.5 C 15.246094 282.625 92.375 359.753906 187.5 359.753906 C 282.625 359.753906 359.753906 282.625 359.753906 187.5 C 359.753906 92.375 282.625 15.246094 187.5 15.246094 Z M 187.5 339.828125 C 103.300781 339.828125 35.171875 271.699219 35.171875 187.5 C 35.171875 103.300781 103.300781 35.171875 187.5 35.171875 C 271.699219 35.171875 339.828125 103.300781 339.828125 187.5 C 339.828125 271.699219 271.699219 339.828125 187.5 339.828125 Z M 187.5 339.828125 " fill-opacity="1" fill-rule="nonzero"/></g><path fill="#ffffff" d="M 174.082031 200.6875 C 145.609375 165.59375 143.203125 119.597656 164.191406 84.335938 C 150.738281 87.578125 137.796875 93.351562 126.148438 101.789062 C 78.597656 136.242188 70.617188 201.851562 108.324219 248.332031 C 146.03125 294.8125 215.148438 304.558594 262.699219 270.101562 C 274.34375 261.664062 283.601562 251.347656 290.410156 239.910156 C 248.929688 249.917969 202.554688 235.78125 174.082031 200.6875 Z M 174.082031 200.6875 " fill-opacity="1" fill-rule="nonzero"/><path fill="#ffffff" d="M 104.082031 251.40625 C 64.582031 202.714844 72.972656 133.738281 122.785156 97.644531 C 134.707031 89.003906 148.136719 82.84375 162.703125 79.328125 C 164.8125 78.820312 167.070312 79.582031 168.433594 81.261719 C 169.792969 82.9375 169.984375 85.199219 168.921875 86.988281 C 148.261719 121.6875 151.953125 165.109375 178.320312 197.609375 C 204.691406 230.113281 248.101562 244.75 288.921875 234.902344 C 291.027344 234.394531 293.289062 235.160156 294.648438 236.835938 C 296.011719 238.515625 296.203125 240.777344 295.140625 242.566406 C 287.769531 254.949219 277.984375 265.609375 266.0625 274.246094 C 216.25 310.34375 143.585938 300.097656 104.082031 251.40625 Z M 153.609375 93.027344 C 145.003906 96.234375 136.9375 100.554688 129.511719 105.933594 C 84.375 138.636719 76.777344 201.140625 112.570312 245.257812 C 148.363281 289.375 214.203125 298.660156 259.339844 265.957031 C 266.761719 260.578125 273.273438 254.332031 278.785156 247.3125 C 237.773438 252.476562 196.128906 236.160156 169.84375 203.757812 C 143.554688 171.355469 137.691406 129.117188 153.609375 93.027344 Z M 153.609375 93.027344 " fill-opacity="1" fill-rule="nonzero"/></svg>