<svg xmlns="http://www.w3.org/2000/svg" xmlns:xlink="http://www.w3.org/1999/xlink" width="512" zoomAndPan="magnify" viewBox="0 0 384 383.999986" height="512" preserveAspectRatio="xMidYMid meet" version="1.0"><defs><clipPath id="c077fe2e74"><path d="M 101.714844 114.097656 L 102 114.097656 L 102 114.335938 L 101.714844 114.335938 Z M 101.714844 114.097656 " clip-rule="nonzero"/></clipPath><clipPath id="e6a478e312"><path d="M 102 114.238281 C 101.429688 114.492188 101.9375 114.113281 101.9375 114.113281 " clip-rule="nonzero"/></clipPath><clipPath id="852f20677e"><path d="M 21.238281 21.507812 L 362.488281 21.507812 L 362.488281 362.757812 L 21.238281 362.757812 Z M 21.238281 21.507812 " clip-rule="nonzero"/></clipPath></defs><g clip-path="url(#c077fe2e74)"><g clip-path="url(#e6a478e312)"><path fill="#9747ff" d="M 98.898438 111.578125 L 104.597656 111.578125 L 104.597656 117.089844 L 98.898438 117.089844 Z M 98.898438 111.578125 " fill-opacity="1" fill-rule="nonzero"/></g></g><g clip-path="url(#852f20677e)"><path fill="#00bf63" d="M 362.488281 191.996094 C 362.488281 97.835938 286.160156 21.507812 191.996094 21.507812 C 97.835938 21.507812 21.507812 97.835938 21.507812 191.996094 C 21.507812 286.160156 97.835938 362.488281 191.996094 362.488281 C 286.160156 362.488281 362.488281 286.160156 362.488281 191.996094 Z M 105.542969 174.949219 L 131.117188 149.375 L 191.996094 210.257812 L 252.878906 149.375 L 278.453125 174.949219 L 191.996094 261.402344 Z M 105.542969 174.949219 " fill-opacity="1" fill-rule="nonzero"/></g></svg>