<svg xmlns="http://www.w3.org/2000/svg" xmlns:xlink="http://www.w3.org/1999/xlink" width="500" zoomAndPan="magnify" viewBox="0 0 375 374.999991" height="500" preserveAspectRatio="xMidYMid meet" version="1.0"><defs><clipPath id="8b7e146f05"><path d="M 62.515625 96.65625 L 62.871094 96.65625 L 62.871094 96.9375 L 62.515625 96.9375 Z M 62.515625 96.65625 " clip-rule="nonzero"/></clipPath><clipPath id="837e3a7c43"><path d="M 62.851562 96.824219 C 62.175781 97.125 62.773438 96.675781 62.773438 96.675781 " clip-rule="nonzero"/></clipPath><clipPath id="35f8518576"><path d="M 20 24 L 355 24 L 355 358.386719 L 20 358.386719 Z M 20 24 " clip-rule="nonzero"/></clipPath></defs><g clip-path="url(#8b7e146f05)"><g clip-path="url(#837e3a7c43)"><path fill="#9747ff" d="M 59.175781 93.675781 L 65.929688 93.675781 L 65.929688 100.199219 L 59.175781 100.199219 Z M 59.175781 93.675781 " fill-opacity="1" fill-rule="nonzero"/></g></g><g clip-path="url(#35f8518576)"><path fill="#545454" d="M 187.386719 358.539062 C 179.417969 358.539062 171.4375 357.964844 163.476562 356.8125 C 141.328125 353.613281 120.3125 346.074219 101.007812 334.40625 C 81.703125 322.738281 65.261719 307.632812 52.132812 289.511719 C 39.453125 272.011719 30.394531 252.457031 25.199219 231.386719 C 20.003906 210.320312 18.9375 188.792969 22.03125 167.40625 C 25.230469 145.257812 32.773438 124.242188 44.4375 104.941406 C 61.007812 77.53125 84.886719 55.597656 113.496094 41.511719 C 141.335938 27.800781 172.351562 22.082031 203.1875 24.980469 C 209.5 25.570312 214.136719 31.167969 213.546875 37.484375 C 212.953125 43.796875 207.355469 48.441406 201.042969 47.84375 C 174.433594 45.34375 147.671875 50.277344 123.640625 62.113281 C 98.972656 74.257812 78.386719 93.171875 64.089844 116.820312 C 54.019531 133.476562 47.515625 151.605469 44.753906 170.695312 C 42.089844 189.136719 43.011719 207.710938 47.492188 225.894531 C 51.976562 244.078125 59.792969 260.949219 70.726562 276.039062 C 82.042969 291.660156 96.226562 304.683594 112.882812 314.753906 C 129.542969 324.824219 147.671875 331.328125 166.757812 334.089844 C 185.203125 336.753906 203.777344 335.835938 221.957031 331.351562 C 240.140625 326.867188 257.015625 319.050781 272.105469 308.117188 C 287.726562 296.804688 300.75 282.617188 310.820312 265.960938 C 322.503906 246.628906 329.347656 225.503906 331.160156 203.164062 C 332.890625 181.855469 329.765625 159.996094 322.125 139.949219 C 319.867188 134.027344 322.839844 127.390625 328.765625 125.132812 C 334.6875 122.875 341.320312 125.847656 343.582031 131.769531 C 352.433594 154.988281 356.050781 180.320312 354.046875 205.015625 C 353.023438 217.648438 350.546875 230.160156 346.691406 242.214844 C 342.722656 254.613281 337.265625 266.597656 330.472656 277.832031 C 318.804688 297.136719 303.703125 313.582031 285.578125 326.710938 C 268.078125 339.386719 248.527344 348.449219 227.457031 353.644531 C 214.234375 356.902344 200.824219 358.535156 187.386719 358.535156 Z M 187.386719 358.539062 " fill-opacity="1" fill-rule="nonzero"/></g><path fill="#545454" d="M 145.933594 283.410156 C 140.105469 283.410156 134.386719 281.496094 129.6875 277.890625 C 123.59375 273.207031 119.8125 266.125 119.3125 258.453125 L 117.234375 226.304688 C 116.75 218.824219 118.933594 211.375 123.382812 205.335938 L 251.886719 30.84375 C 260.605469 19 277.339844 16.460938 289.183594 25.179688 L 326.292969 52.511719 C 332.03125 56.738281 335.78125 62.941406 336.847656 69.984375 C 337.917969 77.03125 336.179688 84.070312 331.957031 89.808594 L 203.730469 263.921875 C 199.003906 270.339844 192.09375 274.730469 184.28125 276.289062 L 151.144531 282.886719 C 149.414062 283.234375 147.671875 283.402344 145.933594 283.402344 Z M 273.367188 42.953125 C 272.226562 42.953125 271.097656 43.476562 270.375 44.464844 L 141.867188 218.957031 C 140.625 220.648438 140.011719 222.734375 140.148438 224.828125 L 142.226562 256.972656 C 142.324219 258.4375 143.171875 259.296875 143.671875 259.679688 C 144.167969 260.0625 145.222656 260.660156 146.65625 260.375 L 179.792969 253.777344 C 181.980469 253.339844 183.914062 252.109375 185.238281 250.316406 L 313.464844 76.199219 C 314.257812 75.121094 314.230469 74.007812 314.144531 73.441406 C 314.058594 72.875 313.753906 71.800781 312.675781 71.007812 L 275.5625 43.679688 C 274.902344 43.191406 274.132812 42.957031 273.367188 42.957031 Z M 273.367188 42.953125 " fill-opacity="1" fill-rule="nonzero"/><path fill="#545454" d="M 302.179688 117.496094 C 299.8125 117.496094 297.429688 116.769531 295.378906 115.257812 L 241.363281 75.480469 C 236.257812 71.71875 235.167969 64.53125 238.929688 59.425781 C 242.6875 54.320312 249.875 53.226562 254.980469 56.988281 L 308.996094 96.769531 C 314.101562 100.527344 315.195312 107.714844 311.433594 112.820312 C 309.183594 115.878906 305.703125 117.496094 302.179688 117.496094 Z M 302.179688 117.496094 " fill-opacity="1" fill-rule="nonzero"/></svg>