<svg xmlns="http://www.w3.org/2000/svg" xmlns:xlink="http://www.w3.org/1999/xlink" width="500" zoomAndPan="magnify" viewBox="0 0 375 374.999991" height="500" preserveAspectRatio="xMidYMid meet" version="1.0"><defs><clipPath id="58e5b3bd6c"><path d="M 187.394531 199.546875 L 194.574219 199.546875 L 194.574219 207.085938 L 187.394531 207.085938 Z M 187.394531 199.546875 " clip-rule="nonzero"/></clipPath><clipPath id="ae1148993e"><path d="M 194.550781 202.125 C 194.398438 204.824219 193.351562 206.25 192.523438 206.699219 C 192 207 191.398438 207.148438 190.800781 207 C 189.898438 206.851562 188.324219 206.101562 187.800781 205.199219 C 187.273438 204.300781 187.351562 202.574219 187.574219 201.75 C 187.800781 201.074219 188.25 200.699219 188.699219 200.324219 C 189.148438 199.949219 189.675781 199.648438 190.351562 199.574219 C 191.25 199.5 193.648438 200.625 193.648438 200.625 " clip-rule="nonzero"/></clipPath><clipPath id="c305984de2"><path d="M 72 18 L 296.964844 18 L 296.964844 357 L 72 357 Z M 72 18 " clip-rule="nonzero"/></clipPath><clipPath id="1d794c8f29"><path d="M 106.140625 225.175781 L 250 225.175781 L 250 336.921875 L 106.140625 336.921875 Z M 106.140625 225.175781 " clip-rule="nonzero"/></clipPath></defs><g clip-path="url(#58e5b3bd6c)"><g clip-path="url(#ae1148993e)"><path fill="#ffffff" d="M 184.574219 196.574219 L 197.699219 196.574219 L 197.699219 210.058594 L 184.574219 210.058594 Z M 184.574219 196.574219 " fill-opacity="1" fill-rule="nonzero"/></g></g><g clip-path="url(#c305984de2)"><path fill="#059e54" d="M 275.023438 161.035156 C 275.054688 181.433594 267.253906 201.816406 251.695312 217.371094 C 243.457031 225.625 230.085938 225.625 221.835938 217.371094 C 213.582031 209.121094 213.582031 195.738281 221.835938 187.5 C 237.40625 171.941406 245.1875 151.558594 245.164062 131.160156 C 245.164062 87.164062 227.367188 47.3125 198.480469 18.484375 C 198.480469 51.523438 185.113281 81.394531 163.460938 102.992188 L 107.125 159.328125 C 85.464844 180.917969 72.105469 210.796875 72.105469 243.835938 C 72.105469 306.035156 122.582031 356.511719 184.78125 356.511719 C 247.007812 356.511719 297.460938 306.035156 297.460938 243.835938 C 297.460938 211.503906 288.890625 182.21875 275.023438 161.035156 Z M 275.023438 161.035156 " fill-opacity="1" fill-rule="nonzero"/></g><g clip-path="url(#1d794c8f29)"><path fill="#feffe9" d="M 239.085938 258.9375 C 238.5 254.585938 238.421875 247.085938 242.464844 244.574219 C 242.53125 244.527344 242.589844 244.460938 242.65625 244.40625 C 245.957031 243.34375 248.242188 241.859375 246.453125 239.863281 L 197.699219 225.175781 L 118.765625 236.148438 C 118.765625 236.148438 109.734375 237.441406 110.53125 251.488281 C 110.972656 259.128906 113.371094 262.878906 115.464844 264.726562 L 108.988281 266.6875 C 107.199219 268.679688 109.484375 270.15625 112.785156 271.214844 C 112.851562 271.269531 112.898438 271.339844 112.976562 271.382812 C 117.011719 273.90625 116.929688 281.398438 116.355469 285.757812 C 101.847656 289.867188 107.050781 291.21875 107.050781 291.21875 L 110.238281 291.988281 C 108 294.015625 105.769531 297.84375 106.195312 305.121094 C 106.996094 319.167969 114.417969 320.136719 114.417969 320.136719 L 166.078125 336.921875 L 244.042969 318.042969 C 244.042969 318.042969 249.246094 316.691406 234.738281 312.566406 C 234.152344 308.230469 234.070312 300.726562 238.117188 298.203125 C 238.195312 298.160156 238.238281 298.09375 238.308594 298.035156 C 241.609375 296.976562 243.894531 295.5 242.105469 293.507812 L 238.714844 292.480469 C 240.976562 291.117188 244.367188 287.558594 244.898438 278.300781 C 245.269531 271.945312 243.601562 268.21875 241.6875 266.019531 L 248.378906 264.398438 C 248.378906 264.398438 253.59375 263.058594 239.085938 258.9375 Z M 173.875 258.753906 L 186.972656 256.0625 L 231.289062 246.949219 L 237.890625 245.597656 C 235.773438 249.460938 235.863281 254.746094 236.210938 258.136719 C 236.292969 258.902344 236.382812 259.601562 236.460938 260.140625 L 229.238281 261.933594 L 173.320312 275.84375 Z M 117.550781 272.417969 L 124.152344 273.769531 L 166.699219 282.523438 L 170.414062 283.289062 L 181.566406 285.578125 L 182.109375 302.664062 L 124.636719 288.371094 L 118.96875 286.960938 C 119.058594 286.421875 119.140625 285.722656 119.230469 284.957031 C 119.566406 281.566406 119.65625 276.285156 117.550781 272.417969 Z M 114.980469 250.8125 C 114.902344 247.074219 115.566406 244.371094 116.917969 242.996094 C 117.777344 242.117188 118.789062 241.9375 119.476562 241.9375 C 119.847656 241.9375 120.109375 241.992188 120.128906 241.992188 L 154.136719 253.078125 L 171.101562 258.609375 L 170.550781 275.820312 L 122.945312 262.472656 L 120.433594 261.773438 C 120.34375 261.753906 120.210938 261.730469 120.117188 261.730469 C 119.917969 261.707031 115.21875 261.277344 114.980469 250.8125 Z M 166.203125 329.464844 L 116.085938 315.417969 C 115.996094 315.382812 115.871094 315.371094 115.769531 315.359375 C 115.566406 315.347656 110.859375 314.921875 110.632812 304.457031 C 110.554688 300.714844 111.21875 298.011719 112.570312 296.636719 C 113.425781 295.761719 114.429688 295.578125 115.128906 295.578125 C 115.488281 295.578125 115.757812 295.636719 115.769531 295.636719 C 115.769531 295.636719 115.78125 295.636719 115.769531 295.636719 L 166.753906 312.25 Z M 231.863281 311.777344 C 231.941406 312.542969 232.03125 313.242188 232.113281 313.785156 L 168.972656 329.488281 L 169.515625 312.398438 L 183.019531 309.617188 L 185.015625 310.101562 L 192.484375 307.679688 L 226.929688 300.59375 L 233.53125 299.242188 C 231.425781 303.09375 231.515625 308.375 231.863281 311.777344 Z M 235.34375 288.539062 C 235.230469 288.550781 235.109375 288.5625 235.007812 288.597656 L 230.242188 289.9375 L 184.890625 302.644531 L 184.339844 285.429688 L 199.21875 280.574219 L 235.242188 268.828125 C 235.242188 268.828125 237.136719 268.410156 238.523438 269.816406 C 239.863281 271.191406 240.539062 273.894531 240.460938 277.636719 C 240.222656 288.101562 235.515625 288.527344 235.34375 288.539062 Z M 235.34375 288.539062 " fill-opacity="1" fill-rule="nonzero"/></g></svg>