<svg xmlns="http://www.w3.org/2000/svg" xmlns:xlink="http://www.w3.org/1999/xlink" width="500" zoomAndPan="magnify" viewBox="0 0 375 374.999991" height="500" preserveAspectRatio="xMidYMid meet" version="1.0"><defs><clipPath id="f95c5ba562"><path d="M 62.515625 96.65625 L 62.871094 96.65625 L 62.871094 96.9375 L 62.515625 96.9375 Z M 62.515625 96.65625 " clip-rule="nonzero"/></clipPath><clipPath id="bd65fe8405"><path d="M 62.851562 96.824219 C 62.175781 97.125 62.773438 96.675781 62.773438 96.675781 " clip-rule="nonzero"/></clipPath><clipPath id="8bc5f4343a"><path d="M 17.582031 17.582031 L 357.332031 17.582031 L 357.332031 357.332031 L 17.582031 357.332031 Z M 17.582031 17.582031 " clip-rule="nonzero"/></clipPath><clipPath id="fae6a01bc3"><path d="M 84.925781 209.5 L 89.1875 209.5 L 89.1875 213.148438 L 84.925781 213.148438 Z M 84.925781 209.5 " clip-rule="nonzero"/></clipPath><clipPath id="eb814be7da"><path d="M 89.175781 210.75 C 87.300781 213.824219 85.5 213.226562 85.125 212.625 C 84.75 211.949219 85.050781 210.148438 85.648438 209.699219 C 86.25 209.25 88.648438 209.851562 88.648438 209.851562 " clip-rule="nonzero"/></clipPath></defs><g clip-path="url(#f95c5ba562)"><g clip-path="url(#bd65fe8405)"><path fill="#9747ff" d="M 59.175781 93.675781 L 65.929688 93.675781 L 65.929688 100.199219 L 59.175781 100.199219 Z M 59.175781 93.675781 " fill-opacity="1" fill-rule="nonzero"/></g></g><g clip-path="url(#8bc5f4343a)"><path fill="#545454" d="M 66.886719 67.644531 C 100.265625 34.269531 140.46875 17.582031 187.496094 17.582031 C 234.527344 17.582031 274.605469 34.144531 307.730469 67.265625 C 340.851562 100.390625 357.414062 140.46875 357.414062 187.496094 C 357.414062 234.527344 340.851562 274.605469 307.730469 307.730469 C 274.605469 340.851562 234.527344 357.414062 187.496094 357.414062 C 140.46875 357.414062 100.390625 340.851562 67.265625 307.730469 C 34.144531 274.605469 17.582031 234.527344 17.582031 187.496094 C 17.582031 140.46875 34.015625 100.515625 66.886719 67.644531 Z M 202.667969 265.628906 C 203.175781 259.054688 201.277344 253.492188 196.980469 248.941406 C 192.679688 244.390625 187.246094 242.113281 180.671875 242.113281 C 174.601562 242.113281 169.292969 244.136719 164.742188 248.183594 C 160.191406 252.226562 157.914062 257.539062 157.914062 264.113281 C 157.914062 270.6875 159.9375 276.121094 163.984375 280.421875 C 168.027344 284.71875 173.085938 286.867188 179.152344 286.867188 C 185.726562 286.867188 191.289062 284.972656 195.84375 281.179688 C 200.394531 277.386719 202.667969 272.203125 202.667969 265.628906 Z M 239.839844 168.535156 C 245.90625 159.9375 248.941406 150.835938 248.941406 141.226562 C 248.941406 124.539062 242.621094 111.390625 229.976562 101.78125 C 217.839844 92.679688 202.164062 88.128906 182.945312 88.128906 C 168.785156 88.128906 156.902344 91.414062 147.292969 97.988281 C 133.136719 107.597656 126.054688 124.789062 126.054688 149.570312 L 163.222656 149.570312 C 163.222656 138.949219 164.234375 132.125 166.257812 129.089844 C 170.808594 121.503906 177.382812 117.710938 185.980469 117.710938 C 194.578125 117.710938 200.898438 120.492188 204.945312 126.054688 C 208.988281 131.617188 211.011719 137.433594 211.011719 143.5 C 211.011719 147.546875 208.988281 152.605469 204.945312 158.671875 C 203.933594 160.695312 201.40625 163.222656 197.359375 166.257812 C 184.210938 173.84375 175.359375 181.429688 170.808594 189.015625 C 166.765625 195.589844 164.234375 205.957031 163.222656 220.117188 C 163.222656 222.136719 164.234375 223.148438 166.257812 223.148438 L 195.84375 223.148438 C 198.371094 223.148438 199.632812 222.136719 199.632812 220.117188 C 199.632812 214.554688 200.140625 209.75 201.152344 205.703125 C 202.667969 201.152344 205.703125 196.851562 210.253906 192.808594 L 220.875 185.980469 C 230.484375 178.902344 236.804688 173.085938 239.839844 168.535156 Z M 239.839844 168.535156 " fill-opacity="1" fill-rule="nonzero"/></g><g clip-path="url(#fae6a01bc3)"><g clip-path="url(#eb814be7da)"><path fill="#545454" d="M 82.125 206.699219 L 92.257812 206.699219 L 92.257812 216.523438 L 82.125 216.523438 Z M 82.125 206.699219 " fill-opacity="1" fill-rule="nonzero"/></g></g></svg>