<svg xmlns="http://www.w3.org/2000/svg" xmlns:xlink="http://www.w3.org/1999/xlink" width="500" zoomAndPan="magnify" viewBox="0 0 375 374.999991" height="500" preserveAspectRatio="xMidYMid meet" version="1.0"><defs><clipPath id="f566ef3e8c"><path d="M 187.394531 199.546875 L 194.574219 199.546875 L 194.574219 207.085938 L 187.394531 207.085938 Z M 187.394531 199.546875 " clip-rule="nonzero"/></clipPath><clipPath id="6c7a3b1eda"><path d="M 194.550781 202.125 C 194.398438 204.824219 193.351562 206.25 192.523438 206.699219 C 192 207 191.398438 207.148438 190.800781 207 C 189.898438 206.851562 188.324219 206.101562 187.800781 205.199219 C 187.273438 204.300781 187.351562 202.574219 187.574219 201.75 C 187.800781 201.074219 188.25 200.699219 188.699219 200.324219 C 189.148438 199.949219 189.675781 199.648438 190.351562 199.574219 C 191.25 199.5 193.648438 200.625 193.648438 200.625 " clip-rule="nonzero"/></clipPath><clipPath id="1019bf1c26"><path d="M 18.222656 18.222656 L 358.722656 18.222656 L 358.722656 358.722656 L 18.222656 358.722656 Z M 18.222656 18.222656 " clip-rule="nonzero"/></clipPath><clipPath id="61f3b44b0c"><path d="M 95.078125 287.132812 L 102.316406 287.132812 L 102.316406 294.675781 L 95.078125 294.675781 Z M 95.078125 287.132812 " clip-rule="nonzero"/></clipPath><clipPath id="5520578b2d"><path d="M 102.300781 289.800781 C 101.324219 293.773438 100.800781 294.074219 100.273438 294.300781 C 99.75 294.523438 99.148438 294.75 98.476562 294.601562 C 97.574219 294.449219 96.074219 293.699219 95.476562 292.800781 C 94.949219 291.976562 95.023438 290.25 95.324219 289.351562 C 95.476562 288.75 95.925781 288.300781 96.375 287.925781 C 96.824219 287.550781 97.425781 287.25 98.023438 287.175781 C 98.925781 287.175781 101.398438 288.226562 101.398438 288.226562 " clip-rule="nonzero"/></clipPath></defs><g clip-path="url(#f566ef3e8c)"><g clip-path="url(#6c7a3b1eda)"><path fill="#ffffff" d="M 184.574219 196.574219 L 197.699219 196.574219 L 197.699219 210.058594 L 184.574219 210.058594 Z M 184.574219 196.574219 " fill-opacity="1" fill-rule="nonzero"/></g></g><g clip-path="url(#1019bf1c26)"><path fill="#059e54" d="M 188.550781 18.222656 C 94.480469 18.222656 18.222656 94.480469 18.222656 188.550781 C 18.222656 282.617188 94.480469 358.875 188.550781 358.875 C 282.617188 358.875 358.875 282.617188 358.875 188.550781 C 358.875 94.480469 282.617188 18.222656 188.550781 18.222656 Z M 287.59375 193.363281 C 282.738281 198.21875 275.574219 199.347656 269.636719 196.761719 L 269.636719 261.363281 C 269.636719 274.796875 258.746094 285.691406 245.3125 285.691406 L 131.789062 285.691406 C 118.355469 285.691406 107.464844 274.796875 107.464844 261.363281 L 107.464844 196.761719 C 101.527344 199.347656 94.363281 198.21875 89.507812 193.363281 C 83.175781 187.03125 83.175781 176.761719 89.507812 170.429688 L 177.082031 82.855469 C 183.417969 76.519531 193.683594 76.519531 200.015625 82.855469 L 287.59375 170.429688 C 293.925781 176.761719 293.925781 187.03125 287.59375 193.363281 Z M 287.59375 193.363281 " fill-opacity="1" fill-rule="nonzero"/></g><path fill="#059e54" d="M 208.824219 196.492188 L 168.277344 196.492188 C 163.800781 196.492188 160.167969 200.125 160.167969 204.601562 L 160.167969 253.253906 C 160.167969 257.734375 163.800781 261.363281 168.277344 261.363281 L 208.824219 261.363281 C 213.300781 261.363281 216.933594 257.734375 216.933594 253.253906 L 216.933594 204.601562 C 216.929688 200.125 213.300781 196.492188 208.824219 196.492188 Z M 208.824219 196.492188 " fill-opacity="1" fill-rule="nonzero"/><g clip-path="url(#61f3b44b0c)"><g clip-path="url(#5520578b2d)"><path fill="#059e54" d="M 92.324219 284.175781 L 105.375 284.175781 L 105.375 297.683594 L 92.324219 297.683594 Z M 92.324219 284.175781 " fill-opacity="1" fill-rule="nonzero"/></g></g></svg>