<svg xmlns="http://www.w3.org/2000/svg" xmlns:xlink="http://www.w3.org/1999/xlink" width="500" zoomAndPan="magnify" viewBox="0 0 375 374.999991" height="500" preserveAspectRatio="xMidYMid meet" version="1.0"><defs><clipPath id="e02f5f1f0a"><path d="M 62.515625 96.65625 L 62.871094 96.65625 L 62.871094 96.9375 L 62.515625 96.9375 Z M 62.515625 96.65625 " clip-rule="nonzero"/></clipPath><clipPath id="4f3bae14e1"><path d="M 62.851562 96.824219 C 62.175781 97.125 62.773438 96.675781 62.773438 96.675781 " clip-rule="nonzero"/></clipPath><clipPath id="5fb5f9594c"><path d="M 84.925781 209.5 L 89.1875 209.5 L 89.1875 213.148438 L 84.925781 213.148438 Z M 84.925781 209.5 " clip-rule="nonzero"/></clipPath><clipPath id="7595b74579"><path d="M 89.175781 210.75 C 87.300781 213.824219 85.5 213.226562 85.125 212.625 C 84.75 211.949219 85.050781 210.148438 85.648438 209.699219 C 86.25 209.25 88.648438 209.851562 88.648438 209.851562 " clip-rule="nonzero"/></clipPath><clipPath id="b655e91976"><path d="M 22.546875 21 L 250 21 L 250 350 L 22.546875 350 Z M 22.546875 21 " clip-rule="nonzero"/></clipPath></defs><g clip-path="url(#e02f5f1f0a)"><g clip-path="url(#4f3bae14e1)"><path fill="#9747ff" d="M 59.175781 93.675781 L 65.929688 93.675781 L 65.929688 100.199219 L 59.175781 100.199219 Z M 59.175781 93.675781 " fill-opacity="1" fill-rule="nonzero"/></g></g><g clip-path="url(#5fb5f9594c)"><g clip-path="url(#7595b74579)"><path fill="#545454" d="M 82.125 206.699219 L 92.257812 206.699219 L 92.257812 216.523438 L 82.125 216.523438 Z M 82.125 206.699219 " fill-opacity="1" fill-rule="nonzero"/></g></g><g clip-path="url(#b655e91976)"><path fill="#545454" d="M 249.671875 127.671875 L 227.132812 127.671875 L 227.132812 45.832031 L 80.683594 45.832031 C 99.636719 56.882812 114.796875 66.53125 130.714844 74.695312 C 140.832031 79.886719 144.1875 86.882812 144.097656 98.050781 C 143.632812 148.636719 143.894531 199.277344 143.894531 249.863281 L 143.894531 269.632812 L 226.464844 269.632812 L 226.464844 206.480469 L 249.585938 206.480469 C 249.585938 231.933594 249.964844 256.832031 249.4375 281.730469 C 249.207031 291.734375 241.683594 294.125 232.964844 294.066406 C 209.234375 293.917969 185.5 294.007812 161.707031 294.007812 L 143.808594 294.007812 C 143.808594 308.175781 144.214844 321.269531 143.71875 334.300781 C 143.164062 349.402344 135.789062 353.6875 122.785156 346.3125 C 92.347656 329.109375 61.90625 311.878906 32.050781 293.6875 C 27.386719 290.859375 23.070312 283.074219 23.011719 277.535156 C 22.460938 197.441406 22.75 117.351562 22.546875 37.257812 C 22.546875 25.773438 27.679688 21.457031 38.4375 21.457031 C 103.367188 21.574219 168.296875 21.574219 233.226562 21.515625 C 241.917969 21.515625 249.410156 23.761719 249.527344 33.933594 C 249.933594 64.78125 249.671875 95.601562 249.671875 127.671875 " fill-opacity="1" fill-rule="nonzero"/></g><path fill="#545454" d="M 273.492188 183.332031 C 253.695312 183.332031 235.882812 183.476562 218.066406 183.273438 C 203.199219 183.125 194.683594 176.859375 195.820312 166.421875 C 197.21875 153.386719 206.375 150.269531 217.746094 150.382812 C 235.589844 150.558594 253.433594 150.414062 273.464844 150.414062 C 273.464844 141.492188 273.203125 133.355469 273.523438 125.25 C 274.015625 113.355469 278.507812 110.410156 287.632812 116.824219 C 307.460938 130.851562 326.847656 145.484375 346.324219 159.976562 C 352.449219 164.523438 352.59375 169.539062 346.324219 174.175781 C 326.382812 188.871094 306.527344 203.710938 286.351562 218.027344 C 278.011719 223.945312 273.84375 219.542969 273.550781 210.445312 C 273.289062 202.164062 273.464844 193.855469 273.464844 183.332031 L 273.492188 183.332031 " fill-opacity="1" fill-rule="nonzero"/></svg>