<svg xmlns="http://www.w3.org/2000/svg" xmlns:xlink="http://www.w3.org/1999/xlink" width="512" zoomAndPan="magnify" viewBox="0 0 384 383.999986" height="512" preserveAspectRatio="xMidYMid meet" version="1.0"><defs><clipPath id="117d97a307"><path d="M 67.976562 101.855469 L 68.328125 101.855469 L 68.328125 102.132812 L 67.976562 102.132812 Z M 67.976562 101.855469 " clip-rule="nonzero"/></clipPath><clipPath id="d5e2b3fec3"><path d="M 68.308594 102.023438 C 67.640625 102.320312 68.234375 101.875 68.234375 101.875 " clip-rule="nonzero"/></clipPath><clipPath id="341c4432d4"><path d="M 36 50.582031 L 348 50.582031 L 348 333.332031 L 36 333.332031 Z M 36 50.582031 " clip-rule="nonzero"/></clipPath></defs><g clip-path="url(#117d97a307)"><g clip-path="url(#d5e2b3fec3)"><path fill="#9747ff" d="M 64.664062 98.898438 L 71.363281 98.898438 L 71.363281 105.371094 L 64.664062 105.371094 Z M 64.664062 98.898438 " fill-opacity="1" fill-rule="nonzero"/></g></g><g clip-path="url(#341c4432d4)"><path fill="#e10e0e" d="M 264.917969 50.582031 C 229.199219 50.582031 203.394531 71.078125 191.972656 82.273438 C 180.554688 71.078125 154.792969 50.582031 119.074219 50.582031 C 88.578125 50.582031 61.710938 68.066406 47.238281 97.324219 C 28.207031 135.789062 35.597656 184.828125 66.757812 225.636719 C 103.980469 269.765625 157.804688 312.703125 179.226562 329.121094 C 182.988281 332 187.460938 333.414062 191.972656 333.414062 C 196.488281 333.414062 200.960938 332 204.722656 329.121094 C 226.144531 312.703125 279.964844 269.765625 317.457031 225.328125 C 348.394531 184.828125 355.785156 135.789062 336.753906 97.324219 C 322.28125 68.066406 295.414062 50.582031 264.917969 50.582031 Z M 304.488281 214.925781 C 268.324219 257.816406 215.609375 299.867188 194.628906 315.933594 C 193.082031 317.128906 190.910156 317.128906 189.363281 315.933594 C 168.382812 299.867188 115.667969 257.816406 79.769531 215.238281 C 47.414062 172.878906 49.453125 130.34375 62.15625 104.671875 C 73.796875 81.167969 95.042969 67.183594 119.074219 67.183594 C 159 67.183594 185.246094 99.316406 185.511719 99.625 C 188.65625 103.609375 195.382812 103.609375 198.523438 99.625 C 198.789062 99.316406 224.773438 67.183594 264.960938 67.183594 C 288.996094 67.183594 310.242188 81.210938 321.882812 104.671875 C 334.539062 130.386719 336.578125 172.921875 304.488281 214.925781 Z M 304.488281 214.925781 " fill-opacity="1" fill-rule="nonzero"/></g></svg>