<svg xmlns="http://www.w3.org/2000/svg" xmlns:xlink="http://www.w3.org/1999/xlink" width="512" zoomAndPan="magnify" viewBox="0 0 384 383.999986" height="512" preserveAspectRatio="xMidYMid meet" version="1.0"><defs><clipPath id="63d95c068f"><path d="M 67.976562 101.855469 L 68.328125 101.855469 L 68.328125 102.132812 L 67.976562 102.132812 Z M 67.976562 101.855469 " clip-rule="nonzero"/></clipPath><clipPath id="df1281a328"><path d="M 68.308594 102.023438 C 67.640625 102.320312 68.234375 101.875 68.234375 101.875 " clip-rule="nonzero"/></clipPath><clipPath id="49aa52b119"><path d="M 33 47.957031 L 351 47.957031 L 351 335.957031 L 33 335.957031 Z M 33 47.957031 " clip-rule="nonzero"/></clipPath></defs><g clip-path="url(#63d95c068f)"><g clip-path="url(#df1281a328)"><path fill="#9747ff" d="M 64.664062 98.898438 L 71.363281 98.898438 L 71.363281 105.371094 L 64.664062 105.371094 Z M 64.664062 98.898438 " fill-opacity="1" fill-rule="nonzero"/></g></g><g clip-path="url(#49aa52b119)"><path fill="#e10808" d="M 267.390625 47.957031 C 229.511719 47.957031 202.65625 70.738281 191.996094 81.582031 C 181.382812 70.738281 154.527344 47.957031 116.648438 47.957031 C 85.949219 47.957031 58.910156 65.570312 44.316406 95.078125 C 25.011719 134.101562 32.558594 183.921875 64.21875 225.371094 C 102.554688 270.84375 158.050781 315.085938 180.148438 332.011719 C 183.625 334.710938 187.832031 336.039062 191.996094 336.039062 C 196.203125 336.039062 200.367188 334.710938 203.84375 332.011719 C 225.941406 315.085938 281.390625 270.84375 319.957031 225.140625 C 351.429688 183.921875 358.980469 134.101562 339.671875 95.078125 C 325.125 65.570312 298.089844 47.957031 267.390625 47.957031 Z M 267.390625 47.957031 " fill-opacity="1" fill-rule="nonzero"/></g></svg>