<svg xmlns="http://www.w3.org/2000/svg" xmlns:xlink="http://www.w3.org/1999/xlink" width="500" zoomAndPan="magnify" viewBox="0 0 375 299.999988" height="400" preserveAspectRatio="xMidYMid meet" version="1.0"><defs><clipPath id="c3ab9e7a62"><path d="M 74.773438 68.066406 L 75.09375 68.066406 L 75.09375 68.320312 L 74.773438 68.320312 Z M 74.773438 68.066406 " clip-rule="nonzero"/></clipPath><clipPath id="54fdb2c48a"><path d="M 75.074219 68.21875 C 74.464844 68.488281 75.007812 68.082031 75.007812 68.082031 " clip-rule="nonzero"/></clipPath><clipPath id="4f9b4351c1"><path d="M 92 30 L 361.359375 30 L 361.359375 90 L 92 90 Z M 92 30 " clip-rule="nonzero"/></clipPath><clipPath id="a72ae16895"><path d="M 13.359375 30 L 74 30 L 74 90 L 13.359375 90 Z M 13.359375 30 " clip-rule="nonzero"/></clipPath><clipPath id="1a930a18bf"><path d="M 92 120 L 361.359375 120 L 361.359375 180 L 92 180 Z M 92 120 " clip-rule="nonzero"/></clipPath><clipPath id="82c287f3ea"><path d="M 13.359375 120 L 74 120 L 74 180 L 13.359375 180 Z M 13.359375 120 " clip-rule="nonzero"/></clipPath><clipPath id="dafb124b8e"><path d="M 92 210 L 361.359375 210 L 361.359375 270 L 92 270 Z M 92 210 " clip-rule="nonzero"/></clipPath><clipPath id="34c024a3ef"><path d="M 13.359375 210 L 74 210 L 74 270 L 13.359375 270 Z M 13.359375 210 " clip-rule="nonzero"/></clipPath></defs><g clip-path="url(#c3ab9e7a62)"><g clip-path="url(#54fdb2c48a)"><path fill="#9747ff" d="M 71.761719 65.375 L 77.851562 65.375 L 77.851562 71.261719 L 71.761719 71.261719 Z M 71.761719 65.375 " fill-opacity="1" fill-rule="nonzero"/></g></g><g clip-path="url(#4f9b4351c1)"><path fill="#00bf63" d="M 331.542969 89.441406 L 122.695312 89.441406 C 106.3125 89.441406 92.980469 76.109375 92.980469 59.722656 C 92.972656 43.332031 106.304688 30 122.695312 30 L 331.542969 30 C 347.929688 30 361.261719 43.332031 361.261719 59.71875 C 361.261719 76.109375 347.929688 89.441406 331.542969 89.441406 Z M 122.695312 39.914062 C 111.777344 39.914062 102.894531 48.796875 102.894531 59.71875 C 102.894531 70.636719 111.777344 79.519531 122.695312 79.519531 L 331.542969 79.519531 C 342.464844 79.519531 351.347656 70.636719 351.347656 59.71875 C 351.347656 48.796875 342.464844 39.914062 331.542969 39.914062 Z M 122.695312 39.914062 " fill-opacity="1" fill-rule="nonzero"/></g><g clip-path="url(#a72ae16895)"><path fill="#00bf63" d="M 43.476562 89.441406 C 27.09375 89.441406 13.761719 76.109375 13.761719 59.71875 C 13.761719 43.332031 27.09375 30 43.476562 30 C 59.863281 30 73.195312 43.332031 73.195312 59.71875 C 73.203125 76.109375 59.871094 89.441406 43.476562 89.441406 Z M 43.476562 39.914062 C 32.558594 39.914062 23.675781 48.796875 23.675781 59.71875 C 23.675781 70.636719 32.558594 79.519531 43.476562 79.519531 C 54.398438 79.519531 63.28125 70.636719 63.28125 59.71875 C 63.289062 48.796875 54.402344 39.914062 43.476562 39.914062 Z M 43.476562 39.914062 " fill-opacity="1" fill-rule="nonzero"/></g><g clip-path="url(#1a930a18bf)"><path fill="#00bf63" d="M 331.542969 179.710938 L 122.695312 179.710938 C 106.3125 179.710938 92.980469 166.378906 92.980469 149.992188 C 92.980469 133.609375 106.3125 120.277344 122.695312 120.277344 L 331.542969 120.277344 C 347.929688 120.277344 361.261719 133.609375 361.261719 149.992188 C 361.261719 166.378906 347.929688 179.710938 331.542969 179.710938 Z M 122.695312 130.191406 C 111.777344 130.191406 102.894531 139.074219 102.894531 149.992188 C 102.894531 160.914062 111.777344 169.796875 122.695312 169.796875 L 331.542969 169.796875 C 342.464844 169.796875 351.347656 160.914062 351.347656 149.992188 C 351.347656 139.074219 342.464844 130.191406 331.542969 130.191406 Z M 122.695312 130.191406 " fill-opacity="1" fill-rule="nonzero"/></g><g clip-path="url(#82c287f3ea)"><path fill="#00bf63" d="M 43.476562 179.710938 C 27.09375 179.710938 13.761719 166.378906 13.761719 149.992188 C 13.761719 133.609375 27.09375 120.277344 43.476562 120.277344 C 59.863281 120.277344 73.195312 133.609375 73.195312 149.992188 C 73.195312 166.378906 59.871094 179.710938 43.476562 179.710938 Z M 43.476562 130.191406 C 32.558594 130.191406 23.675781 139.074219 23.675781 149.992188 C 23.675781 160.914062 32.558594 169.796875 43.476562 169.796875 C 54.398438 169.796875 63.28125 160.914062 63.28125 149.992188 C 63.28125 139.074219 54.402344 130.191406 43.476562 130.191406 Z M 43.476562 130.191406 " fill-opacity="1" fill-rule="nonzero"/></g><g clip-path="url(#dafb124b8e)"><path fill="#00bf63" d="M 331.542969 269.988281 L 122.695312 269.988281 C 106.3125 269.988281 92.980469 256.65625 92.980469 240.269531 C 92.980469 223.882812 106.3125 210.550781 122.695312 210.550781 L 331.542969 210.550781 C 347.929688 210.550781 361.261719 223.882812 361.261719 240.269531 C 361.261719 256.65625 347.929688 269.988281 331.542969 269.988281 Z M 122.695312 220.460938 C 111.777344 220.460938 102.894531 229.34375 102.894531 240.261719 C 102.894531 251.183594 111.777344 260.066406 122.695312 260.066406 L 331.542969 260.066406 C 342.464844 260.066406 351.347656 251.183594 351.347656 240.261719 C 351.347656 229.34375 342.464844 220.460938 331.542969 220.460938 Z M 122.695312 220.460938 " fill-opacity="1" fill-rule="nonzero"/></g><g clip-path="url(#34c024a3ef)"><path fill="#00bf63" d="M 43.476562 269.988281 C 27.09375 269.988281 13.761719 256.65625 13.761719 240.269531 C 13.761719 223.882812 27.09375 210.550781 43.476562 210.550781 C 59.863281 210.550781 73.195312 223.882812 73.195312 240.269531 C 73.195312 256.65625 59.871094 269.988281 43.476562 269.988281 Z M 43.476562 220.460938 C 32.558594 220.460938 23.675781 229.34375 23.675781 240.261719 C 23.675781 251.183594 32.558594 260.066406 43.476562 260.066406 C 54.398438 260.066406 63.28125 251.183594 63.28125 240.261719 C 63.28125 229.34375 54.402344 220.460938 43.476562 220.460938 Z M 43.476562 220.460938 " fill-opacity="1" fill-rule="nonzero"/></g></svg>