<svg xmlns="http://www.w3.org/2000/svg" xmlns:xlink="http://www.w3.org/1999/xlink" width="500" zoomAndPan="magnify" viewBox="0 0 375 374.999991" height="500" preserveAspectRatio="xMidYMid meet" version="1.0"><defs><clipPath id="93247e73cb"><path d="M 187.394531 199.546875 L 194.574219 199.546875 L 194.574219 207.085938 L 187.394531 207.085938 Z M 187.394531 199.546875 " clip-rule="nonzero"/></clipPath><clipPath id="df23271d04"><path d="M 194.550781 202.125 C 194.398438 204.824219 193.351562 206.25 192.523438 206.699219 C 192 207 191.398438 207.148438 190.800781 207 C 189.898438 206.851562 188.324219 206.101562 187.800781 205.199219 C 187.273438 204.300781 187.351562 202.574219 187.574219 201.75 C 187.800781 201.074219 188.25 200.699219 188.699219 200.324219 C 189.148438 199.949219 189.675781 199.648438 190.351562 199.574219 C 191.25 199.5 193.648438 200.625 193.648438 200.625 " clip-rule="nonzero"/></clipPath><clipPath id="fa7e04f5ee"><path d="M 95.078125 301.148438 L 102.316406 301.148438 L 102.316406 308.695312 L 95.078125 308.695312 Z M 95.078125 301.148438 " clip-rule="nonzero"/></clipPath><clipPath id="a5799ee2f3"><path d="M 102.300781 303.820312 C 101.324219 307.792969 100.800781 308.09375 100.273438 308.320312 C 99.75 308.542969 99.148438 308.769531 98.476562 308.617188 C 97.574219 308.46875 96.074219 307.71875 95.476562 306.820312 C 94.949219 305.992188 95.023438 304.269531 95.324219 303.367188 C 95.476562 302.769531 95.925781 302.320312 96.375 301.945312 C 96.824219 301.570312 97.425781 301.269531 98.023438 301.195312 C 98.925781 301.195312 101.398438 302.242188 101.398438 302.242188 " clip-rule="nonzero"/></clipPath><clipPath id="232d9a8434"><path d="M 52 20.558594 L 323 20.558594 L 323 354.308594 L 52 354.308594 Z M 52 20.558594 " clip-rule="nonzero"/></clipPath></defs><g clip-path="url(#93247e73cb)"><g clip-path="url(#df23271d04)"><path fill="#ffffff" d="M 184.574219 196.574219 L 197.699219 196.574219 L 197.699219 210.058594 L 184.574219 210.058594 Z M 184.574219 196.574219 " fill-opacity="1" fill-rule="nonzero"/></g></g><g clip-path="url(#fa7e04f5ee)"><g clip-path="url(#a5799ee2f3)"><path fill="#059e54" d="M 92.324219 298.195312 L 105.375 298.195312 L 105.375 311.703125 L 92.324219 311.703125 Z M 92.324219 298.195312 " fill-opacity="1" fill-rule="nonzero"/></g></g><g clip-path="url(#232d9a8434)"><path fill="#059e54" d="M 76.246094 163.492188 L 76.246094 247.597656 C 76.246094 253.722656 74.792969 259.875 72.054688 265.363281 L 53.25 302.972656 C 52.015625 305.4375 52.148438 308.371094 53.601562 310.707031 C 55.039062 313.042969 57.597656 314.484375 60.347656 314.484375 L 140.535156 314.484375 C 144.335938 336.988281 163.917969 354.207031 187.5 354.207031 C 200.179688 354.207031 212.15625 349.277344 221.277344 340.242188 C 228.339844 333.105469 232.855469 324.152344 234.476562 314.484375 L 314.636719 314.484375 C 317.402344 314.484375 319.957031 313.042969 321.398438 310.707031 C 322.851562 308.371094 322.980469 305.4375 321.75 302.972656 L 302.945312 265.363281 C 300.207031 259.875 298.753906 253.722656 298.753906 247.597656 L 298.753906 163.492188 C 298.753906 133.800781 287.175781 105.875 266.140625 84.851562 C 252.917969 71.613281 236.695312 62.011719 218.789062 56.714844 C 218.996094 55.238281 219.28125 53.769531 219.28125 52.238281 C 219.28125 34.71875 205.03125 20.457031 187.5 20.457031 C 169.96875 20.457031 155.71875 34.71875 155.71875 52.238281 C 155.71875 53.785156 156.003906 55.25 156.210938 56.742188 C 109.414062 70.484375 76.246094 114.074219 76.246094 163.492188 Z M 210.039062 329.019531 C 203.980469 335.015625 195.960938 338.324219 187.5 338.324219 C 172.71875 338.324219 160.261719 328.175781 156.71875 314.484375 L 218.292969 314.484375 C 216.894531 319.921875 214.078125 324.929688 210.039062 329.019531 Z M 187.5 36.355469 C 196.257812 36.355469 203.398438 43.480469 203.398438 52.238281 C 203.398438 52.617188 203.382812 52.992188 203.359375 53.367188 C 202.398438 53.226562 201.4375 53.171875 200.488281 53.058594 C 199.605469 52.953125 198.738281 52.863281 197.867188 52.785156 C 194.402344 52.460938 190.9375 52.238281 187.5 52.238281 C 184.046875 52.238281 180.570312 52.460938 177.105469 52.785156 C 176.261719 52.863281 175.417969 52.953125 174.574219 53.058594 C 173.601562 53.160156 172.613281 53.226562 171.640625 53.367188 C 171.613281 52.992188 171.601562 52.617188 171.601562 52.238281 C 171.601562 43.480469 178.738281 36.355469 187.5 36.355469 Z M 167.566406 70.199219 C 177.492188 68.148438 187.550781 67.644531 197.480469 68.65625 C 200.800781 69.007812 204.109375 69.511719 207.40625 70.1875 C 225.457031 74.09375 241.875 83.046875 254.902344 96.078125 C 272.929688 114.101562 282.855469 138.046875 282.855469 163.492188 L 282.855469 247.597656 C 282.855469 256.191406 284.894531 264.792969 288.722656 272.476562 L 301.789062 298.585938 L 73.207031 298.585938 L 86.277344 272.476562 C 90.105469 264.792969 92.140625 256.191406 92.140625 247.597656 L 92.140625 163.492188 C 92.140625 118.722656 123.886719 79.480469 167.566406 70.199219 " fill-opacity="1" fill-rule="nonzero"/></g></svg>