<svg xmlns="http://www.w3.org/2000/svg" xmlns:xlink="http://www.w3.org/1999/xlink" width="512" zoomAndPan="magnify" viewBox="0 0 384 383.999986" height="512" preserveAspectRatio="xMidYMid meet" version="1.0"><defs><clipPath id="2acae52baa"><path d="M 67.976562 101.855469 L 68.328125 101.855469 L 68.328125 102.132812 L 67.976562 102.132812 Z M 67.976562 101.855469 " clip-rule="nonzero"/></clipPath><clipPath id="0dd75f801f"><path d="M 68.308594 102.023438 C 67.640625 102.320312 68.234375 101.875 68.234375 101.875 " clip-rule="nonzero"/></clipPath><clipPath id="1bf52b489f"><path d="M 38.398438 38.398438 L 345.898438 38.398438 L 345.898438 345.898438 L 38.398438 345.898438 Z M 38.398438 38.398438 " clip-rule="nonzero"/></clipPath></defs><g clip-path="url(#2acae52baa)"><g clip-path="url(#0dd75f801f)"><path fill="#9747ff" d="M 64.664062 98.898438 L 71.363281 98.898438 L 71.363281 105.371094 L 64.664062 105.371094 Z M 64.664062 98.898438 " fill-opacity="1" fill-rule="nonzero"/></g></g><g clip-path="url(#1bf52b489f)"><path fill="#ffffff" d="M 191.996094 345.59375 C 150.957031 345.59375 112.371094 329.621094 83.375 300.621094 C 54.375 271.621094 38.398438 233.039062 38.398438 191.996094 C 38.398438 150.957031 54.375 112.371094 83.375 83.375 C 112.371094 54.375 150.957031 38.398438 191.996094 38.398438 C 233.039062 38.398438 271.621094 54.375 300.621094 83.375 C 329.621094 112.371094 345.59375 150.957031 345.59375 191.996094 C 345.59375 233.039062 329.621094 271.621094 300.621094 300.621094 C 271.621094 329.621094 233.039062 345.59375 191.996094 345.59375 Z M 191.996094 48.230469 C 112.742188 48.230469 48.230469 112.742188 48.230469 191.996094 C 48.230469 271.253906 112.742188 335.765625 191.996094 335.765625 C 271.253906 335.765625 335.765625 271.253906 335.765625 191.996094 C 335.765625 112.742188 271.253906 48.230469 191.996094 48.230469 Z M 191.996094 48.230469 " fill-opacity="1" fill-rule="nonzero"/></g><path fill="#ffffff" d="M 115.445312 235.863281 C 111.265625 235.433594 108.070312 231.871094 108.070312 227.632812 L 108.070312 131.113281 L 99.839844 131.113281 L 99.839844 241.457031 C 113.480469 241.824219 127.117188 243.300781 144.996094 246.863281 C 162.015625 250.242188 179.894531 254.175781 192.183594 258.78125 C 192.183594 258.78125 163.367188 246.25 145.425781 241.457031 C 134.550781 238.507812 124.414062 236.847656 115.445312 235.863281 Z M 115.445312 235.863281 " fill-opacity="1" fill-rule="nonzero"/><path fill="#ffffff" d="M 275.371094 131.113281 L 275.371094 227.878906 C 275.371094 231.996094 272.296875 235.496094 268.242188 236.050781 C 259.703125 237.15625 250.304688 238.875 240.289062 241.515625 C 221.855469 246.308594 204.222656 252.699219 192.242188 258.84375 C 192.242188 258.84375 222.839844 249.6875 241.085938 246.1875 C 257.984375 242.992188 271.253906 241.703125 284.15625 241.457031 L 284.15625 131.113281 Z M 275.371094 131.113281 " fill-opacity="1" fill-rule="nonzero"/><path fill="#ffffff" d="M 189.539062 253.5 C 189.539062 218.046875 189.539062 175.410156 189.601562 139.957031 C 178.789062 136.210938 166.191406 132.648438 151.9375 129.882812 C 138.054688 127.179688 124.90625 125.828125 113.785156 125.152344 C 113.785156 160.601562 113.785156 196.050781 113.785156 231.5625 C 125.703125 232.671875 140.695312 235.128906 156.792969 240.105469 C 169.511719 244.160156 180.445312 248.890625 189.539062 253.5 Z M 189.539062 253.5 " fill-opacity="1" fill-rule="nonzero"/><path fill="#ffffff" d="M 269.78125 231.5625 C 269.78125 196.113281 269.78125 160.664062 269.78125 125.152344 C 258.597656 125.765625 245.449219 127.179688 231.625 129.882812 C 217.371094 132.648438 204.777344 136.210938 193.964844 139.957031 C 193.964844 175.410156 193.964844 218.109375 193.964844 253.5 C 204.652344 248.707031 217.3125 243.789062 231.75 239.613281 C 245.449219 235.742188 258.597656 233.160156 269.78125 231.5625 Z M 269.78125 231.5625 " fill-opacity="1" fill-rule="nonzero"/></svg>