<svg xmlns="http://www.w3.org/2000/svg" xmlns:xlink="http://www.w3.org/1999/xlink" width="500" zoomAndPan="magnify" viewBox="0 0 375 374.999991" height="500" preserveAspectRatio="xMidYMid meet" version="1.0"><defs><clipPath id="432831a5eb"><path d="M 59.890625 23.457031 L 314.890625 23.457031 L 314.890625 351.207031 L 59.890625 351.207031 Z M 59.890625 23.457031 " clip-rule="nonzero"/></clipPath><clipPath id="20d810f579"><path d="M 198.25 298.265625 L 202.511719 298.265625 L 202.511719 301.910156 L 198.25 301.910156 Z M 198.25 298.265625 " clip-rule="nonzero"/></clipPath><clipPath id="ebda1490f8"><path d="M 202.5 299.550781 C 200.625 302.625 198.824219 302.023438 198.449219 301.425781 C 198.074219 300.75 198.375 298.949219 198.976562 298.425781 C 199.574219 297.976562 201.976562 298.648438 201.976562 298.648438 " clip-rule="nonzero"/></clipPath></defs><path fill="#316ff6" d="M 173.933594 130.808594 C 174.445312 131.363281 175.140625 131.644531 175.84375 131.644531 C 176.476562 131.644531 177.109375 131.417969 177.609375 130.953125 C 178.664062 129.976562 178.726562 128.332031 177.753906 127.277344 C 177.535156 127.042969 172.347656 121.558594 162.289062 121.558594 C 152.230469 121.558594 147.042969 127.042969 146.824219 127.277344 C 145.855469 128.324219 145.917969 129.953125 146.960938 130.929688 C 148 131.910156 149.644531 131.859375 150.632812 130.828125 C 150.789062 130.660156 154.613281 126.761719 162.289062 126.761719 C 169.964844 126.761719 173.789062 130.660156 173.933594 130.808594 Z M 173.933594 130.808594 " fill-opacity="1" fill-rule="nonzero"/><path fill="#316ff6" d="M 212.171875 179.734375 C 213.191406 178.722656 213.210938 177.0625 212.199219 176.042969 C 211.1875 175.023438 209.554688 175.003906 208.53125 176.015625 C 208.488281 176.054688 203.992188 180.167969 193.089844 180.167969 C 182.191406 180.167969 177.695312 176.054688 177.675781 176.039062 C 176.652344 175.027344 175.007812 175.03125 173.992188 176.054688 C 172.984375 177.074219 172.988281 178.722656 174.011719 179.734375 C 174.242188 179.964844 179.851562 185.371094 193.089844 185.371094 C 206.332031 185.371094 211.9375 179.964844 212.171875 179.734375 Z M 212.171875 179.734375 " fill-opacity="1" fill-rule="nonzero"/><path fill="#316ff6" d="M 173.378906 144.917969 C 173.378906 145.480469 173.324219 146.035156 173.210938 146.585938 C 173.101562 147.136719 172.9375 147.671875 172.722656 148.1875 C 172.503906 148.707031 172.238281 149.199219 171.925781 149.667969 C 171.609375 150.132812 171.253906 150.566406 170.851562 150.960938 C 170.453125 151.359375 170.015625 151.714844 169.546875 152.023438 C 169.074219 152.335938 168.578125 152.601562 168.054688 152.816406 C 167.53125 153.03125 166.992188 153.191406 166.4375 153.300781 C 165.878906 153.410156 165.320312 153.464844 164.753906 153.464844 C 164.1875 153.464844 163.625 153.410156 163.070312 153.300781 C 162.515625 153.191406 161.976562 153.03125 161.453125 152.816406 C 160.929688 152.601562 160.433594 152.335938 159.960938 152.023438 C 159.492188 151.714844 159.054688 151.359375 158.65625 150.960938 C 158.253906 150.566406 157.898438 150.132812 157.582031 149.667969 C 157.269531 149.199219 157.003906 148.707031 156.785156 148.1875 C 156.570312 147.671875 156.40625 147.136719 156.296875 146.585938 C 156.183594 146.035156 156.128906 145.480469 156.128906 144.917969 C 156.128906 144.355469 156.183594 143.800781 156.296875 143.25 C 156.40625 142.699219 156.570312 142.164062 156.785156 141.648438 C 157.003906 141.128906 157.269531 140.636719 157.582031 140.167969 C 157.898438 139.703125 158.253906 139.269531 158.65625 138.875 C 159.054688 138.476562 159.492188 138.121094 159.960938 137.8125 C 160.433594 137.5 160.929688 137.234375 161.453125 137.019531 C 161.976562 136.804688 162.515625 136.644531 163.070312 136.535156 C 163.625 136.425781 164.1875 136.371094 164.753906 136.371094 C 165.320312 136.371094 165.878906 136.425781 166.4375 136.535156 C 166.992188 136.644531 167.53125 136.804688 168.054688 137.019531 C 168.578125 137.234375 169.074219 137.5 169.546875 137.8125 C 170.015625 138.121094 170.453125 138.476562 170.851562 138.875 C 171.253906 139.269531 171.609375 139.703125 171.925781 140.167969 C 172.238281 140.636719 172.503906 141.128906 172.722656 141.648438 C 172.9375 142.164062 173.101562 142.699219 173.210938 143.25 C 173.324219 143.800781 173.378906 144.355469 173.378906 144.917969 Z M 173.378906 144.917969 " fill-opacity="1" fill-rule="nonzero"/><path fill="#316ff6" d="M 212.234375 130.828125 C 212.394531 130.660156 216.21875 126.761719 223.894531 126.761719 C 231.542969 126.761719 235.367188 130.636719 235.550781 130.824219 C 236.0625 131.371094 236.753906 131.648438 237.445312 131.648438 C 238.078125 131.648438 238.710938 131.417969 239.214844 130.953125 C 240.269531 129.980469 240.332031 128.332031 239.355469 127.277344 C 239.140625 127.042969 233.949219 121.558594 223.894531 121.558594 C 213.835938 121.558594 208.644531 127.042969 208.429688 127.277344 C 207.460938 128.324219 207.523438 129.949219 208.5625 130.929688 C 209.605469 131.910156 211.246094 131.859375 212.234375 130.828125 Z M 212.234375 130.828125 " fill-opacity="1" fill-rule="nonzero"/><path fill="#316ff6" d="M 230.054688 144.917969 C 230.054688 145.480469 230 146.035156 229.886719 146.585938 C 229.777344 147.136719 229.613281 147.671875 229.398438 148.1875 C 229.179688 148.707031 228.914062 149.199219 228.601562 149.667969 C 228.285156 150.132812 227.929688 150.566406 227.527344 150.960938 C 227.125 151.359375 226.691406 151.714844 226.21875 152.023438 C 225.75 152.335938 225.253906 152.601562 224.730469 152.816406 C 224.207031 153.03125 223.667969 153.191406 223.113281 153.300781 C 222.554688 153.410156 221.996094 153.464844 221.429688 153.464844 C 220.863281 153.464844 220.300781 153.410156 219.746094 153.300781 C 219.191406 153.191406 218.652344 153.03125 218.128906 152.816406 C 217.605469 152.601562 217.109375 152.335938 216.636719 152.023438 C 216.167969 151.714844 215.730469 151.359375 215.332031 150.960938 C 214.929688 150.566406 214.574219 150.132812 214.257812 149.667969 C 213.945312 149.199219 213.679688 148.707031 213.460938 148.1875 C 213.246094 147.671875 213.082031 147.136719 212.96875 146.585938 C 212.859375 146.035156 212.804688 145.480469 212.804688 144.917969 C 212.804688 144.355469 212.859375 143.800781 212.96875 143.25 C 213.082031 142.699219 213.246094 142.164062 213.460938 141.648438 C 213.679688 141.128906 213.945312 140.636719 214.257812 140.167969 C 214.574219 139.703125 214.929688 139.269531 215.332031 138.875 C 215.730469 138.476562 216.167969 138.121094 216.636719 137.8125 C 217.109375 137.5 217.605469 137.234375 218.128906 137.019531 C 218.652344 136.804688 219.191406 136.644531 219.746094 136.535156 C 220.300781 136.425781 220.863281 136.371094 221.429688 136.371094 C 221.996094 136.371094 222.554688 136.425781 223.113281 136.535156 C 223.667969 136.644531 224.207031 136.804688 224.730469 137.019531 C 225.253906 137.234375 225.75 137.5 226.21875 137.8125 C 226.691406 138.121094 227.125 138.476562 227.527344 138.875 C 227.929688 139.269531 228.285156 139.703125 228.601562 140.167969 C 228.914062 140.636719 229.179688 141.128906 229.398438 141.648438 C 229.613281 142.164062 229.777344 142.699219 229.886719 143.25 C 230 143.800781 230.054688 144.355469 230.054688 144.917969 Z M 230.054688 144.917969 " fill-opacity="1" fill-rule="nonzero"/><path fill="#316ff6" d="M 292.851562 206.324219 C 288.917969 205.027344 284.652344 207.160156 283.34375 211.066406 C 282.710938 212.960938 282.855469 214.988281 283.75 216.773438 C 284.652344 218.570312 286.207031 219.910156 288.125 220.539062 C 288.90625 220.796875 289.699219 220.917969 290.480469 220.917969 C 293.636719 220.917969 296.585938 218.925781 297.632812 215.792969 C 298.265625 213.902344 298.121094 211.875 297.226562 210.089844 C 296.324219 208.289062 294.769531 206.953125 292.851562 206.324219 Z M 292.851562 206.324219 " fill-opacity="1" fill-rule="nonzero"/><g clip-path="url(#432831a5eb)"><path fill="#316ff6" d="M 314.625 209.140625 C 311.832031 203.582031 309.519531 197.753906 307.753906 191.816406 C 306.441406 187.386719 305.410156 182.828125 304.695312 178.257812 C 304.542969 177.296875 303.867188 176.5 302.945312 176.191406 C 302.023438 175.886719 301.003906 176.117188 300.308594 176.796875 C 296.976562 180.035156 293.398438 183.085938 289.671875 185.859375 C 284.675781 189.578125 279.308594 192.882812 273.714844 195.683594 C 272.832031 196.125 272.273438 197.027344 272.277344 198.011719 L 272.320312 225.304688 L 271.0625 224.890625 C 269.742188 224.453125 268.3125 225.136719 267.816406 226.4375 L 253.695312 263.601562 C 252.464844 263.207031 251.195312 262.808594 249.871094 262.390625 C 236.144531 258.082031 215.40625 251.570312 215.40625 241.378906 L 215.40625 230.367188 C 231.296875 228.128906 242.621094 223.183594 249.730469 215.421875 C 256.335938 208.214844 260.03125 192.496094 262.09375 176.628906 C 263.644531 177.5625 265.300781 178.046875 267.015625 178.046875 C 275.382812 178.046875 281.9375 166.175781 281.9375 151.023438 C 281.9375 135.867188 275.382812 124 267.015625 124 C 266.191406 124 265.363281 124.117188 264.550781 124.339844 C 264.347656 116.804688 263.90625 109.1875 263.265625 102.097656 C 270.863281 98.285156 276.179688 93.375 277.230469 87.089844 C 278.152344 81.542969 275.691406 75.128906 270.105469 68.535156 C 258.929688 55.34375 234.886719 41.457031 208.371094 37.367188 C 207.65625 29.636719 201.078125 23.558594 193.089844 23.558594 C 185.105469 23.558594 178.527344 29.636719 177.8125 37.367188 C 151.296875 41.457031 127.25 55.34375 116.078125 68.535156 C 110.492188 75.128906 108.027344 81.546875 108.953125 87.089844 C 110 93.375 115.320312 98.285156 122.917969 102.101562 C 122.273438 109.1875 121.835938 116.804688 121.628906 124.339844 C 120.816406 124.117188 119.988281 124 119.167969 124 C 110.796875 124 104.242188 135.871094 104.242188 151.023438 C 104.242188 166.175781 110.796875 178.046875 119.167969 178.046875 C 120.878906 178.046875 122.535156 177.5625 124.085938 176.628906 C 126.152344 192.496094 129.847656 208.214844 136.453125 215.421875 C 143.5625 223.183594 154.882812 228.128906 170.777344 230.367188 L 170.777344 241.378906 C 170.777344 251.570312 150.035156 258.082031 136.3125 262.390625 C 129.808594 264.433594 124.183594 266.203125 121.089844 268.082031 L 82.203125 268.082031 C 69.898438 268.082031 59.890625 278.015625 59.890625 290.222656 C 59.890625 298.671875 64.6875 306.03125 71.722656 309.757812 C 64.6875 313.488281 59.890625 320.847656 59.890625 329.296875 C 59.890625 341.503906 69.898438 351.4375 82.203125 351.4375 L 151.199219 351.4375 C 155.351562 351.4375 158.730469 348.078125 158.730469 343.949219 C 158.730469 340.410156 156.246094 337.445312 152.921875 336.667969 C 151.632812 333.792969 151.339844 331.121094 151.339844 329.296875 C 151.339844 326.253906 152.109375 323.742188 152.925781 321.921875 C 156.246094 321.144531 158.730469 318.179688 158.730469 314.644531 C 158.730469 312.777344 158.035156 311.070312 156.894531 309.757812 C 157.347656 309.234375 157.730469 308.648438 158.027344 308.015625 C 167.207031 316.566406 177.601562 323.839844 189.082031 329.710938 L 191.90625 331.15625 C 192.277344 331.347656 192.683594 331.441406 193.089844 331.441406 C 193.496094 331.441406 193.902344 331.347656 194.273438 331.15625 L 197.101562 329.710938 C 214.761719 320.679688 229.824219 308.382812 241.867188 293.160156 C 242.265625 292.660156 242.648438 292.148438 243.039062 291.640625 L 231.304688 322.515625 C 229.226562 327.988281 229.46875 333.910156 231.992188 339.195312 C 234.535156 344.53125 239.042969 348.488281 244.6875 350.34375 C 246.941406 351.085938 249.238281 351.441406 251.507812 351.441406 C 257.488281 351.441406 263.261719 348.957031 267.382812 344.460938 C 268.828125 345.246094 270.355469 345.914062 271.957031 346.441406 C 274.789062 347.371094 277.667969 347.816406 280.503906 347.816406 C 291.925781 347.816406 302.59375 340.628906 306.382812 329.300781 C 308.664062 322.480469 308.144531 315.179688 304.914062 308.746094 C 301.65625 302.253906 296.035156 297.417969 289.09375 295.136719 C 287.519531 294.621094 285.929688 294.261719 284.34375 294.039062 L 300.816406 237.3125 C 301.207031 235.964844 300.460938 234.550781 299.128906 234.113281 L 297.90625 233.710938 L 314.378906 211.875 C 314.976562 211.085938 315.074219 210.023438 314.625 209.140625 Z M 226.082031 259.253906 L 210.25 278.863281 L 196.882812 263.722656 L 213.824219 250.664062 C 216.695312 254.050781 221.046875 256.847656 226.082031 259.253906 Z M 211.105469 246.1875 L 193.089844 260.074219 L 175.078125 246.1875 C 175.660156 244.6875 175.980469 243.089844 175.980469 241.378906 L 175.980469 230.992188 C 181.234375 231.515625 186.933594 231.773438 193.089844 231.773438 C 199.25 231.773438 204.949219 231.511719 210.203125 230.992188 L 210.203125 241.378906 C 210.203125 243.089844 210.519531 244.6875 211.105469 246.1875 Z M 264.691406 133.929688 C 264.691406 132.589844 264.679688 131.242188 264.664062 129.886719 C 265.4375 129.449219 266.253906 129.203125 267.015625 129.203125 C 271.613281 129.203125 276.734375 138.164062 276.734375 151.023438 C 276.734375 163.882812 271.613281 172.84375 267.015625 172.84375 C 265.328125 172.84375 263.875 171.679688 262.820312 170.46875 C 264.523438 154.296875 264.691406 139.105469 264.691406 133.929688 Z M 193.089844 28.761719 C 197.960938 28.761719 202.035156 32.164062 203.011719 36.683594 C 199.722656 36.347656 196.410156 36.164062 193.089844 36.164062 C 189.769531 36.164062 186.457031 36.347656 183.171875 36.683594 C 184.144531 32.164062 188.222656 28.761719 193.089844 28.761719 Z M 119.167969 172.84375 C 114.570312 172.84375 109.449219 163.882812 109.449219 151.023438 C 109.449219 138.164062 114.570312 129.203125 119.167969 129.203125 C 119.925781 129.203125 120.746094 129.449219 121.515625 129.886719 C 121.5 131.242188 121.492188 132.589844 121.492188 133.929688 C 121.492188 139.105469 121.65625 154.296875 123.363281 170.46875 C 122.304688 171.679688 120.855469 172.84375 119.167969 172.84375 Z M 114.085938 86.234375 C 113.839844 84.761719 113.984375 83.128906 114.496094 81.378906 C 128.921875 94.488281 168.3125 99.347656 193.089844 99.347656 C 217.871094 99.347656 257.265625 94.488281 271.6875 81.378906 C 272.199219 83.128906 272.339844 84.761719 272.097656 86.234375 C 269.476562 101.949219 223.402344 109.269531 193.089844 109.269531 C 162.78125 109.269531 116.707031 101.949219 114.085938 86.234375 Z M 140.289062 211.90625 C 130.898438 201.660156 126.695312 165.359375 126.695312 133.929688 C 126.695312 132.808594 126.707031 131.675781 126.71875 130.542969 C 131.902344 129.066406 136.863281 126.933594 141.484375 124.191406 C 147.1875 120.808594 152.261719 116.554688 156.613281 111.558594 C 170.675781 113.742188 184.566406 114.472656 193.089844 114.472656 C 201.617188 114.472656 215.503906 113.742188 229.570312 111.558594 C 233.917969 116.554688 238.996094 120.808594 244.695312 124.191406 C 249.320312 126.933594 254.277344 129.066406 259.464844 130.542969 C 259.476562 131.679688 259.484375 132.808594 259.484375 133.929688 C 259.484375 165.359375 255.28125 201.660156 245.890625 211.90625 C 236.980469 221.636719 219.214844 226.566406 193.089844 226.566406 C 166.964844 226.566406 149.199219 221.636719 140.289062 211.90625 Z M 172.355469 250.664062 L 189.300781 263.722656 L 175.929688 278.863281 L 160.101562 259.253906 C 165.132812 256.847656 169.488281 254.050781 172.355469 250.664062 Z M 137.871094 267.359375 C 139.054688 266.984375 140.261719 266.605469 141.476562 266.21875 C 141.800781 266.84375 142.128906 267.464844 142.464844 268.085938 L 135.566406 268.085938 C 136.324219 267.84375 137.09375 267.601562 137.871094 267.359375 Z M 151.199219 316.925781 L 87.132812 316.925781 C 80.261719 316.925781 74.675781 322.476562 74.675781 329.296875 C 74.675781 336.117188 80.261719 341.667969 87.132812 341.667969 L 151.195312 341.667969 C 151.195312 341.667969 151.199219 341.667969 151.203125 341.667969 C 151.203125 341.667969 151.207031 341.667969 151.207031 341.667969 C 152.484375 341.671875 153.527344 342.695312 153.527344 343.949219 C 153.527344 345.207031 152.484375 346.230469 151.203125 346.230469 L 82.203125 346.230469 C 72.769531 346.230469 65.09375 338.632812 65.09375 329.296875 C 65.09375 319.960938 72.769531 312.363281 82.203125 312.363281 L 151.199219 312.363281 C 152.484375 312.363281 153.527344 313.386719 153.527344 314.644531 C 153.527344 315.902344 152.484375 316.925781 151.199219 316.925781 Z M 147.273438 336.460938 L 87.132812 336.460938 C 83.132812 336.460938 79.878906 333.25 79.878906 329.296875 C 79.878906 325.34375 83.132812 322.128906 87.132812 322.128906 L 147.285156 322.128906 C 146.628906 324.140625 146.132812 326.546875 146.132812 329.296875 C 146.132812 331.144531 146.367188 333.667969 147.273438 336.460938 Z M 151.199219 307.15625 L 82.203125 307.15625 C 72.769531 307.15625 65.09375 299.5625 65.09375 290.222656 C 65.09375 280.882812 72.769531 273.289062 82.203125 273.289062 L 151.199219 273.289062 C 152.484375 273.289062 153.527344 274.3125 153.527344 275.570312 C 153.527344 276.828125 152.484375 277.851562 151.199219 277.851562 L 87.132812 277.851562 C 80.261719 277.851562 74.675781 283.402344 74.675781 290.222656 C 74.675781 297.046875 80.261719 302.59375 87.132812 302.59375 L 151.195312 302.59375 C 151.195312 302.59375 151.199219 302.59375 151.203125 302.59375 C 151.203125 302.59375 151.207031 302.59375 151.207031 302.59375 C 152.484375 302.597656 153.527344 303.621094 153.527344 304.875 C 153.527344 306.132812 152.484375 307.15625 151.199219 307.15625 Z M 147.273438 297.390625 L 87.132812 297.390625 C 83.132812 297.390625 79.878906 294.175781 79.878906 290.222656 C 79.878906 286.269531 83.132812 283.054688 87.132812 283.054688 L 147.285156 283.054688 C 146.628906 285.066406 146.132812 287.472656 146.132812 290.222656 C 146.132812 292.070312 146.367188 294.59375 147.273438 297.390625 Z M 237.789062 289.933594 C 226.210938 304.5625 211.722656 316.386719 194.730469 325.078125 L 193.089844 325.917969 L 191.449219 325.078125 C 176.070312 317.214844 162.71875 306.75 151.738281 293.980469 C 151.433594 292.539062 151.339844 291.246094 151.339844 290.222656 C 151.339844 287.65625 151.890625 285.46875 152.554688 283.75 C 153.035156 284.382812 153.519531 285.011719 154.007812 285.628906 C 164.285156 298.613281 177.015625 309.28125 191.847656 317.34375 C 192.238281 317.554688 192.664062 317.65625 193.089844 317.65625 C 193.519531 317.65625 193.945312 317.550781 194.332031 317.34375 C 209.167969 309.285156 221.898438 298.613281 232.175781 285.628906 C 236.945312 279.601562 241.144531 273.078125 244.695312 266.21875 C 245.917969 266.605469 247.125 266.984375 248.3125 267.359375 C 249.429688 267.710938 250.511719 268.050781 251.558594 268.382812 C 247.691406 276.019531 243.070312 283.257812 237.789062 289.933594 Z M 287.46875 300.082031 C 293.085938 301.929688 297.628906 305.835938 300.261719 311.082031 C 302.867188 316.269531 303.289062 322.152344 301.449219 327.652344 C 297.625 339.078125 285.121094 345.289062 273.582031 341.496094 C 267.964844 339.652344 263.421875 335.746094 260.789062 330.5 C 258.1875 325.3125 257.765625 319.425781 259.605469 313.929688 C 262.667969 304.777344 271.296875 298.96875 280.539062 298.96875 C 282.835938 298.96875 285.171875 299.328125 287.46875 300.082031 Z M 291.796875 249.714844 L 267.566406 241.75 L 271.800781 230.609375 L 295.117188 238.273438 Z M 292.683594 231.996094 L 277.527344 227.015625 L 277.484375 199.601562 C 282.832031 196.828125 287.972656 193.613281 292.78125 190.03125 C 295.402344 188.082031 297.957031 186 300.40625 183.816406 C 301.054688 187.011719 301.84375 190.1875 302.765625 193.296875 C 304.464844 199.015625 306.644531 204.632812 309.257812 210.023438 Z M 292.683594 231.996094 " fill-opacity="1" fill-rule="nonzero"/></g><g clip-path="url(#20d810f579)"><g clip-path="url(#ebda1490f8)"><path fill="#316ff6" d="M 195.449219 295.425781 L 205.582031 295.425781 L 205.582031 305.25 L 195.449219 305.25 Z M 195.449219 295.425781 " fill-opacity="1" fill-rule="nonzero"/></g></g></svg>