<svg xmlns="http://www.w3.org/2000/svg" xmlns:xlink="http://www.w3.org/1999/xlink" width="500" zoomAndPan="magnify" viewBox="0 0 375 374.999991" height="500" preserveAspectRatio="xMidYMid meet" version="1.0"><defs><clipPath id="dbacad8d4c"><path d="M 184.226562 95.015625 L 188.488281 95.015625 L 188.488281 98.621094 L 184.226562 98.621094 Z M 184.226562 95.015625 " clip-rule="nonzero"/></clipPath><clipPath id="6461b2489d"><path d="M 188.476562 96.300781 C 186.601562 99.300781 184.800781 98.773438 184.425781 98.101562 C 184.050781 97.5 184.351562 95.625 184.949219 95.175781 C 185.550781 94.726562 187.949219 95.398438 187.949219 95.398438 " clip-rule="nonzero"/></clipPath><clipPath id="6d3ec3f5df"><path d="M 28.40625 24.355469 L 355.40625 24.355469 L 355.40625 351.355469 L 28.40625 351.355469 Z M 28.40625 24.355469 " clip-rule="nonzero"/></clipPath><clipPath id="7e9c3af81a"><path d="M 130.488281 279.589844 L 134.789062 279.589844 L 134.789062 283.199219 L 130.488281 283.199219 Z M 130.488281 279.589844 " clip-rule="nonzero"/></clipPath><clipPath id="50e1e0c5c3"><path d="M 134.773438 280.875 C 132.824219 283.875 131.023438 283.351562 130.648438 282.675781 C 130.273438 282.074219 130.648438 280.199219 131.175781 279.75 C 131.773438 279.300781 134.175781 279.976562 134.175781 279.976562 " clip-rule="nonzero"/></clipPath></defs><g clip-path="url(#dbacad8d4c)"><g clip-path="url(#6461b2489d)"><path fill="#316ff6" d="M 181.425781 92.175781 L 191.558594 92.175781 L 191.558594 102 L 181.425781 102 Z M 181.425781 92.175781 " fill-opacity="1" fill-rule="nonzero"/></g></g><g clip-path="url(#6d3ec3f5df)"><path fill="#316ff6" d="M 345.382812 107.246094 C 336.804688 75.664062 303.957031 42.8125 272.371094 34.234375 C 253 29.40625 227.058594 24.433594 191.835938 24.355469 C 156.617188 24.441406 130.671875 29.414062 111.304688 34.238281 C 79.722656 42.8125 46.871094 75.664062 38.289062 107.246094 C 33.464844 126.617188 28.492188 152.558594 28.40625 187.785156 C 28.496094 223.007812 33.46875 248.953125 38.296875 268.320312 C 46.875 299.910156 79.726562 332.753906 111.308594 341.335938 C 130.679688 346.160156 156.636719 351.132812 191.84375 351.222656 C 227.058594 351.132812 253.007812 346.160156 272.378906 341.335938 C 303.964844 332.753906 336.8125 299.910156 345.390625 268.320312 C 350.21875 248.953125 355.191406 222.996094 355.273438 187.785156 C 355.183594 152.558594 350.210938 126.617188 345.382812 107.246094 Z M 248.347656 239.636719 C 244.976562 239.628906 241.636719 239.285156 238.332031 238.605469 C 235.03125 237.921875 231.828125 236.917969 228.730469 235.589844 C 225.628906 234.261719 222.691406 232.636719 219.921875 230.714844 C 217.148438 228.792969 214.597656 226.613281 212.265625 224.175781 L 156.429688 165.441406 C 155.050781 164 153.542969 162.707031 151.898438 161.566406 C 150.257812 160.425781 148.519531 159.464844 146.683594 158.675781 C 144.847656 157.890625 142.953125 157.292969 140.996094 156.886719 C 139.039062 156.484375 137.0625 156.28125 135.0625 156.277344 C 134.035156 156.277344 133.003906 156.328125 131.980469 156.429688 C 130.953125 156.53125 129.933594 156.683594 128.921875 156.882812 C 127.914062 157.085938 126.914062 157.335938 125.925781 157.636719 C 124.941406 157.9375 123.972656 158.285156 123.019531 158.679688 C 122.066406 159.074219 121.136719 159.515625 120.226562 160 C 119.320312 160.488281 118.4375 161.015625 117.578125 161.589844 C 116.722656 162.164062 115.894531 162.777344 115.097656 163.433594 C 114.300781 164.085938 113.539062 164.777344 112.808594 165.507812 C 112.082031 166.238281 111.390625 167 110.738281 167.796875 C 110.082031 168.59375 109.46875 169.421875 108.898438 170.277344 C 108.324219 171.136719 107.796875 172.019531 107.308594 172.929688 C 106.824219 173.839844 106.382812 174.769531 105.988281 175.722656 C 105.59375 176.675781 105.246094 177.644531 104.949219 178.628906 C 104.648438 179.617188 104.398438 180.617188 104.199219 181.625 C 103.996094 182.636719 103.847656 183.65625 103.746094 184.683594 C 103.644531 185.707031 103.59375 186.738281 103.59375 187.769531 C 103.59375 188.800781 103.644531 189.828125 103.746094 190.851562 C 103.847656 191.878906 103.996094 192.898438 104.199219 193.910156 C 104.398438 194.921875 104.648438 195.917969 104.949219 196.90625 C 105.246094 197.890625 105.59375 198.863281 105.988281 199.8125 C 106.382812 200.765625 106.824219 201.699219 107.308594 202.605469 C 107.796875 203.515625 108.324219 204.398438 108.898438 205.257812 C 109.46875 206.113281 110.082031 206.941406 110.738281 207.738281 C 111.390625 208.535156 112.082031 209.300781 112.808594 210.027344 C 113.539062 210.757812 114.300781 211.449219 115.097656 212.105469 C 115.894531 212.757812 116.722656 213.371094 117.578125 213.945312 C 118.4375 214.519531 119.320312 215.046875 120.226562 215.535156 C 121.136719 216.019531 122.066406 216.460938 123.019531 216.855469 C 123.972656 217.25 124.941406 217.597656 125.925781 217.898438 C 126.914062 218.199219 127.914062 218.449219 128.921875 218.652344 C 129.933594 218.851562 130.953125 219.003906 131.980469 219.105469 C 133.003906 219.207031 134.035156 219.257812 135.0625 219.261719 L 149.542969 219.261719 L 141.75 211.464844 C 141.285156 210.992188 140.871094 210.476562 140.507812 209.921875 C 140.148438 209.363281 139.839844 208.78125 139.59375 208.164062 C 139.34375 207.550781 139.160156 206.917969 139.035156 206.265625 C 138.910156 205.613281 138.847656 204.957031 138.851562 204.292969 C 138.855469 203.628906 138.925781 202.972656 139.058594 202.324219 C 139.1875 201.671875 139.382812 201.042969 139.640625 200.429688 C 139.894531 199.816406 140.207031 199.234375 140.574219 198.683594 C 140.945312 198.132812 141.363281 197.625 141.832031 197.152344 C 142.300781 196.683594 142.8125 196.265625 143.363281 195.894531 C 143.914062 195.527344 144.496094 195.214844 145.105469 194.957031 C 145.71875 194.703125 146.351562 194.507812 147 194.375 C 147.648438 194.242188 148.308594 194.175781 148.96875 194.171875 C 149.632812 194.167969 150.289062 194.226562 150.941406 194.351562 C 151.59375 194.476562 152.226562 194.660156 152.84375 194.910156 C 153.457031 195.15625 154.042969 195.460938 154.597656 195.824219 C 155.152344 196.1875 155.667969 196.601562 156.144531 197.0625 L 180.015625 220.984375 C 180.484375 221.457031 180.90625 221.972656 181.273438 222.527344 C 181.644531 223.085938 181.957031 223.671875 182.210938 224.289062 C 182.46875 224.90625 182.660156 225.542969 182.789062 226.199219 C 182.917969 226.855469 182.984375 227.515625 182.984375 228.183594 C 182.984375 228.851562 182.917969 229.515625 182.789062 230.171875 C 182.660156 230.824219 182.46875 231.460938 182.210938 232.078125 C 181.957031 232.699219 181.644531 233.285156 181.273438 233.839844 C 180.90625 234.398438 180.484375 234.910156 180.015625 235.386719 L 156.144531 259.25 C 155.675781 259.742188 155.164062 260.179688 154.605469 260.570312 C 154.050781 260.960938 153.460938 261.289062 152.839844 261.5625 C 152.214844 261.832031 151.574219 262.039062 150.910156 262.183594 C 150.246094 262.324219 149.574219 262.398438 148.894531 262.410156 C 148.214844 262.417969 147.542969 262.359375 146.875 262.230469 C 146.207031 262.105469 145.558594 261.914062 144.929688 261.65625 C 144.300781 261.402344 143.707031 261.085938 143.140625 260.710938 C 142.574219 260.335938 142.050781 259.90625 141.570312 259.425781 C 141.089844 258.945312 140.664062 258.421875 140.289062 257.859375 C 139.910156 257.292969 139.597656 256.695312 139.339844 256.066406 C 139.082031 255.4375 138.894531 254.789062 138.765625 254.121094 C 138.640625 253.453125 138.582031 252.78125 138.589844 252.101562 C 138.597656 251.421875 138.671875 250.753906 138.816406 250.089844 C 138.957031 249.425781 139.164062 248.78125 139.4375 248.160156 C 139.707031 247.535156 140.039062 246.945312 140.425781 246.390625 C 140.816406 245.835938 141.257812 245.320312 141.75 244.851562 L 146.933594 239.667969 L 135.0625 239.667969 C 133.367188 239.667969 131.671875 239.585938 129.980469 239.417969 C 128.292969 239.253906 126.613281 239.003906 124.949219 238.671875 C 123.285156 238.34375 121.636719 237.929688 120.011719 237.4375 C 118.386719 236.945312 116.789062 236.371094 115.222656 235.722656 C 113.652344 235.074219 112.121094 234.347656 110.621094 233.546875 C 109.125 232.746094 107.667969 231.875 106.257812 230.929688 C 104.847656 229.988281 103.484375 228.976562 102.171875 227.898438 C 100.859375 226.824219 99.601562 225.683594 98.402344 224.484375 C 97.199219 223.28125 96.0625 222.023438 94.984375 220.710938 C 93.90625 219.398438 92.894531 218.039062 91.953125 216.625 C 91.007812 215.214844 90.136719 213.757812 89.335938 212.261719 C 88.535156 210.761719 87.808594 209.230469 87.160156 207.660156 C 86.511719 206.09375 85.9375 204.496094 85.445312 202.871094 C 84.953125 201.246094 84.542969 199.601562 84.210938 197.933594 C 83.878906 196.269531 83.628906 194.589844 83.464844 192.902344 C 83.296875 191.210938 83.214844 189.515625 83.214844 187.820312 C 83.214844 186.121094 83.296875 184.425781 83.464844 182.738281 C 83.628906 181.046875 83.878906 179.367188 84.210938 177.703125 C 84.542969 176.039062 84.953125 174.390625 85.445312 172.765625 C 85.9375 171.140625 86.511719 169.546875 87.160156 167.976562 C 87.808594 166.40625 88.535156 164.875 89.335938 163.375 C 90.136719 161.878906 91.007812 160.425781 91.953125 159.011719 C 92.894531 157.601562 93.90625 156.238281 94.984375 154.925781 C 96.0625 153.613281 97.199219 152.355469 98.402344 151.15625 C 99.601562 149.953125 100.859375 148.816406 102.171875 147.738281 C 103.484375 146.660156 104.847656 145.648438 106.257812 144.707031 C 107.667969 143.761719 109.125 142.890625 110.621094 142.089844 C 112.121094 141.289062 113.652344 140.566406 115.222656 139.914062 C 116.789062 139.265625 118.386719 138.695312 120.011719 138.199219 C 121.636719 137.707031 123.285156 137.296875 124.949219 136.964844 C 126.613281 136.632812 128.292969 136.382812 129.980469 136.21875 C 131.671875 136.050781 133.367188 135.96875 135.0625 135.96875 C 138.441406 135.976562 141.785156 136.320312 145.089844 137.003906 C 148.398438 137.683594 151.605469 138.691406 154.707031 140.023438 C 157.8125 141.355469 160.75 142.984375 163.523438 144.910156 C 166.300781 146.835938 168.851562 149.019531 171.183594 151.460938 L 227.007812 210.132812 C 228.386719 211.574219 229.898438 212.867188 231.539062 214.007812 C 233.179688 215.144531 234.917969 216.109375 236.753906 216.898438 C 238.589844 217.683594 240.484375 218.28125 242.441406 218.683594 C 244.398438 219.089844 246.375 219.292969 248.375 219.296875 C 249.40625 219.296875 250.433594 219.246094 251.460938 219.148438 C 252.488281 219.046875 253.503906 218.894531 254.515625 218.691406 C 255.527344 218.492188 256.527344 218.242188 257.515625 217.941406 C 258.503906 217.644531 259.472656 217.296875 260.425781 216.902344 C 261.378906 216.507812 262.308594 216.066406 263.21875 215.578125 C 264.128906 215.09375 265.011719 214.5625 265.871094 213.992188 C 266.726562 213.417969 267.554688 212.804688 268.351562 212.148438 C 269.148438 211.496094 269.914062 210.804688 270.640625 210.074219 C 271.371094 209.34375 272.0625 208.582031 272.71875 207.785156 C 273.371094 206.988281 273.984375 206.160156 274.558594 205.300781 C 275.132812 204.445312 275.660156 203.5625 276.148438 202.652344 C 276.632812 201.742188 277.074219 200.8125 277.46875 199.859375 C 277.863281 198.90625 278.210938 197.933594 278.507812 196.949219 C 278.808594 195.960938 279.058594 194.960938 279.261719 193.949219 C 279.460938 192.9375 279.613281 191.917969 279.714844 190.894531 C 279.816406 189.867188 279.867188 188.835938 279.867188 187.804688 C 279.867188 186.773438 279.816406 185.746094 279.714844 184.71875 C 279.613281 183.691406 279.460938 182.675781 279.261719 181.664062 C 279.058594 180.652344 278.808594 179.652344 278.507812 178.664062 C 278.210938 177.675781 277.863281 176.707031 277.46875 175.753906 C 277.074219 174.800781 276.632812 173.871094 276.148438 172.960938 C 275.660156 172.050781 275.132812 171.167969 274.558594 170.308594 C 273.984375 169.453125 273.371094 168.625 272.71875 167.828125 C 272.0625 167.03125 271.371094 166.265625 270.640625 165.539062 C 269.914062 164.808594 269.148438 164.117188 268.351562 163.460938 C 267.554688 162.808594 266.726562 162.195312 265.871094 161.621094 C 265.011719 161.046875 264.128906 160.519531 263.21875 160.03125 C 262.308594 159.546875 261.378906 159.105469 260.425781 158.710938 C 259.472656 158.316406 258.503906 157.96875 257.515625 157.671875 C 256.527344 157.371094 255.527344 157.121094 254.515625 156.917969 C 253.503906 156.71875 252.488281 156.566406 251.460938 156.464844 C 250.433594 156.363281 249.40625 156.3125 248.375 156.3125 L 233.894531 156.3125 L 241.695312 164.117188 C 242.160156 164.589844 242.570312 165.105469 242.933594 165.660156 C 243.296875 166.214844 243.601562 166.800781 243.851562 167.417969 C 244.097656 168.03125 244.285156 168.664062 244.410156 169.316406 C 244.53125 169.96875 244.59375 170.625 244.589844 171.289062 C 244.585938 171.953125 244.515625 172.609375 244.382812 173.257812 C 244.25 173.910156 244.058594 174.539062 243.800781 175.152344 C 243.546875 175.765625 243.234375 176.347656 242.863281 176.898438 C 242.492188 177.449219 242.074219 177.957031 241.605469 178.425781 C 241.136719 178.894531 240.625 179.316406 240.074219 179.683594 C 239.523438 180.054688 238.941406 180.367188 238.328125 180.621094 C 237.71875 180.875 237.085938 181.070312 236.4375 181.203125 C 235.785156 181.335938 235.128906 181.402344 234.464844 181.40625 C 233.804688 181.410156 233.144531 181.351562 232.496094 181.226562 C 231.84375 181.101562 231.210938 180.914062 230.59375 180.667969 C 229.980469 180.417969 229.394531 180.113281 228.839844 179.75 C 228.285156 179.386719 227.769531 178.972656 227.292969 178.511719 L 203.425781 154.640625 C 202.953125 154.167969 202.535156 153.652344 202.164062 153.097656 C 201.792969 152.539062 201.480469 151.953125 201.226562 151.335938 C 200.972656 150.71875 200.78125 150.082031 200.652344 149.425781 C 200.523438 148.773438 200.457031 148.109375 200.457031 147.445312 C 200.457031 146.777344 200.523438 146.113281 200.652344 145.460938 C 200.78125 144.804688 200.972656 144.167969 201.226562 143.550781 C 201.480469 142.933594 201.792969 142.347656 202.164062 141.789062 C 202.535156 141.234375 202.953125 140.71875 203.425781 140.246094 L 227.292969 116.375 C 227.765625 115.894531 228.277344 115.460938 228.832031 115.082031 C 229.390625 114.699219 229.976562 114.378906 230.597656 114.117188 C 231.21875 113.851562 231.859375 113.652344 232.519531 113.515625 C 233.175781 113.378906 233.84375 113.308594 234.519531 113.304688 C 235.191406 113.300781 235.859375 113.359375 236.519531 113.488281 C 237.183594 113.617188 237.824219 113.808594 238.449219 114.066406 C 239.070312 114.320312 239.664062 114.636719 240.226562 115.007812 C 240.785156 115.382812 241.304688 115.808594 241.78125 116.285156 C 242.257812 116.761719 242.683594 117.277344 243.058594 117.839844 C 243.429688 118.402344 243.746094 118.992188 244 119.617188 C 244.257812 120.238281 244.449219 120.882812 244.578125 121.542969 C 244.707031 122.203125 244.769531 122.871094 244.765625 123.546875 C 244.761719 124.21875 244.691406 124.886719 244.554688 125.546875 C 244.417969 126.207031 244.21875 126.847656 243.953125 127.464844 C 243.691406 128.085938 243.371094 128.675781 242.988281 129.230469 C 242.609375 129.789062 242.179688 130.300781 241.695312 130.773438 L 236.523438 135.9375 L 248.394531 135.9375 C 250.089844 135.9375 251.785156 136.019531 253.472656 136.1875 C 255.164062 136.355469 256.839844 136.605469 258.503906 136.9375 C 260.167969 137.269531 261.8125 137.679688 263.4375 138.175781 C 265.0625 138.667969 266.660156 139.242188 268.226562 139.890625 C 269.796875 140.539062 271.328125 141.265625 272.824219 142.066406 C 274.320312 142.867188 275.777344 143.738281 277.1875 144.683594 C 278.597656 145.628906 279.960938 146.636719 281.273438 147.714844 C 282.582031 148.792969 283.839844 149.929688 285.039062 151.132812 C 286.242188 152.332031 287.378906 153.589844 288.457031 154.902344 C 289.53125 156.214844 290.542969 157.578125 291.484375 158.988281 C 292.425781 160.398438 293.300781 161.855469 294.097656 163.351562 C 294.898438 164.847656 295.625 166.382812 296.273438 167.949219 C 296.921875 169.519531 297.492188 171.117188 297.988281 172.738281 C 298.480469 174.363281 298.890625 176.007812 299.222656 177.675781 C 299.554688 179.339844 299.800781 181.015625 299.96875 182.707031 C 300.136719 184.394531 300.21875 186.089844 300.21875 187.785156 C 300.21875 189.484375 300.136719 191.179688 299.96875 192.867188 C 299.800781 194.558594 299.554688 196.234375 299.222656 197.898438 C 298.890625 199.566406 298.480469 201.210938 297.988281 202.832031 C 297.492188 204.457031 296.921875 206.054688 296.273438 207.625 C 295.625 209.191406 294.898438 210.726562 294.097656 212.222656 C 293.300781 213.71875 292.425781 215.175781 291.484375 216.585938 C 290.542969 217.996094 289.53125 219.359375 288.457031 220.671875 C 287.378906 221.984375 286.242188 223.242188 285.039062 224.441406 C 283.839844 225.644531 282.582031 226.78125 281.273438 227.859375 C 279.960938 228.9375 278.597656 229.945312 277.1875 230.890625 C 275.777344 231.835938 274.320312 232.707031 272.824219 233.507812 C 271.328125 234.308594 269.796875 235.035156 268.226562 235.683594 C 266.660156 236.332031 265.0625 236.90625 263.4375 237.398438 C 261.8125 237.890625 260.167969 238.304688 258.503906 238.636719 C 256.839844 238.96875 255.164062 239.21875 253.472656 239.386719 C 251.785156 239.554688 250.089844 239.636719 248.394531 239.636719 Z M 248.347656 239.636719 " fill-opacity="1" fill-rule="nonzero"/></g><g clip-path="url(#7e9c3af81a)"><g clip-path="url(#50e1e0c5c3)"><path fill="#316ff6" d="M 127.648438 276.75 L 137.78125 276.75 L 137.78125 286.574219 L 127.648438 286.574219 Z M 127.648438 276.75 " fill-opacity="1" fill-rule="nonzero"/></g></g></svg>