<svg xmlns="http://www.w3.org/2000/svg" xmlns:xlink="http://www.w3.org/1999/xlink" width="500" zoomAndPan="magnify" viewBox="0 0 375 374.999991" height="500" preserveAspectRatio="xMidYMid meet" version="1.0"><defs><clipPath id="4a8e1e7fab"><path d="M 10.886719 50.089844 L 362 50.089844 L 362 323.839844 L 10.886719 323.839844 Z M 10.886719 50.089844 " clip-rule="nonzero"/></clipPath><clipPath id="420b69c2a4"><path d="M 184.226562 95.015625 L 188.488281 95.015625 L 188.488281 98.621094 L 184.226562 98.621094 Z M 184.226562 95.015625 " clip-rule="nonzero"/></clipPath><clipPath id="8bed1d5d19"><path d="M 188.476562 96.300781 C 186.601562 99.300781 184.800781 98.773438 184.425781 98.101562 C 184.050781 97.5 184.351562 95.625 184.949219 95.175781 C 185.550781 94.726562 187.949219 95.398438 187.949219 95.398438 " clip-rule="nonzero"/></clipPath></defs><g clip-path="url(#4a8e1e7fab)"><path fill="#316ff6" d="M 336.570312 132.792969 C 335.136719 122.140625 334.945312 103.765625 344.851562 97.609375 C 345.015625 97.5 345.152344 97.332031 345.320312 97.195312 C 353.40625 94.601562 359.007812 90.960938 354.621094 86.074219 L 235.183594 50.089844 L 41.820312 76.96875 C 41.820312 76.96875 19.6875 80.140625 21.648438 114.554688 C 22.722656 133.261719 28.601562 142.453125 33.734375 146.980469 L 17.867188 151.78125 C 13.480469 156.664062 19.082031 160.28125 27.167969 162.875 C 27.332031 163.011719 27.445312 163.175781 27.636719 163.289062 C 37.515625 169.46875 37.324219 187.820312 35.914062 198.5 C 0.371094 208.574219 13.121094 211.882812 13.121094 211.882812 L 20.929688 213.761719 C 15.4375 218.726562 9.976562 228.109375 11.023438 245.9375 C 12.984375 280.347656 31.167969 282.722656 31.167969 282.722656 L 157.722656 323.839844 L 348.714844 277.589844 C 348.714844 277.589844 361.464844 274.277344 325.917969 264.179688 C 324.484375 253.554688 324.292969 235.175781 334.199219 228.992188 C 334.390625 228.882812 334.503906 228.71875 334.667969 228.578125 C 342.753906 225.984375 348.355469 222.371094 343.96875 217.484375 L 335.660156 214.976562 C 341.207031 211.636719 349.515625 202.914062 350.8125 180.230469 C 351.722656 164.667969 347.636719 155.535156 342.945312 150.152344 L 359.339844 146.179688 C 359.339844 146.179688 372.117188 142.894531 336.570312 132.792969 Z M 176.820312 132.351562 L 208.914062 125.757812 L 317.476562 103.433594 L 333.648438 100.121094 C 328.457031 109.585938 328.679688 122.527344 329.535156 130.835938 C 329.726562 132.710938 329.949219 134.421875 330.140625 135.746094 L 312.453125 140.136719 L 175.46875 174.214844 Z M 38.839844 165.828125 L 55.011719 169.136719 L 159.242188 190.582031 L 168.347656 192.457031 L 195.667969 198.058594 L 196.992188 239.921875 L 56.199219 204.902344 L 42.316406 201.453125 C 42.539062 200.128906 42.730469 198.417969 42.953125 196.539062 C 43.78125 188.234375 44 175.292969 38.839844 165.828125 Z M 32.546875 112.898438 C 32.355469 103.734375 33.984375 97.113281 37.296875 93.746094 C 39.390625 91.59375 41.875 91.152344 43.558594 91.152344 C 44.46875 91.152344 45.105469 91.289062 45.160156 91.289062 L 128.472656 118.445312 L 170.03125 131.996094 L 168.679688 174.160156 L 52.058594 141.460938 L 45.90625 139.75 C 45.683594 139.695312 45.351562 139.636719 45.132812 139.636719 C 44.636719 139.582031 33.128906 138.535156 32.546875 112.898438 Z M 158.027344 305.570312 L 35.253906 271.160156 C 35.03125 271.078125 34.730469 271.050781 34.480469 271.023438 C 33.984375 270.996094 22.449219 269.945312 21.898438 244.308594 C 21.703125 235.148438 23.332031 228.523438 26.644531 225.15625 C 28.742188 223.003906 31.195312 222.5625 32.90625 222.5625 C 33.789062 222.5625 34.453125 222.703125 34.480469 222.703125 C 34.480469 222.703125 34.507812 222.703125 34.480469 222.703125 L 159.378906 263.40625 Z M 318.882812 262.246094 C 319.074219 264.121094 319.296875 265.832031 319.488281 267.160156 L 164.816406 305.628906 L 166.140625 263.765625 L 199.226562 256.949219 L 204.113281 258.132812 L 222.40625 252.203125 L 306.796875 234.84375 L 322.96875 231.53125 C 317.808594 240.96875 318.027344 253.914062 318.882812 262.246094 Z M 327.410156 205.316406 C 327.132812 205.34375 326.832031 205.371094 326.582031 205.453125 L 314.910156 208.738281 L 203.808594 239.867188 L 202.457031 197.699219 L 238.910156 185.804688 L 327.160156 157.023438 C 327.160156 157.023438 331.796875 156.003906 335.191406 159.453125 C 338.476562 162.820312 340.132812 169.441406 339.9375 178.605469 C 339.359375 204.238281 327.824219 205.289062 327.410156 205.316406 Z M 327.410156 205.316406 " fill-opacity="1" fill-rule="nonzero"/></g><g clip-path="url(#420b69c2a4)"><g clip-path="url(#8bed1d5d19)"><path fill="#316ff6" d="M 181.425781 92.175781 L 191.558594 92.175781 L 191.558594 102 L 181.425781 102 Z M 181.425781 92.175781 " fill-opacity="1" fill-rule="nonzero"/></g></g></svg>