<svg xmlns="http://www.w3.org/2000/svg" xmlns:xlink="http://www.w3.org/1999/xlink" width="512" zoomAndPan="magnify" viewBox="0 0 384 383.999986" height="512" preserveAspectRatio="xMidYMid meet" version="1.0"><defs><clipPath id="b642668856"><path d="M 67.976562 101.855469 L 68.328125 101.855469 L 68.328125 102.132812 L 67.976562 102.132812 Z M 67.976562 101.855469 " clip-rule="nonzero"/></clipPath><clipPath id="18dac47e8d"><path d="M 68.308594 102.023438 C 67.640625 102.320312 68.234375 101.875 68.234375 101.875 " clip-rule="nonzero"/></clipPath><clipPath id="ecf7cfaa97"><path d="M 28 59.984375 L 356.980469 59.984375 L 356.980469 323.984375 L 28 323.984375 Z M 28 59.984375 " clip-rule="nonzero"/></clipPath></defs><g clip-path="url(#b642668856)"><g clip-path="url(#18dac47e8d)"><path fill="#9747ff" d="M 64.664062 98.898438 L 71.363281 98.898438 L 71.363281 105.371094 L 64.664062 105.371094 Z M 64.664062 98.898438 " fill-opacity="1" fill-rule="nonzero"/></g></g><g clip-path="url(#ecf7cfaa97)"><path fill="#ffffff" d="M 355.777344 69.722656 C 355.996094 68.894531 356.070312 68.058594 356.003906 67.203125 C 355.960938 66.859375 356.175781 66.550781 356.089844 66.203125 C 355.792969 65.136719 355.285156 64.175781 354.578125 63.320312 C 354.496094 63.214844 354.53125 63.070312 354.445312 62.964844 C 354.316406 62.800781 354.078125 62.808594 353.933594 62.660156 C 352.816406 61.445312 351.457031 60.632812 349.855469 60.222656 C 349.765625 60.203125 349.6875 60.203125 349.59375 60.191406 C 349.101562 60.054688 348.597656 59.988281 348.085938 59.996094 L 36.683594 61.894531 C 35.875 61.898438 35.089844 62.019531 34.320312 62.253906 C 33.550781 62.492188 32.832031 62.832031 32.164062 63.28125 C 31.496094 63.730469 30.90625 64.265625 30.394531 64.886719 C 29.882812 65.511719 29.472656 66.191406 29.164062 66.9375 C 28.855469 67.679688 28.660156 68.453125 28.578125 69.253906 C 28.496094 70.054688 28.53125 70.847656 28.6875 71.640625 C 28.839844 72.429688 29.105469 73.179688 29.480469 73.894531 C 29.855469 74.605469 30.324219 75.25 30.886719 75.820312 L 133.238281 180.039062 L 144.398438 315.710938 C 144.464844 316.53125 144.652344 317.320312 144.957031 318.082031 C 145.265625 318.847656 145.675781 319.546875 146.191406 320.183594 C 146.707031 320.824219 147.308594 321.371094 147.988281 321.832031 C 148.671875 322.289062 149.40625 322.636719 150.191406 322.875 C 150.976562 323.113281 151.78125 323.230469 152.601562 323.226562 C 153.425781 323.222656 154.226562 323.097656 155.011719 322.851562 C 155.796875 322.605469 156.527344 322.25 157.203125 321.785156 C 157.878906 321.320312 158.472656 320.765625 158.984375 320.121094 L 354.554688 73.277344 C 354.78125 72.996094 354.703125 72.621094 354.882812 72.324219 C 355.34375 71.511719 355.640625 70.644531 355.777344 69.722656 Z M 314.390625 76.585938 L 163.992188 155.242188 L 142.75 166.351562 L 56.148438 78.164062 Z M 149.773438 181.175781 L 234.261719 136.988281 L 317.769531 93.316406 L 159.027344 293.675781 Z M 149.773438 181.175781 " fill-opacity="1" fill-rule="nonzero"/></g></svg>