<svg xmlns="http://www.w3.org/2000/svg" xmlns:xlink="http://www.w3.org/1999/xlink" width="500" zoomAndPan="magnify" viewBox="0 0 375 374.999991" height="500" preserveAspectRatio="xMidYMid meet" version="1.0"><defs><clipPath id="4cce857ab7"><path d="M 62.515625 96.65625 L 62.871094 96.65625 L 62.871094 96.9375 L 62.515625 96.9375 Z M 62.515625 96.65625 " clip-rule="nonzero"/></clipPath><clipPath id="26635ae056"><path d="M 62.851562 96.824219 C 62.175781 97.125 62.773438 96.675781 62.773438 96.675781 " clip-rule="nonzero"/></clipPath><clipPath id="883b574d4e"><path d="M 14.953125 14.953125 L 359.953125 14.953125 L 359.953125 359.953125 L 14.953125 359.953125 Z M 14.953125 14.953125 " clip-rule="nonzero"/></clipPath></defs><g clip-path="url(#4cce857ab7)"><g clip-path="url(#26635ae056)"><path fill="#9747ff" d="M 59.175781 93.675781 L 65.929688 93.675781 L 65.929688 100.199219 L 59.175781 100.199219 Z M 59.175781 93.675781 " fill-opacity="1" fill-rule="nonzero"/></g></g><g clip-path="url(#883b574d4e)"><path fill="#545454" d="M 187.496094 14.953125 C 92.203125 14.953125 14.953125 92.203125 14.953125 187.496094 C 14.953125 282.785156 92.203125 360.035156 187.496094 360.035156 C 282.785156 360.035156 360.035156 282.785156 360.035156 187.496094 C 360.035156 92.203125 282.785156 14.953125 187.496094 14.953125 Z M 292.636719 197.507812 C 292.636719 201.277344 290.070312 204.5625 286.414062 205.476562 L 266.367188 210.488281 C 264.683594 216.28125 262.375 221.8125 259.523438 227 L 270.15625 244.722656 C 272.097656 247.957031 271.585938 252.09375 268.921875 254.757812 L 254.757812 268.921875 C 252.09375 271.585938 247.957031 272.097656 244.726562 270.15625 L 227.003906 259.523438 C 221.8125 262.375 216.285156 264.683594 210.488281 266.367188 L 205.476562 286.414062 C 204.5625 290.070312 201.277344 292.636719 197.507812 292.636719 L 177.480469 292.636719 C 173.710938 292.636719 170.425781 290.070312 169.507812 286.414062 L 164.5 266.367188 C 158.703125 264.683594 153.175781 262.375 147.984375 259.523438 L 130.261719 270.15625 C 127.03125 272.097656 122.894531 271.585938 120.230469 268.921875 L 106.066406 254.757812 C 103.402344 252.09375 102.890625 247.957031 104.832031 244.722656 L 115.464844 227 C 112.613281 221.8125 110.304688 216.28125 108.617188 210.488281 L 88.574219 205.476562 C 84.917969 204.5625 82.351562 201.277344 82.351562 197.507812 L 82.351562 177.480469 C 82.351562 173.710938 84.917969 170.425781 88.574219 169.511719 L 108.617188 164.5 C 110.304688 158.703125 112.613281 153.175781 115.464844 147.988281 L 104.832031 130.265625 C 102.890625 127.03125 103.398438 122.894531 106.066406 120.230469 L 120.230469 106.066406 C 122.894531 103.402344 127.03125 102.890625 130.261719 104.832031 L 147.984375 115.464844 C 153.175781 112.613281 158.703125 110.304688 164.5 108.621094 L 169.507812 88.574219 C 170.421875 84.917969 173.710938 82.351562 177.480469 82.351562 L 197.507812 82.351562 C 201.277344 82.351562 204.5625 84.917969 205.476562 88.574219 L 210.488281 108.621094 C 216.285156 110.304688 221.8125 112.613281 227.003906 115.464844 L 244.726562 104.832031 C 247.957031 102.890625 252.09375 103.402344 254.757812 106.066406 L 268.921875 120.230469 C 271.585938 122.894531 272.097656 127.03125 270.15625 130.265625 L 259.523438 147.988281 C 262.375 153.175781 264.683594 158.703125 266.367188 164.5 L 286.414062 169.511719 C 290.070312 170.425781 292.636719 173.710938 292.636719 177.480469 Z M 292.636719 197.507812 " fill-opacity="1" fill-rule="nonzero"/></g><path fill="#545454" d="M 220.351562 187.496094 C 220.351562 188.570312 220.296875 189.644531 220.191406 190.714844 C 220.085938 191.785156 219.929688 192.847656 219.71875 193.90625 C 219.511719 194.960938 219.25 196.003906 218.9375 197.03125 C 218.625 198.0625 218.261719 199.074219 217.851562 200.066406 C 217.4375 201.0625 216.980469 202.035156 216.472656 202.984375 C 215.964844 203.933594 215.410156 204.855469 214.8125 205.75 C 214.214844 206.644531 213.574219 207.507812 212.894531 208.339844 C 212.210938 209.171875 211.488281 209.964844 210.726562 210.726562 C 209.964844 211.488281 209.171875 212.210938 208.339844 212.894531 C 207.507812 213.574219 206.644531 214.214844 205.75 214.8125 C 204.855469 215.410156 203.933594 215.964844 202.984375 216.472656 C 202.035156 216.980469 201.0625 217.4375 200.066406 217.851562 C 199.074219 218.261719 198.0625 218.625 197.03125 218.9375 C 196.003906 219.25 194.960938 219.511719 193.90625 219.71875 C 192.847656 219.929688 191.785156 220.085938 190.714844 220.191406 C 189.644531 220.296875 188.570312 220.351562 187.496094 220.351562 C 186.417969 220.351562 185.34375 220.296875 184.273438 220.191406 C 183.203125 220.085938 182.140625 219.929688 181.085938 219.71875 C 180.027344 219.511719 178.984375 219.25 177.957031 218.9375 C 176.925781 218.625 175.914062 218.261719 174.921875 217.851562 C 173.925781 217.4375 172.953125 216.980469 172.003906 216.472656 C 171.054688 215.964844 170.132812 215.410156 169.238281 214.8125 C 168.34375 214.214844 167.480469 213.574219 166.648438 212.894531 C 165.816406 212.210938 165.023438 211.488281 164.261719 210.726562 C 163.5 209.964844 162.777344 209.171875 162.09375 208.339844 C 161.414062 207.507812 160.773438 206.644531 160.175781 205.75 C 159.578125 204.855469 159.023438 203.933594 158.515625 202.984375 C 158.011719 202.035156 157.550781 201.0625 157.136719 200.066406 C 156.726562 199.074219 156.363281 198.0625 156.050781 197.03125 C 155.738281 196.003906 155.480469 194.960938 155.269531 193.90625 C 155.058594 192.847656 154.902344 191.785156 154.796875 190.714844 C 154.691406 189.644531 154.636719 188.570312 154.636719 187.496094 C 154.636719 186.417969 154.691406 185.34375 154.796875 184.273438 C 154.902344 183.203125 155.058594 182.140625 155.269531 181.085938 C 155.480469 180.027344 155.738281 178.984375 156.050781 177.957031 C 156.363281 176.925781 156.726562 175.914062 157.136719 174.921875 C 157.550781 173.925781 158.011719 172.953125 158.515625 172.003906 C 159.023438 171.054688 159.578125 170.132812 160.175781 169.238281 C 160.773438 168.34375 161.414062 167.480469 162.09375 166.648438 C 162.777344 165.816406 163.5 165.023438 164.261719 164.261719 C 165.023438 163.5 165.816406 162.777344 166.648438 162.09375 C 167.480469 161.414062 168.34375 160.773438 169.238281 160.175781 C 170.132812 159.578125 171.054688 159.023438 172.003906 158.515625 C 172.953125 158.011719 173.925781 157.550781 174.921875 157.136719 C 175.914062 156.726562 176.925781 156.363281 177.957031 156.050781 C 178.984375 155.738281 180.027344 155.480469 181.085938 155.269531 C 182.140625 155.058594 183.203125 154.902344 184.273438 154.796875 C 185.34375 154.691406 186.417969 154.636719 187.496094 154.636719 C 188.570312 154.636719 189.644531 154.691406 190.714844 154.796875 C 191.785156 154.902344 192.847656 155.058594 193.90625 155.269531 C 194.960938 155.480469 196.003906 155.738281 197.03125 156.050781 C 198.0625 156.363281 199.074219 156.726562 200.066406 157.136719 C 201.0625 157.550781 202.035156 158.011719 202.984375 158.515625 C 203.933594 159.023438 204.855469 159.578125 205.75 160.175781 C 206.644531 160.773438 207.507812 161.414062 208.339844 162.09375 C 209.171875 162.777344 209.964844 163.5 210.726562 164.261719 C 211.488281 165.023438 212.210938 165.816406 212.894531 166.648438 C 213.574219 167.480469 214.214844 168.34375 214.8125 169.238281 C 215.410156 170.132812 215.964844 171.054688 216.472656 172.003906 C 216.980469 172.953125 217.4375 173.925781 217.851562 174.921875 C 218.261719 175.914062 218.625 176.925781 218.9375 177.957031 C 219.25 178.984375 219.511719 180.027344 219.71875 181.085938 C 219.929688 182.140625 220.085938 183.203125 220.191406 184.273438 C 220.296875 185.34375 220.351562 186.417969 220.351562 187.496094 Z M 220.351562 187.496094 " fill-opacity="1" fill-rule="nonzero"/></svg>