<svg xmlns="http://www.w3.org/2000/svg" xmlns:xlink="http://www.w3.org/1999/xlink" width="500" zoomAndPan="magnify" viewBox="0 0 375 374.999991" height="500" preserveAspectRatio="xMidYMid meet" version="1.0"><defs><clipPath id="58aee32e63"><path d="M 62.515625 96.65625 L 62.871094 96.65625 L 62.871094 96.9375 L 62.515625 96.9375 Z M 62.515625 96.65625 " clip-rule="nonzero"/></clipPath><clipPath id="9b9427c5bb"><path d="M 62.851562 96.824219 C 62.175781 97.125 62.773438 96.675781 62.773438 96.675781 " clip-rule="nonzero"/></clipPath><clipPath id="87e942b24d"><path d="M 58.730469 18.46875 L 315.980469 18.46875 L 315.980469 356.71875 L 58.730469 356.71875 Z M 58.730469 18.46875 " clip-rule="nonzero"/></clipPath></defs><g clip-path="url(#58aee32e63)"><g clip-path="url(#9b9427c5bb)"><path fill="#9747ff" d="M 59.175781 93.675781 L 65.929688 93.675781 L 65.929688 100.199219 L 59.175781 100.199219 Z M 59.175781 93.675781 " fill-opacity="1" fill-rule="nonzero"/></g></g><g clip-path="url(#87e942b24d)"><path fill="#545454" d="M 295.1875 61.257812 L 235.757812 61.257812 C 231.960938 37.234375 211.730469 18.6875 186.863281 18.6875 C 161.996094 18.6875 141.34375 37.234375 137.96875 61.257812 L 79.382812 61.257812 C 68.003906 61.257812 58.730469 70.53125 58.730469 81.910156 L 58.730469 102.984375 C 58.730469 113.523438 66.316406 121.953125 76.433594 123.21875 L 76.433594 328.90625 C 76.433594 344.078125 88.65625 356.300781 103.828125 356.300781 L 271.160156 356.300781 C 286.335938 356.300781 298.558594 344.078125 298.558594 328.90625 L 298.558594 123.640625 C 308.675781 121.953125 316.261719 113.523438 316.261719 103.40625 L 316.261719 82.332031 C 315.839844 70.53125 306.566406 61.257812 295.1875 61.257812 Z M 186.863281 34.28125 C 203.300781 34.28125 216.789062 45.664062 219.738281 61.257812 L 153.566406 61.257812 C 156.9375 46.085938 170.425781 34.28125 186.863281 34.28125 Z M 282.542969 329.328125 C 282.542969 335.648438 277.484375 341.128906 270.738281 341.128906 L 103.40625 341.128906 C 97.085938 341.128906 91.605469 336.070312 91.605469 329.328125 L 91.605469 124.0625 L 282.121094 124.0625 L 282.121094 329.328125 Z M 300.246094 102.984375 C 300.246094 105.9375 298.136719 108.042969 295.1875 108.042969 L 79.382812 108.042969 C 76.433594 108.042969 74.324219 105.9375 74.324219 102.984375 L 74.324219 81.910156 C 74.324219 78.960938 76.433594 76.855469 79.382812 76.855469 L 294.765625 76.855469 C 297.714844 76.855469 299.824219 78.960938 299.824219 81.910156 L 299.824219 102.984375 Z M 126.589844 300.664062 L 126.589844 167.472656 C 126.589844 163.257812 129.960938 159.886719 134.175781 159.886719 C 138.390625 159.886719 141.761719 163.257812 141.761719 167.472656 L 141.761719 300.664062 C 141.761719 304.878906 138.390625 308.253906 134.175781 308.253906 C 129.960938 308.671875 126.589844 304.878906 126.589844 300.664062 Z M 180.117188 300.664062 L 180.117188 167.472656 C 180.117188 163.257812 183.492188 159.886719 187.707031 159.886719 C 191.921875 159.886719 195.292969 163.257812 195.292969 167.472656 L 195.292969 300.664062 C 195.292969 304.878906 191.921875 308.253906 187.707031 308.253906 C 183.492188 308.671875 180.117188 304.878906 180.117188 300.664062 Z M 233.648438 300.664062 L 233.648438 167.472656 C 233.648438 163.257812 237.019531 159.886719 241.234375 159.886719 C 245.449219 159.886719 248.820312 163.257812 248.820312 167.472656 L 248.820312 300.664062 C 248.820312 304.878906 245.449219 308.253906 241.234375 308.253906 C 237.441406 308.671875 233.648438 304.878906 233.648438 300.664062 Z M 233.648438 300.664062 " fill-opacity="1" fill-rule="nonzero"/></g></svg>