<svg xmlns="http://www.w3.org/2000/svg" xmlns:xlink="http://www.w3.org/1999/xlink" width="1080" zoomAndPan="magnify" viewBox="0 0 810 809.999993" height="1080" preserveAspectRatio="xMidYMid meet" version="1.0"><defs><g/><clipPath id="f8d183280c"><path d="M 210.746094 383 L 599.246094 383 L 599.246094 614.820312 L 210.746094 614.820312 Z M 210.746094 383 " clip-rule="nonzero"/></clipPath><clipPath id="b83dff87bd"><path d="M 407 295 L 415 295 L 415 322.960938 L 407 322.960938 Z M 407 295 " clip-rule="nonzero"/></clipPath><clipPath id="c307d61fc5"><path d="M 413.636719 322.410156 L 407.113281 322.136719 L 411.054688 308.273438 L 413.863281 298.398438 L 414.636719 298.398438 L 413.636719 322.410156 M 414.429688 296.398438 L 414.769531 295.214844 L 414.71875 296.398438 L 414.429688 296.398438 " clip-rule="nonzero"/></clipPath></defs><path fill="#a9a8a8" d="M 397.523438 253.023438 C 293.933594 253.203125 277.644531 314.597656 277.707031 348.9375 C 277.765625 383.285156 294.667969 407.71875 397.792969 407.535156 C 493.195312 407.371094 517.734375 382.863281 517.675781 348.519531 C 517.613281 314.175781 517.535156 252.8125 397.523438 253.023438 " fill-opacity="1" fill-rule="nonzero"/><path fill="#d3d2d2" d="M 293.660156 243.742188 C 278.894531 246.59375 269.683594 260.191406 272.976562 273.304688 C 276.273438 286.445312 289.660156 294.40625 302.980469 291.847656 C 370.105469 278.839844 439.109375 278.714844 506.277344 291.492188 C 519.613281 294.007812 532.96875 285.996094 536.21875 272.839844 C 539.472656 259.722656 530.222656 246.15625 515.433594 243.359375 C 442.15625 229.421875 366.894531 229.554688 293.660156 243.742188 " fill-opacity="1" fill-rule="nonzero"/><path fill="#0a0807" d="M 334.566406 521.625 C 334.535156 503.125 337.230469 493.425781 352.4375 493.394531 C 366.195312 493.375 370.371094 503.0625 370.40625 521.558594 C 370.433594 540.058594 360.25 560.375 352.554688 560.386719 C 345.101562 560.402344 334.597656 540.121094 334.566406 521.625 " fill-opacity="1" fill-rule="nonzero"/><path fill="#181312" d="M 322.683594 496.445312 C 322.710938 512.378906 336.109375 525.011719 352.105469 524.988281 C 368.433594 524.960938 378.117188 511.328125 381.605469 495.398438 C 389.105469 461.121094 410.507812 333.683594 410.507812 333.683594 L 322.589844 333.839844 C 322.589844 333.839844 322.519531 334.90625 322.402344 336.832031 C 322.402344 336.832031 322.625 462.925781 322.683594 496.445312 " fill-opacity="1" fill-rule="nonzero"/><path fill="#1d1817" d="M 498.023438 466.941406 C 498.050781 482.875 484.6875 495.554688 468.699219 495.578125 C 452.378906 495.605469 442.644531 482.015625 439.09375 466.089844 C 431.476562 431.839844 409.691406 333.6875 409.691406 333.6875 L 497.597656 333.53125 C 497.597656 333.53125 497.679688 334.601562 497.796875 336.523438 C 497.796875 336.523438 497.960938 433.414062 498.023438 466.941406 " fill-opacity="1" fill-rule="nonzero"/><path fill="#1d1817" d="M 315.789062 504 L 471.09375 495.796875 C 484.015625 495.777344 495.542969 485.605469 495.515625 470.378906 C 495.480469 449 480.304688 441.257812 467.386719 441.277344 L 308.332031 467.554688 L 315.789062 504 " fill-opacity="1" fill-rule="nonzero"/><path fill="#151313" d="M 315.066406 501.144531 L 310.691406 511.09375 C 310.691406 511.09375 312.164062 518.628906 312.636719 521.035156 C 315.207031 534.164062 311.757812 542.167969 298.175781 544.824219 L 294.710938 545.496094 L 287.21875 507.222656 L 287.703125 493.660156 L 284.6875 494.246094 L 280.734375 474.035156 L 308.691406 468.570312 L 315.066406 501.144531 " fill-opacity="1" fill-rule="nonzero"/><g clip-path="url(#f8d183280c)"><path fill="#bf935b" d="M 599.222656 614.085938 L 211.175781 614.765625 L 210.769531 384.460938 L 598.816406 383.78125 L 599.222656 614.085938 " fill-opacity="1" fill-rule="nonzero"/></g><path fill="#cccbcc" d="M 503.847656 433.628906 C 503.835938 427.757812 499.058594 422.996094 493.1875 423.007812 L 316.542969 423.320312 C 310.667969 423.328125 305.90625 428.105469 305.917969 433.976562 L 306.082031 527.976562 C 306.09375 533.851562 310.867188 538.609375 316.742188 538.601562 L 493.386719 538.292969 C 499.261719 538.28125 504.023438 533.503906 504.011719 527.628906 L 503.847656 433.628906 " fill-opacity="1" fill-rule="nonzero"/><path fill="#cccbcc" d="M 504.03125 552.621094 C 501.230469 547.460938 499.25 541.984375 493.367188 542 L 316.726562 542.308594 C 310.847656 542.316406 308.835938 547.765625 306.101562 552.964844 C 300.835938 562.96875 293.386719 575.714844 288.070312 585.980469 C 285.367188 591.195312 292.847656 596.609375 298.734375 596.601562 L 511.558594 596.230469 C 517.429688 596.21875 525.058594 590.6875 522.171875 585.570312 C 516.066406 574.726562 509.414062 562.523438 504.03125 552.621094 " fill-opacity="1" fill-rule="nonzero"/><path fill="#393536" d="M 499.8125 554.878906 C 497.144531 550.417969 495.242188 545.691406 489.625 545.703125 L 320.675781 546 C 315.054688 546.011719 313.140625 550.714844 310.515625 555.210938 C 305.472656 563.847656 298.359375 574.851562 293.261719 583.71875 C 290.667969 588.222656 293.90625 592.902344 299.523438 592.894531 L 509.253906 592.527344 C 514.878906 592.511719 519.929688 587.738281 517.167969 583.328125 C 511.324219 573.964844 504.960938 563.429688 499.8125 554.878906 " fill-opacity="1" fill-rule="nonzero"/><path fill="#706d6e" d="M 497.085938 556.308594 C 494.515625 552.398438 492.699219 548.28125 487.300781 548.289062 L 322.414062 548.578125 C 317.015625 548.589844 315.164062 552.703125 312.65625 556.628906 C 307.808594 564.175781 302.09375 574.546875 297.207031 582.289062 C 294.71875 586.222656 295.832031 590.320312 301.238281 590.3125 L 507.253906 589.949219 C 512.644531 589.9375 515.867188 585.773438 513.214844 581.914062 C 507.605469 573.730469 502.027344 563.78125 497.085938 556.308594 " fill-opacity="1" fill-rule="nonzero"/><path fill="#7b7979" d="M 495.785156 471.039062 C 495.78125 467.542969 492.945312 464.710938 489.449219 464.71875 L 320.4375 465.011719 C 316.933594 465.015625 314.101562 467.859375 314.109375 471.355469 L 314.207031 527.359375 C 314.214844 530.863281 317.054688 533.691406 320.558594 533.679688 L 489.566406 533.386719 C 493.070312 533.382812 495.890625 530.546875 495.882812 527.039062 L 495.785156 471.039062 " fill-opacity="1" fill-rule="nonzero"/><path fill="#ffffff" d="M 321.683594 522.414062 L 330.097656 522.402344 C 330.625 522.402344 331.042969 522.820312 331.042969 523.339844 L 331.046875 526.089844 C 331.046875 526.601562 330.636719 527.027344 330.109375 527.035156 L 321.695312 527.046875 C 321.164062 527.046875 320.75 526.621094 320.75 526.109375 L 320.746094 523.355469 C 320.746094 522.839844 321.160156 522.421875 321.683594 522.414062 " fill-opacity="1" fill-rule="nonzero"/><path fill="#ffffff" d="M 334.875 522.394531 L 343.289062 522.382812 C 343.8125 522.382812 344.230469 522.800781 344.230469 523.316406 L 344.238281 526.066406 C 344.238281 526.582031 343.820312 527.007812 343.296875 527.007812 L 334.882812 527.023438 C 334.355469 527.023438 333.9375 526.597656 333.9375 526.085938 L 333.933594 523.335938 C 333.933594 522.816406 334.34375 522.394531 334.875 522.394531 " fill-opacity="1" fill-rule="nonzero"/><path fill="#ffffff" d="M 348.0625 522.371094 L 356.480469 522.355469 C 356.996094 522.355469 357.425781 522.777344 357.425781 523.292969 L 357.429688 526.046875 C 357.429688 526.558594 357.007812 526.984375 356.492188 526.984375 L 348.066406 527 C 347.550781 527 347.132812 526.574219 347.128906 526.058594 L 347.128906 523.3125 C 347.125 522.792969 347.542969 522.371094 348.0625 522.371094 " fill-opacity="1" fill-rule="nonzero"/><path fill="#ffffff" d="M 361.257812 522.347656 L 369.675781 522.332031 C 370.191406 522.332031 370.617188 522.753906 370.617188 523.273438 L 370.621094 526.019531 C 370.621094 526.535156 370.199219 526.960938 369.683594 526.964844 L 361.261719 526.972656 C 360.742188 526.980469 360.324219 526.554688 360.324219 526.035156 L 360.316406 523.285156 C 360.316406 522.773438 360.734375 522.351562 361.257812 522.347656 " fill-opacity="1" fill-rule="nonzero"/><path fill="#ffffff" d="M 374.441406 522.328125 L 382.867188 522.308594 C 383.386719 522.308594 383.808594 522.730469 383.808594 523.246094 L 383.816406 525.996094 C 383.816406 526.511719 383.394531 526.933594 382.875 526.941406 L 374.453125 526.953125 C 373.9375 526.953125 373.511719 526.53125 373.511719 526.015625 L 373.507812 523.265625 C 373.507812 522.75 373.933594 522.328125 374.441406 522.328125 " fill-opacity="1" fill-rule="nonzero"/><path fill="#ffffff" d="M 387.640625 522.304688 L 396.050781 522.289062 C 396.578125 522.289062 397 522.710938 397 523.222656 L 397.003906 525.972656 C 397.003906 526.492188 396.589844 526.914062 396.0625 526.914062 L 387.644531 526.929688 C 387.128906 526.929688 386.707031 526.503906 386.703125 525.992188 L 386.695312 523.242188 C 386.695312 522.722656 387.117188 522.304688 387.640625 522.304688 " fill-opacity="1" fill-rule="nonzero"/><path fill="#ffffff" d="M 400.832031 522.277344 L 409.246094 522.265625 C 409.769531 522.265625 410.183594 522.683594 410.183594 523.199219 L 410.191406 525.953125 C 410.191406 526.464844 409.773438 526.890625 409.25 526.890625 L 400.839844 526.90625 C 400.3125 526.910156 399.894531 526.480469 399.894531 525.96875 L 399.890625 523.21875 C 399.890625 522.703125 400.300781 522.277344 400.832031 522.277344 " fill-opacity="1" fill-rule="nonzero"/><path fill="#ffffff" d="M 414.019531 522.253906 L 422.441406 522.238281 C 422.957031 522.238281 423.378906 522.660156 423.378906 523.179688 L 423.382812 525.929688 C 423.382812 526.441406 422.96875 526.867188 422.445312 526.871094 L 414.023438 526.882812 C 413.507812 526.886719 413.089844 526.460938 413.089844 525.941406 L 413.085938 523.195312 C 413.085938 522.679688 413.5 522.257812 414.019531 522.253906 " fill-opacity="1" fill-rule="nonzero"/><path fill="#ffffff" d="M 427.214844 522.234375 L 435.628906 522.21875 C 436.148438 522.21875 436.574219 522.636719 436.574219 523.15625 L 436.578125 525.902344 C 436.578125 526.417969 436.15625 526.847656 435.640625 526.847656 L 427.222656 526.863281 C 426.707031 526.863281 426.28125 526.4375 426.28125 525.921875 L 426.273438 523.175781 C 426.273438 522.65625 426.695312 522.234375 427.214844 522.234375 " fill-opacity="1" fill-rule="nonzero"/><path fill="#ffffff" d="M 440.398438 522.210938 L 448.824219 522.195312 C 449.34375 522.195312 449.769531 522.617188 449.769531 523.128906 L 449.773438 525.878906 C 449.773438 526.398438 449.347656 526.824219 448.832031 526.824219 L 440.410156 526.835938 C 439.894531 526.835938 439.476562 526.410156 439.46875 525.898438 L 439.464844 523.148438 C 439.464844 522.632812 439.890625 522.210938 440.398438 522.210938 " fill-opacity="1" fill-rule="nonzero"/><path fill="#ffffff" d="M 453.597656 522.1875 L 462.011719 522.171875 C 462.53125 522.171875 462.953125 522.59375 462.953125 523.109375 L 462.957031 525.859375 C 462.960938 526.371094 462.542969 526.796875 462.019531 526.796875 L 453.609375 526.8125 C 453.085938 526.816406 452.660156 526.390625 452.65625 525.875 L 452.648438 523.125 C 452.648438 522.613281 453.074219 522.1875 453.597656 522.1875 " fill-opacity="1" fill-rule="nonzero"/><path fill="#ffffff" d="M 466.789062 522.160156 L 475.203125 522.148438 C 475.726562 522.148438 476.140625 522.566406 476.140625 523.085938 L 476.148438 525.835938 C 476.148438 526.347656 475.730469 526.773438 475.210938 526.777344 L 466.792969 526.789062 C 466.273438 526.792969 465.859375 526.367188 465.855469 525.847656 L 465.847656 523.101562 C 465.847656 522.585938 466.265625 522.167969 466.789062 522.160156 " fill-opacity="1" fill-rule="nonzero"/><path fill="#ffffff" d="M 488.402344 526.753906 L 479.984375 526.769531 C 479.46875 526.769531 479.046875 526.34375 479.046875 525.828125 L 479.042969 523.082031 C 479.042969 522.5625 479.460938 522.140625 479.976562 522.140625 L 488.398438 522.128906 C 488.914062 522.128906 489.335938 522.546875 489.335938 523.0625 L 489.339844 525.808594 C 489.339844 526.324219 488.925781 526.753906 488.402344 526.753906 " fill-opacity="1" fill-rule="nonzero"/><path fill="#ffffff" d="M 321.667969 512.492188 L 336.988281 512.460938 C 337.503906 512.460938 337.929688 512.882812 337.929688 513.402344 L 337.941406 518.890625 C 337.941406 519.40625 337.515625 519.832031 337 519.839844 L 321.679688 519.863281 C 321.152344 519.863281 320.738281 519.4375 320.738281 518.917969 L 320.730469 513.429688 C 320.730469 512.914062 321.140625 512.492188 321.667969 512.492188 " fill-opacity="1" fill-rule="nonzero"/><path fill="#ffffff" d="M 350.191406 519.8125 L 341.78125 519.828125 C 341.257812 519.828125 340.835938 519.402344 340.835938 518.882812 L 340.828125 513.398438 C 340.828125 512.875 341.242188 512.457031 341.765625 512.457031 L 350.175781 512.4375 C 350.695312 512.4375 351.125 512.855469 351.125 513.378906 L 351.136719 518.863281 C 351.140625 519.382812 350.710938 519.808594 350.191406 519.8125 " fill-opacity="1" fill-rule="nonzero"/><path fill="#ffffff" d="M 363.386719 519.789062 L 354.976562 519.804688 C 354.453125 519.804688 354.03125 519.378906 354.03125 518.859375 L 354.023438 513.371094 C 354.015625 512.855469 354.4375 512.433594 354.960938 512.433594 L 363.371094 512.417969 C 363.890625 512.414062 364.320312 512.835938 364.320312 513.351562 L 364.328125 518.839844 C 364.328125 519.363281 363.898438 519.789062 363.386719 519.789062 " fill-opacity="1" fill-rule="nonzero"/><path fill="#ffffff" d="M 376.574219 519.765625 L 368.160156 519.78125 C 367.640625 519.78125 367.214844 519.359375 367.214844 518.839844 L 367.207031 513.347656 C 367.203125 512.828125 367.628906 512.410156 368.144531 512.410156 L 376.566406 512.394531 C 377.082031 512.394531 377.507812 512.808594 377.507812 513.328125 L 377.519531 518.820312 C 377.523438 519.339844 377.097656 519.765625 376.574219 519.765625 " fill-opacity="1" fill-rule="nonzero"/><path fill="#ffffff" d="M 389.765625 519.742188 L 381.355469 519.753906 C 380.832031 519.761719 380.40625 519.335938 380.40625 518.816406 L 380.394531 513.324219 C 380.394531 512.804688 380.820312 512.382812 381.339844 512.382812 L 389.753906 512.371094 C 390.277344 512.371094 390.695312 512.789062 390.695312 513.308594 L 390.703125 518.796875 C 390.707031 519.316406 390.289062 519.742188 389.765625 519.742188 " fill-opacity="1" fill-rule="nonzero"/><path fill="#ffffff" d="M 402.953125 519.722656 L 394.542969 519.734375 C 394.027344 519.734375 393.59375 519.308594 393.59375 518.792969 L 393.585938 513.304688 C 393.585938 512.78125 394.011719 512.363281 394.53125 512.363281 L 402.9375 512.34375 C 403.460938 512.34375 403.886719 512.765625 403.886719 513.285156 L 403.898438 518.773438 C 403.898438 519.289062 403.476562 519.722656 402.953125 519.722656 " fill-opacity="1" fill-rule="nonzero"/><path fill="#ffffff" d="M 416.148438 519.695312 L 407.734375 519.710938 C 407.214844 519.710938 406.789062 519.285156 406.789062 518.765625 L 406.78125 513.277344 C 406.78125 512.761719 407.199219 512.339844 407.722656 512.339844 L 416.136719 512.324219 C 416.652344 512.320312 417.082031 512.742188 417.082031 513.257812 L 417.09375 518.746094 C 417.097656 519.269531 416.667969 519.695312 416.148438 519.695312 " fill-opacity="1" fill-rule="nonzero"/><path fill="#ffffff" d="M 429.339844 519.671875 L 420.921875 519.6875 C 420.40625 519.6875 419.988281 519.265625 419.984375 518.742188 L 419.972656 513.253906 C 419.972656 512.734375 420.390625 512.316406 420.914062 512.316406 L 429.324219 512.300781 C 429.847656 512.300781 430.273438 512.714844 430.277344 513.234375 L 430.285156 518.726562 C 430.285156 519.246094 429.855469 519.671875 429.339844 519.671875 " fill-opacity="1" fill-rule="nonzero"/><path fill="#ffffff" d="M 442.53125 519.652344 L 434.121094 519.667969 C 433.59375 519.667969 433.171875 519.242188 433.171875 518.722656 L 433.164062 513.230469 C 433.164062 512.710938 433.585938 512.292969 434.113281 512.292969 L 442.523438 512.277344 C 443.042969 512.277344 443.460938 512.691406 443.460938 513.214844 L 443.472656 518.703125 C 443.472656 519.222656 443.054688 519.648438 442.53125 519.652344 " fill-opacity="1" fill-rule="nonzero"/><path fill="#ffffff" d="M 455.722656 519.628906 L 447.3125 519.644531 C 446.785156 519.644531 446.363281 519.21875 446.363281 518.699219 L 446.351562 513.210938 C 446.351562 512.6875 446.773438 512.273438 447.300781 512.273438 L 455.710938 512.257812 C 456.234375 512.257812 456.644531 512.671875 456.652344 513.191406 L 456.65625 518.679688 C 456.65625 519.203125 456.246094 519.628906 455.722656 519.628906 " fill-opacity="1" fill-rule="nonzero"/><path fill="#ffffff" d="M 468.921875 519.605469 L 460.496094 519.617188 C 459.984375 519.617188 459.550781 519.199219 459.550781 518.675781 L 459.542969 513.1875 C 459.542969 512.667969 459.972656 512.246094 460.480469 512.246094 L 468.90625 512.234375 C 469.421875 512.226562 469.839844 512.648438 469.847656 513.167969 L 469.855469 518.660156 C 469.855469 519.179688 469.433594 519.605469 468.921875 519.605469 " fill-opacity="1" fill-rule="nonzero"/><path fill="#ffffff" d="M 488.398438 519.570312 L 473.691406 519.59375 C 473.171875 519.59375 472.742188 519.171875 472.742188 518.65625 L 472.730469 513.160156 C 472.730469 512.644531 473.164062 512.222656 473.675781 512.222656 L 488.382812 512.199219 C 488.902344 512.199219 489.316406 512.613281 489.316406 513.132812 L 489.328125 518.621094 C 489.328125 519.144531 488.910156 519.570312 488.398438 519.570312 " fill-opacity="1" fill-rule="nonzero"/><path fill="#ffffff" d="M 321.648438 501.996094 L 330.0625 501.980469 C 330.585938 501.980469 331.003906 502.402344 331.003906 502.917969 L 331.011719 508.414062 C 331.011719 508.925781 330.601562 509.351562 330.074219 509.351562 L 321.664062 509.367188 C 321.136719 509.367188 320.71875 508.945312 320.71875 508.425781 L 320.710938 502.933594 C 320.710938 502.421875 321.121094 501.996094 321.648438 501.996094 " fill-opacity="1" fill-rule="nonzero"/><path fill="#ffffff" d="M 333.910156 508.40625 L 333.898438 502.914062 C 333.894531 502.394531 334.3125 501.976562 334.839844 501.976562 L 343.25 501.960938 C 343.777344 501.957031 344.199219 502.375 344.199219 502.894531 L 344.207031 508.386719 C 344.207031 508.902344 343.792969 509.328125 343.261719 509.328125 L 334.847656 509.339844 C 334.324219 509.339844 333.910156 508.921875 333.910156 508.40625 " fill-opacity="1" fill-rule="nonzero"/><path fill="#ffffff" d="M 347.097656 508.382812 L 347.089844 502.890625 C 347.089844 502.371094 347.503906 501.949219 348.027344 501.949219 L 356.449219 501.9375 C 356.960938 501.9375 357.386719 502.355469 357.390625 502.871094 L 357.398438 508.363281 C 357.402344 508.882812 356.976562 509.300781 356.457031 509.300781 L 348.039062 509.316406 C 347.519531 509.316406 347.097656 508.898438 347.097656 508.382812 " fill-opacity="1" fill-rule="nonzero"/><path fill="#ffffff" d="M 360.292969 508.359375 L 360.285156 502.867188 C 360.285156 502.351562 360.699219 501.925781 361.21875 501.925781 L 369.636719 501.910156 C 370.15625 501.910156 370.582031 502.332031 370.582031 502.847656 L 370.589844 508.34375 C 370.589844 508.859375 370.167969 509.28125 369.652344 509.28125 L 361.234375 509.296875 C 360.710938 509.296875 360.292969 508.878906 360.292969 508.359375 " fill-opacity="1" fill-rule="nonzero"/><path fill="#ffffff" d="M 373.484375 508.335938 L 373.472656 502.839844 C 373.46875 502.328125 373.894531 501.90625 374.40625 501.902344 L 382.832031 501.886719 C 383.351562 501.886719 383.769531 502.308594 383.777344 502.828125 L 383.78125 508.320312 C 383.785156 508.832031 383.367188 509.257812 382.84375 509.257812 L 374.417969 509.273438 C 373.910156 509.273438 373.484375 508.851562 373.484375 508.335938 " fill-opacity="1" fill-rule="nonzero"/><path fill="#ffffff" d="M 386.671875 508.316406 L 386.664062 502.820312 C 386.664062 502.304688 387.082031 501.882812 387.601562 501.882812 L 396.015625 501.867188 C 396.546875 501.867188 396.960938 502.289062 396.960938 502.800781 L 396.972656 508.296875 C 396.972656 508.8125 396.554688 509.234375 396.027344 509.234375 L 387.617188 509.25 C 387.097656 509.25 386.671875 508.828125 386.671875 508.316406 " fill-opacity="1" fill-rule="nonzero"/><path fill="#ffffff" d="M 399.867188 508.289062 L 399.855469 502.796875 C 399.851562 502.285156 400.269531 501.859375 400.796875 501.859375 L 409.207031 501.84375 C 409.730469 501.84375 410.152344 502.265625 410.152344 502.777344 L 410.160156 508.269531 C 410.160156 508.789062 409.746094 509.210938 409.222656 509.210938 L 400.804688 509.230469 C 400.28125 509.230469 399.867188 508.808594 399.867188 508.289062 " fill-opacity="1" fill-rule="nonzero"/><path fill="#ffffff" d="M 413.0625 508.265625 L 413.050781 502.773438 C 413.046875 502.257812 413.460938 501.832031 413.984375 501.832031 L 422.402344 501.820312 C 422.925781 501.820312 423.339844 502.238281 423.339844 502.757812 L 423.355469 508.25 C 423.355469 508.765625 422.933594 509.191406 422.414062 509.191406 L 413.996094 509.203125 C 413.476562 509.203125 413.0625 508.785156 413.0625 508.265625 " fill-opacity="1" fill-rule="nonzero"/><path fill="#ffffff" d="M 426.246094 508.242188 L 426.234375 502.75 C 426.234375 502.234375 426.660156 501.8125 427.179688 501.8125 L 435.59375 501.792969 C 436.113281 501.792969 436.539062 502.214844 436.539062 502.734375 L 436.550781 508.226562 C 436.550781 508.738281 436.125 509.164062 435.609375 509.164062 L 427.191406 509.179688 C 426.671875 509.179688 426.25 508.757812 426.246094 508.242188 " fill-opacity="1" fill-rule="nonzero"/><path fill="#ffffff" d="M 439.441406 508.222656 L 439.429688 502.730469 C 439.429688 502.210938 439.851562 501.789062 440.363281 501.789062 L 448.789062 501.773438 C 449.304688 501.773438 449.730469 502.195312 449.730469 502.710938 L 449.738281 508.203125 C 449.742188 508.71875 449.316406 509.140625 448.800781 509.140625 L 440.375 509.15625 C 439.867188 509.15625 439.441406 508.734375 439.441406 508.222656 " fill-opacity="1" fill-rule="nonzero"/><path fill="#ffffff" d="M 452.625 508.195312 L 452.617188 502.703125 C 452.617188 502.191406 453.039062 501.765625 453.5625 501.765625 L 461.980469 501.75 C 462.496094 501.75 462.917969 502.171875 462.917969 502.683594 L 462.929688 508.175781 C 462.929688 508.695312 462.507812 509.117188 461.988281 509.117188 L 453.574219 509.136719 C 453.050781 509.136719 452.625 508.714844 452.625 508.195312 " fill-opacity="1" fill-rule="nonzero"/><path fill="#ffffff" d="M 476.109375 502.664062 L 476.117188 508.15625 C 476.117188 508.671875 475.703125 509.097656 475.183594 509.097656 L 466.761719 509.113281 C 466.246094 509.113281 465.824219 508.691406 465.824219 508.171875 L 465.816406 502.679688 C 465.816406 502.167969 466.230469 501.742188 466.75 501.742188 L 475.167969 501.726562 C 475.6875 501.726562 476.109375 502.148438 476.109375 502.664062 " fill-opacity="1" fill-rule="nonzero"/><path fill="#ffffff" d="M 488.371094 509.074219 L 479.953125 509.085938 C 479.433594 509.085938 479.019531 508.667969 479.019531 508.148438 L 479 499.167969 L 473.652344 499.179688 C 473.136719 499.179688 472.707031 498.753906 472.707031 498.230469 L 472.699219 492.746094 C 472.699219 492.226562 473.125 491.808594 473.640625 491.808594 L 479.921875 491.792969 L 482.050781 491.792969 L 488.34375 491.777344 C 488.863281 491.777344 489.28125 492.191406 489.28125 492.710938 L 489.3125 508.132812 C 489.3125 508.648438 488.890625 509.074219 488.371094 509.074219 " fill-opacity="1" fill-rule="nonzero"/><path fill="#ffffff" d="M 321.628906 492.070312 L 336.953125 492.046875 C 337.464844 492.042969 337.890625 492.460938 337.890625 492.980469 L 337.90625 498.464844 C 337.90625 498.988281 337.480469 499.417969 336.960938 499.417969 L 321.644531 499.441406 C 321.117188 499.445312 320.707031 499.019531 320.699219 498.496094 L 320.691406 493.011719 C 320.691406 492.492188 321.105469 492.070312 321.628906 492.070312 " fill-opacity="1" fill-rule="nonzero"/><path fill="#ffffff" d="M 351.089844 492.957031 L 351.101562 498.445312 C 351.101562 498.96875 350.675781 499.394531 350.152344 499.394531 L 341.746094 499.40625 C 341.222656 499.40625 340.800781 498.980469 340.800781 498.457031 L 340.792969 492.976562 C 340.789062 492.457031 341.207031 492.035156 341.730469 492.035156 L 350.140625 492.023438 C 350.660156 492.023438 351.089844 492.4375 351.089844 492.957031 " fill-opacity="1" fill-rule="nonzero"/><path fill="#ffffff" d="M 364.28125 492.933594 L 364.296875 498.417969 C 364.296875 498.941406 363.863281 499.367188 363.351562 499.375 L 354.941406 499.382812 C 354.417969 499.386719 353.992188 498.960938 353.992188 498.4375 L 353.984375 492.953125 C 353.984375 492.433594 354.402344 492.011719 354.925781 492.011719 L 363.335938 491.996094 C 363.851562 491.996094 364.28125 492.414062 364.28125 492.933594 " fill-opacity="1" fill-rule="nonzero"/><path fill="#ffffff" d="M 377.476562 492.914062 L 377.484375 498.394531 C 377.484375 498.917969 377.058594 499.34375 376.539062 499.347656 L 368.125 499.363281 C 367.605469 499.363281 367.175781 498.9375 367.175781 498.414062 L 367.167969 492.933594 C 367.167969 492.410156 367.59375 491.992188 368.109375 491.992188 L 376.53125 491.976562 C 377.050781 491.972656 377.476562 492.394531 377.476562 492.914062 " fill-opacity="1" fill-rule="nonzero"/><path fill="#ffffff" d="M 390.660156 492.886719 L 390.667969 498.375 C 390.667969 498.898438 390.253906 499.324219 389.730469 499.324219 L 381.316406 499.339844 C 380.796875 499.339844 380.371094 498.914062 380.371094 498.390625 L 380.363281 492.90625 C 380.363281 492.390625 380.78125 491.96875 381.304688 491.96875 L 389.714844 491.953125 C 390.238281 491.953125 390.660156 492.371094 390.660156 492.886719 " fill-opacity="1" fill-rule="nonzero"/><path fill="#ffffff" d="M 403.847656 492.863281 L 403.863281 498.351562 C 403.863281 498.875 403.441406 499.300781 402.917969 499.300781 L 394.511719 499.316406 C 393.992188 499.316406 393.5625 498.890625 393.5625 498.367188 L 393.550781 492.882812 C 393.550781 492.363281 393.976562 491.945312 394.496094 491.945312 L 402.90625 491.929688 C 403.429688 491.929688 403.847656 492.34375 403.847656 492.863281 " fill-opacity="1" fill-rule="nonzero"/><path fill="#ffffff" d="M 417.046875 492.84375 L 417.058594 498.328125 C 417.058594 498.851562 416.628906 499.277344 416.113281 499.28125 L 407.699219 499.289062 C 407.175781 499.296875 406.753906 498.871094 406.753906 498.347656 L 406.746094 492.859375 C 406.746094 492.339844 407.167969 491.925781 407.683594 491.917969 L 416.097656 491.90625 C 416.617188 491.90625 417.046875 492.324219 417.046875 492.84375 " fill-opacity="1" fill-rule="nonzero"/><path fill="#ffffff" d="M 430.238281 492.820312 L 430.246094 498.300781 C 430.253906 498.824219 429.820312 499.257812 429.304688 499.257812 L 420.890625 499.269531 C 420.367188 499.269531 419.949219 498.84375 419.949219 498.320312 L 419.941406 492.839844 C 419.941406 492.316406 420.355469 491.898438 420.875 491.898438 L 429.289062 491.878906 C 429.808594 491.878906 430.238281 492.296875 430.238281 492.820312 " fill-opacity="1" fill-rule="nonzero"/><path fill="#ffffff" d="M 443.425781 492.792969 L 443.4375 498.28125 C 443.4375 498.804688 443.015625 499.230469 442.5 499.230469 L 434.089844 499.246094 C 433.558594 499.246094 433.140625 498.820312 433.140625 498.296875 L 433.128906 492.8125 C 433.128906 492.296875 433.550781 491.875 434.074219 491.875 L 442.484375 491.859375 C 443.007812 491.859375 443.425781 492.277344 443.425781 492.792969 " fill-opacity="1" fill-rule="nonzero"/><path fill="#ffffff" d="M 456.613281 492.769531 L 456.621094 498.257812 C 456.621094 498.78125 456.210938 499.207031 455.6875 499.210938 L 447.277344 499.222656 C 446.75 499.222656 446.328125 498.800781 446.328125 498.277344 L 446.3125 492.789062 C 446.3125 492.269531 446.734375 491.855469 447.261719 491.851562 L 455.671875 491.835938 C 456.195312 491.835938 456.613281 492.25 456.613281 492.769531 " fill-opacity="1" fill-rule="nonzero"/><path fill="#ffffff" d="M 468.882812 499.1875 L 460.460938 499.203125 C 459.949219 499.203125 459.519531 498.777344 459.511719 498.253906 L 459.503906 492.765625 C 459.503906 492.246094 459.9375 491.828125 460.449219 491.828125 L 468.867188 491.8125 C 469.386719 491.8125 469.804688 492.230469 469.804688 492.75 L 469.816406 498.234375 C 469.820312 498.757812 469.402344 499.183594 468.882812 499.1875 " fill-opacity="1" fill-rule="nonzero"/><path fill="#ffffff" d="M 321.617188 481.578125 L 330.023438 481.566406 C 330.554688 481.558594 330.96875 481.984375 330.96875 482.503906 L 330.980469 487.988281 C 330.980469 488.511719 330.566406 488.9375 330.039062 488.9375 L 321.625 488.949219 C 321.097656 488.949219 320.6875 488.53125 320.6875 488.007812 L 320.675781 482.523438 C 320.671875 482.003906 321.085938 481.578125 321.617188 481.578125 " fill-opacity="1" fill-rule="nonzero"/><path fill="#ffffff" d="M 334.816406 488.925781 C 334.285156 488.925781 333.871094 488.503906 333.871094 487.980469 L 333.859375 482.5 C 333.859375 481.980469 334.277344 481.554688 334.804688 481.554688 L 343.214844 481.539062 C 343.742188 481.539062 344.160156 481.960938 344.164062 482.480469 L 344.167969 487.96875 C 344.171875 488.492188 343.753906 488.910156 343.230469 488.910156 L 334.816406 488.925781 " fill-opacity="1" fill-rule="nonzero"/><path fill="#ffffff" d="M 347.988281 481.53125 L 356.410156 481.515625 C 356.925781 481.515625 357.351562 481.9375 357.351562 482.460938 L 357.363281 487.941406 C 357.363281 488.464844 356.941406 488.886719 356.421875 488.886719 L 348.003906 488.902344 C 347.484375 488.90625 347.066406 488.480469 347.066406 487.957031 L 347.054688 482.472656 C 347.054688 481.957031 347.472656 481.535156 347.988281 481.53125 " fill-opacity="1" fill-rule="nonzero"/><path fill="#ffffff" d="M 361.183594 481.511719 L 369.601562 481.492188 C 370.117188 481.492188 370.546875 481.910156 370.546875 482.433594 L 370.558594 487.917969 C 370.558594 488.441406 370.132812 488.867188 369.617188 488.867188 L 361.195312 488.882812 C 360.675781 488.882812 360.257812 488.460938 360.257812 487.9375 L 360.246094 482.449219 C 360.246094 481.929688 360.664062 481.511719 361.183594 481.511719 " fill-opacity="1" fill-rule="nonzero"/><path fill="#ffffff" d="M 374.375 481.484375 L 382.792969 481.472656 C 383.316406 481.472656 383.738281 481.890625 383.738281 482.410156 L 383.746094 487.894531 C 383.75 488.417969 383.328125 488.84375 382.808594 488.84375 L 374.382812 488.855469 C 373.871094 488.855469 373.445312 488.4375 373.445312 487.914062 L 373.433594 482.429688 C 373.433594 481.90625 373.859375 481.484375 374.375 481.484375 " fill-opacity="1" fill-rule="nonzero"/><path fill="#ffffff" d="M 387.566406 481.460938 L 395.976562 481.445312 C 396.507812 481.445312 396.925781 481.867188 396.925781 482.386719 L 396.9375 487.875 C 396.9375 488.398438 396.519531 488.816406 395.992188 488.816406 L 387.578125 488.832031 C 387.058594 488.832031 386.636719 488.417969 386.636719 487.894531 L 386.628906 482.40625 C 386.628906 481.886719 387.050781 481.460938 387.566406 481.460938 " fill-opacity="1" fill-rule="nonzero"/><path fill="#ffffff" d="M 400.761719 481.4375 L 409.171875 481.421875 C 409.695312 481.421875 410.117188 481.84375 410.117188 482.367188 L 410.125 487.851562 C 410.125 488.375 409.707031 488.792969 409.1875 488.792969 L 400.773438 488.8125 C 400.242188 488.8125 399.828125 488.394531 399.828125 487.871094 L 399.816406 482.382812 C 399.816406 481.863281 400.234375 481.4375 400.761719 481.4375 " fill-opacity="1" fill-rule="nonzero"/><path fill="#ffffff" d="M 413.945312 481.417969 L 422.367188 481.402344 C 422.890625 481.398438 423.304688 481.824219 423.304688 482.34375 L 423.316406 487.824219 C 423.320312 488.347656 422.898438 488.773438 422.382812 488.773438 L 413.960938 488.789062 C 413.441406 488.789062 413.027344 488.367188 413.023438 487.84375 L 413.011719 482.363281 C 413.011719 481.839844 413.429688 481.417969 413.945312 481.417969 " fill-opacity="1" fill-rule="nonzero"/><path fill="#ffffff" d="M 427.144531 481.394531 L 435.5625 481.378906 C 436.074219 481.378906 436.5 481.800781 436.503906 482.316406 L 436.515625 487.800781 C 436.515625 488.324219 436.089844 488.75 435.570312 488.75 L 427.15625 488.765625 C 426.636719 488.765625 426.210938 488.34375 426.210938 487.820312 L 426.203125 482.335938 C 426.203125 481.820312 426.621094 481.394531 427.144531 481.394531 " fill-opacity="1" fill-rule="nonzero"/><path fill="#ffffff" d="M 440.332031 481.367188 L 448.75 481.355469 C 449.269531 481.355469 449.695312 481.773438 449.695312 482.292969 L 449.703125 487.78125 C 449.710938 488.304688 449.277344 488.726562 448.765625 488.726562 L 440.339844 488.738281 C 439.828125 488.738281 439.40625 488.324219 439.40625 487.800781 L 439.394531 482.3125 C 439.390625 481.792969 439.816406 481.367188 440.332031 481.367188 " fill-opacity="1" fill-rule="nonzero"/><path fill="#ffffff" d="M 453.523438 481.34375 L 461.941406 481.328125 C 462.457031 481.328125 462.882812 481.75 462.882812 482.273438 L 462.894531 487.757812 C 462.894531 488.28125 462.472656 488.699219 461.953125 488.699219 L 453.539062 488.71875 C 453.015625 488.71875 452.589844 488.300781 452.589844 487.777344 L 452.582031 482.289062 C 452.582031 481.769531 453 481.347656 453.523438 481.34375 " fill-opacity="1" fill-rule="nonzero"/><path fill="#ffffff" d="M 465.789062 487.75 L 465.78125 482.269531 C 465.78125 481.746094 466.195312 481.324219 466.714844 481.324219 L 475.132812 481.308594 C 475.652344 481.308594 476.070312 481.730469 476.074219 482.25 L 476.082031 487.730469 C 476.082031 488.253906 475.664062 488.679688 475.144531 488.679688 L 466.730469 488.695312 C 466.210938 488.695312 465.789062 488.273438 465.789062 487.75 " fill-opacity="1" fill-rule="nonzero"/><path fill="#ffffff" d="M 488.339844 488.65625 L 479.917969 488.671875 C 479.398438 488.671875 478.984375 488.253906 478.980469 487.726562 L 478.96875 482.246094 C 478.96875 481.726562 479.386719 481.300781 479.902344 481.300781 L 488.324219 481.285156 C 488.847656 481.285156 489.261719 481.707031 489.261719 482.226562 L 489.273438 487.707031 C 489.273438 488.230469 488.855469 488.65625 488.339844 488.65625 " fill-opacity="1" fill-rule="nonzero"/><path fill="#ffffff" d="M 336.929688 478.996094 L 321.609375 479.019531 C 321.082031 479.019531 320.667969 478.605469 320.667969 478.082031 L 320.65625 472.589844 C 320.65625 472.074219 321.066406 471.648438 321.597656 471.648438 L 336.917969 471.621094 C 337.433594 471.621094 337.859375 472.046875 337.859375 472.558594 L 337.867188 478.050781 C 337.871094 478.574219 337.445312 478.992188 336.929688 478.996094 " fill-opacity="1" fill-rule="nonzero"/><path fill="#ffffff" d="M 350.117188 478.972656 L 341.707031 478.988281 C 341.183594 478.988281 340.769531 478.570312 340.761719 478.046875 L 340.753906 472.554688 C 340.753906 472.042969 341.167969 471.617188 341.691406 471.617188 L 350.101562 471.597656 C 350.625 471.597656 351.050781 472.023438 351.050781 472.535156 L 351.066406 478.027344 C 351.066406 478.550781 350.636719 478.972656 350.117188 478.972656 " fill-opacity="1" fill-rule="nonzero"/><path fill="#ffffff" d="M 363.3125 478.949219 L 354.90625 478.960938 C 354.378906 478.96875 353.957031 478.546875 353.957031 478.023438 L 353.949219 472.53125 C 353.949219 472.015625 354.367188 471.589844 354.890625 471.589844 L 363.300781 471.578125 C 363.816406 471.578125 364.246094 472.003906 364.246094 472.511719 L 364.257812 478.003906 C 364.257812 478.527344 363.832031 478.949219 363.3125 478.949219 " fill-opacity="1" fill-rule="nonzero"/><path fill="#ffffff" d="M 416.128906 478.855469 L 368.089844 478.941406 C 367.566406 478.941406 367.144531 478.523438 367.144531 478 L 367.132812 472.507812 C 367.132812 471.992188 367.554688 471.566406 368.078125 471.566406 L 416.113281 471.484375 C 416.632812 471.484375 417.054688 471.910156 417.054688 472.417969 L 417.0625 477.910156 C 417.0625 478.433594 416.648438 478.855469 416.128906 478.855469 " fill-opacity="1" fill-rule="nonzero"/><path fill="#ffffff" d="M 429.265625 478.835938 L 420.855469 478.851562 C 420.332031 478.851562 419.914062 478.429688 419.914062 477.90625 L 419.90625 472.414062 C 419.90625 471.898438 420.320312 471.472656 420.839844 471.472656 L 429.253906 471.460938 C 429.773438 471.460938 430.203125 471.886719 430.203125 472.398438 L 430.214844 477.890625 C 430.214844 478.414062 429.789062 478.832031 429.265625 478.835938 " fill-opacity="1" fill-rule="nonzero"/><path fill="#ffffff" d="M 442.464844 478.8125 L 434.054688 478.824219 C 433.527344 478.824219 433.105469 478.410156 433.101562 477.886719 L 433.089844 472.394531 C 433.089844 471.878906 433.511719 471.453125 434.039062 471.449219 L 442.449219 471.433594 C 442.96875 471.433594 443.394531 471.859375 443.394531 472.375 L 443.402344 477.867188 C 443.402344 478.390625 442.980469 478.8125 442.464844 478.8125 " fill-opacity="1" fill-rule="nonzero"/><path fill="#ffffff" d="M 455.652344 478.785156 L 447.238281 478.800781 C 446.714844 478.800781 446.289062 478.386719 446.289062 477.863281 L 446.28125 472.367188 C 446.28125 471.855469 446.699219 471.429688 447.230469 471.429688 L 455.636719 471.414062 C 456.164062 471.414062 456.578125 471.835938 456.578125 472.347656 L 456.585938 477.84375 C 456.585938 478.367188 456.175781 478.785156 455.652344 478.785156 " fill-opacity="1" fill-rule="nonzero"/><path fill="#ffffff" d="M 468.847656 478.761719 L 460.421875 478.777344 C 459.914062 478.78125 459.480469 478.359375 459.480469 477.835938 L 459.46875 472.34375 C 459.46875 471.835938 459.898438 471.40625 460.414062 471.40625 L 468.832031 471.390625 C 469.351562 471.390625 469.773438 471.816406 469.773438 472.324219 L 469.78125 477.824219 C 469.78125 478.347656 469.363281 478.761719 468.847656 478.761719 " fill-opacity="1" fill-rule="nonzero"/><path fill="#ffffff" d="M 488.324219 478.726562 L 473.617188 478.757812 C 473.097656 478.757812 472.671875 478.335938 472.671875 477.8125 L 472.660156 472.320312 C 472.660156 471.8125 473.089844 471.382812 473.601562 471.382812 L 488.308594 471.355469 C 488.828125 471.355469 489.242188 471.78125 489.242188 472.296875 L 489.257812 477.789062 C 489.257812 478.3125 488.835938 478.726562 488.324219 478.726562 " fill-opacity="1" fill-rule="nonzero"/><path fill="#393536" d="M 492.507812 538.292969 L 317.617188 538.601562 L 317.628906 542.308594 L 492.511719 542 L 492.507812 538.292969 " fill-opacity="1" fill-rule="nonzero"/><path fill="#7b7979" d="M 432.296875 432.320312 C 432.292969 430.464844 430.789062 428.96875 428.941406 428.96875 L 380.8125 429.058594 C 378.960938 429.058594 377.457031 430.5625 377.460938 432.414062 L 377.503906 456.945312 C 377.503906 458.804688 379.019531 460.300781 380.867188 460.296875 L 428.996094 460.214844 C 430.84375 460.210938 432.339844 458.710938 432.335938 456.847656 L 432.296875 432.320312 " fill-opacity="1" fill-rule="nonzero"/><path fill="#8e8c8c" d="M 430.847656 459.652344 C 431.746094 459.050781 432.335938 458.027344 432.335938 456.863281 L 432.335938 456.875 C 432.339844 458.039062 431.75 459.054688 430.847656 459.652344 " fill-opacity="1" fill-rule="nonzero"/><path fill="#5a5758" d="M 429.382812 460.191406 C 429.539062 459.792969 429.632812 459.363281 429.632812 458.914062 L 429.585938 434.378906 C 429.582031 432.53125 428.085938 431.035156 426.234375 431.035156 C 426.234375 431.035156 426.230469 431.035156 426.230469 431.035156 L 378.101562 431.117188 C 377.960938 431.117188 377.84375 431.140625 377.714844 431.15625 C 378.21875 429.933594 379.414062 429.082031 380.8125 429.078125 L 428.941406 428.992188 C 428.941406 428.992188 428.945312 428.992188 428.945312 428.992188 C 430.789062 428.992188 432.292969 430.484375 432.296875 432.335938 L 432.335938 456.863281 C 432.335938 458.027344 431.746094 459.050781 430.847656 459.652344 C 430.417969 459.9375 429.921875 460.125 429.382812 460.191406 " fill-opacity="1" fill-rule="nonzero"/><path fill="#403737" d="M 326.929688 332.894531 C 326.929688 332.894531 357.304688 361.207031 398.980469 366.742188 C 440.039062 372.191406 467.738281 360.507812 485.988281 347.761719 C 496.675781 340.296875 524.816406 312.980469 524.816406 312.980469 C 496.605469 271.179688 413.757812 253.433594 413.757812 253.433594 C 413.757812 253.433594 329.152344 248.953125 291.015625 281.933594 C 291.015625 281.933594 293.523438 300.335938 304.542969 313.179688 C 313.71875 323.882812 326.929688 332.894531 326.929688 332.894531 " fill-opacity="1" fill-rule="nonzero"/><path fill="#f79387" d="M 371.804688 299.238281 C 373.050781 305.636719 370.769531 311.472656 366.710938 312.269531 C 362.65625 313.0625 358.351562 308.511719 357.105469 302.109375 C 355.851562 295.707031 358.125 289.871094 362.191406 289.082031 C 366.246094 288.292969 370.546875 292.835938 371.804688 299.238281 " fill-opacity="1" fill-rule="nonzero"/><path fill="#f79387" d="M 450.804688 302.535156 C 449.023438 308.8125 450.800781 314.8125 454.78125 315.941406 C 458.761719 317.074219 463.421875 312.894531 465.207031 306.625 C 466.984375 300.34375 465.203125 294.34375 461.226562 293.214844 C 457.25 292.09375 452.585938 296.261719 450.804688 302.535156 " fill-opacity="1" fill-rule="nonzero"/><path fill="#f79387" d="M 455.824219 316.257812 C 454.972656 336.800781 435.203125 360.582031 408.820312 359.480469 C 385.28125 358.5 364.75 332.695312 365.585938 312.484375 L 366.785156 283.90625 C 367.816406 258.984375 388.871094 239.628906 413.785156 240.667969 C 438.703125 241.714844 458.058594 262.746094 457.023438 287.667969 L 455.824219 316.257812 " fill-opacity="1" fill-rule="nonzero"/><path fill="#ffffff" d="M 438.203125 304.777344 C 438.070312 307.863281 435.472656 310.253906 432.382812 310.128906 C 429.304688 310 426.902344 307.394531 427.039062 304.3125 C 427.164062 301.21875 429.761719 298.828125 432.851562 298.960938 C 435.9375 299.089844 438.335938 301.695312 438.203125 304.777344 " fill-opacity="1" fill-rule="nonzero"/><path fill="#4b1615" d="M 435.707031 304.671875 C 435.640625 306.378906 434.195312 307.703125 432.488281 307.632812 C 430.78125 307.554688 429.460938 306.121094 429.527344 304.414062 C 429.601562 302.707031 431.039062 301.382812 432.742188 301.457031 C 434.449219 301.527344 435.777344 302.972656 435.707031 304.671875 " fill-opacity="1" fill-rule="nonzero"/><path fill="#ffffff" d="M 432.796875 303.746094 C 432.765625 304.433594 432.191406 304.960938 431.503906 304.933594 C 430.820312 304.902344 430.285156 304.328125 430.316406 303.640625 C 430.34375 302.957031 430.929688 302.429688 431.601562 302.457031 C 432.289062 302.488281 432.824219 303.058594 432.796875 303.746094 " fill-opacity="1" fill-rule="nonzero"/><path fill="#4b1615" d="M 427.039062 304.3125 C 426.808594 302.835938 427.355469 301.195312 428.476562 300.046875 C 429.59375 298.878906 431.222656 298.226562 432.898438 298.289062 C 434.503906 298.355469 436.125 299.148438 437.113281 300.410156 C 438.140625 301.644531 438.558594 303.324219 438.203125 304.777344 C 437.984375 303.304688 437.316406 302.027344 436.347656 301.117188 C 435.363281 300.21875 434.132812 299.675781 432.804688 299.632812 C 431.550781 299.5625 430.226562 299.996094 429.191406 300.816406 C 428.144531 301.640625 427.371094 302.859375 427.039062 304.3125 " fill-opacity="1" fill-rule="nonzero"/><path fill="#ffffff" d="M 395.339844 302.992188 C 395.210938 306.074219 392.597656 308.46875 389.519531 308.335938 C 386.433594 308.210938 384.039062 305.609375 384.171875 302.523438 C 384.292969 299.441406 386.902344 297.039062 389.984375 297.171875 C 393.066406 297.300781 395.46875 299.90625 395.339844 302.992188 " fill-opacity="1" fill-rule="nonzero"/><path fill="#4b1615" d="M 392.839844 302.886719 C 392.769531 304.589844 391.328125 305.917969 389.621094 305.84375 C 387.921875 305.773438 386.585938 304.332031 386.664062 302.628906 C 386.730469 300.921875 388.175781 299.589844 389.882812 299.664062 C 391.589844 299.738281 392.90625 301.179688 392.839844 302.886719 " fill-opacity="1" fill-rule="nonzero"/><path fill="#ffffff" d="M 389.925781 301.960938 C 389.890625 302.644531 389.320312 303.171875 388.632812 303.148438 C 387.960938 303.113281 387.421875 302.542969 387.449219 301.855469 C 387.484375 301.171875 388.058594 300.644531 388.742188 300.667969 C 389.421875 300.695312 389.949219 301.273438 389.925781 301.960938 " fill-opacity="1" fill-rule="nonzero"/><path fill="#4b1615" d="M 384.171875 302.523438 C 383.9375 301.042969 384.496094 299.40625 385.609375 298.257812 C 386.722656 297.085938 388.355469 296.4375 390.027344 296.503906 C 391.632812 296.574219 393.261719 297.355469 394.25 298.625 C 395.261719 299.855469 395.683594 301.535156 395.332031 302.992188 C 395.121094 301.515625 394.453125 300.242188 393.476562 299.324219 C 392.5 298.421875 391.261719 297.882812 389.9375 297.839844 C 388.683594 297.773438 387.359375 298.203125 386.320312 299.027344 C 385.273438 299.855469 384.511719 301.074219 384.171875 302.523438 " fill-opacity="1" fill-rule="nonzero"/><path fill="#4b1615" d="M 458.511719 287.554688 C 459.511719 263.546875 441.945312 243.078125 418.574219 239.988281 L 414.152344 239.625 L 410.726562 239.621094 C 386.945312 240.5 367.464844 259.53125 366.453125 283.710938 L 365.527344 305.785156 L 365.601562 305.8125 C 365.601562 305.8125 372.503906 307.0625 372.75 301.285156 C 372.75 301.285156 371.121094 278.316406 381.570312 267.792969 C 386.785156 262.535156 400.085938 260.347656 413.265625 260.90625 C 426.445312 261.453125 439.515625 264.742188 444.285156 270.414062 C 453.820312 281.761719 450.277344 304.515625 450.277344 304.515625 C 450.042969 310.292969 457.019531 309.628906 457.019531 309.628906 C 457.214844 309.597656 457.410156 309.5 457.59375 309.390625 L 458.511719 287.554688 " fill-opacity="1" fill-rule="nonzero"/><path fill="#4b1615" d="M 445.472656 253.5 C 445.472656 253.5 436.65625 238.484375 414.488281 237.5625 C 392.316406 236.636719 384.253906 243.835938 376.28125 238.019531 C 376.28125 238.019531 380.257812 246.921875 386.089844 247.875 C 386.089844 247.875 371.703125 249.242188 366.433594 244.234375 C 366.433594 244.234375 368.621094 269.878906 411.515625 271.667969 C 428.035156 272.359375 444.917969 266.675781 445.472656 253.5 " fill-opacity="1" fill-rule="nonzero"/><path fill="#4b1615" d="M 457.109375 287.667969 L 456.851562 293.960938 C 458.324219 293.105469 459.859375 292.808594 461.320312 293.21875 L 461.367188 293.234375 L 461.390625 293.222656 C 461.390625 293.222656 465.984375 261.816406 443.851562 251.191406 C 442.046875 250.328125 439.9375 249.445312 437.617188 248.609375 C 449.949219 257.125 457.785156 271.589844 457.109375 287.667969 " fill-opacity="1" fill-rule="nonzero"/><path fill="#4b1615" d="M 362.195312 289.109375 L 362.28125 289.085938 C 363.746094 288.804688 365.238281 289.222656 366.613281 290.15625 L 366.875 283.90625 C 367.476562 269.609375 374.660156 257.152344 385.382812 249.320312 C 385.042969 249.460938 384.699219 249.597656 384.378906 249.734375 C 361.769531 259.296875 362.15625 289.082031 362.15625 289.082031 L 362.195312 289.109375 " fill-opacity="1" fill-rule="nonzero"/><path fill="#770f19" d="M 394.246094 330.636719 C 396.394531 338.066406 402.554688 343.5625 410.046875 343.875 C 417.550781 344.191406 424.136719 339.21875 426.90625 332 L 394.246094 330.636719 " fill-opacity="1" fill-rule="nonzero"/><path fill="#f14273" d="M 410.0625 343.875 C 413.597656 344.019531 416.941406 342.972656 419.769531 341.074219 C 417.054688 340.175781 413.785156 339.578125 410.238281 339.441406 C 406.695312 339.292969 403.390625 339.632812 400.609375 340.3125 C 403.277344 342.425781 406.515625 343.738281 410.0625 343.875 " fill-opacity="1" fill-rule="nonzero"/><path fill="#ffffff" d="M 394.40625 330.640625 C 396.257812 335.292969 404.28125 335.625 410.429688 335.882812 C 416.59375 336.140625 425.242188 335.351562 426.84375 331.996094 L 394.40625 330.640625 " fill-opacity="1" fill-rule="nonzero"/><g clip-path="url(#b83dff87bd)"><g clip-path="url(#c307d61fc5)"><path fill="#cc716d" d="M 407.113281 322.410156 L 414.769531 322.410156 L 414.769531 295.214844 L 407.113281 295.214844 Z M 407.113281 322.410156 " fill-opacity="1" fill-rule="nonzero"/></g></g><path fill="#4b1615" d="M 444.425781 295.121094 C 443.027344 294.246094 441.535156 293.535156 440.011719 293.082031 C 438.496094 292.597656 436.964844 292.324219 435.476562 292.285156 C 434.695312 292.265625 433.953125 292.40625 433.21875 292.554688 C 432.53125 292.691406 431.847656 292.828125 431.152344 292.824219 C 430.429688 292.863281 429.675781 292.890625 428.859375 292.890625 C 428.042969 292.910156 427.191406 292.921875 426.1875 292.824219 L 425.992188 292.46875 C 426.917969 290.675781 428.527344 289.535156 430.320312 288.886719 C 432.140625 288.195312 434.15625 288.664062 435.933594 289.101562 C 437.742188 289.519531 439.421875 290.289062 440.894531 291.273438 C 442.351562 292.304688 443.683594 293.4375 444.703125 294.84375 L 444.425781 295.121094 " fill-opacity="1" fill-rule="nonzero"/><path fill="#4b1615" d="M 378.433594 292.078125 C 379.574219 290.757812 380.992188 289.734375 382.523438 288.835938 C 384.085938 287.980469 385.8125 287.355469 387.660156 287.085938 C 389.460938 286.800781 391.515625 286.496094 393.265625 287.34375 C 395 288.136719 396.511719 289.402344 397.277344 291.273438 L 397.0625 291.597656 C 396.050781 291.613281 395.199219 291.539062 394.390625 291.453125 C 393.582031 291.378906 392.832031 291.292969 392.109375 291.195312 C 390.679688 291.082031 389.363281 290.386719 387.839844 290.296875 C 386.359375 290.214844 384.808594 290.363281 383.253906 290.714844 C 381.703125 291.042969 380.160156 291.628906 378.699219 292.386719 L 378.433594 292.078125 " fill-opacity="1" fill-rule="nonzero"/><path fill="#fbc5bb" d="M 387.3125 320.304688 C 383.667969 320.304688 381.21875 319.953125 379.421875 319.355469 C 377.199219 318.535156 375.328125 317.144531 373.875 314.894531 C 373.375 314.125 372.953125 313.410156 372.59375 312.738281 C 371.597656 310.519531 370.796875 307.769531 370.269531 305.308594 C 371.570312 304.691406 372.65625 303.515625 372.75 301.285156 C 372.75 301.285156 372.542969 298.4375 372.738281 294.289062 C 374.007812 293.492188 375.789062 292.945312 378.28125 292.941406 C 382.84375 292.929688 391.53125 292.914062 396.324219 292.90625 C 396.335938 292.90625 396.34375 292.90625 396.347656 292.90625 C 402.0625 292.90625 404.875 296.515625 404.652344 301.828125 C 404.488281 303.234375 404.171875 305.007812 403.71875 306.835938 C 402.957031 309.625 402.257812 311.6875 400.269531 314.789062 C 397.433594 319.214844 392.96875 320.292969 387.417969 320.304688 C 387.382812 320.304688 387.347656 320.304688 387.3125 320.304688 M 384.171875 302.523438 C 384.039062 305.609375 386.433594 308.210938 389.519531 308.335938 C 389.597656 308.34375 389.679688 308.34375 389.757812 308.34375 C 392.734375 308.34375 395.210938 305.988281 395.339844 302.992188 C 395.339844 302.976562 395.339844 302.960938 395.339844 302.945312 C 395.675781 301.503906 395.253906 299.847656 394.25 298.625 C 393.261719 297.355469 391.632812 296.574219 390.027344 296.503906 C 389.949219 296.5 389.867188 296.5 389.789062 296.5 C 388.203125 296.5 386.671875 297.140625 385.609375 298.257812 C 384.496094 299.40625 383.9375 301.042969 384.171875 302.523438 " fill-opacity="1" fill-rule="nonzero"/><path fill="#ffffff" d="M 389.757812 308.34375 C 389.679688 308.34375 389.597656 308.34375 389.519531 308.335938 C 386.433594 308.210938 384.039062 305.609375 384.171875 302.523438 C 384.511719 301.074219 385.273438 299.855469 386.320312 299.027344 C 387.289062 298.261719 388.507812 297.835938 389.6875 297.835938 C 389.769531 297.835938 389.851562 297.835938 389.9375 297.839844 C 391.261719 297.882812 392.5 298.421875 393.476562 299.324219 C 394.453125 300.242188 395.121094 301.515625 395.332031 302.992188 C 395.335938 302.976562 395.335938 302.960938 395.339844 302.945312 C 395.339844 302.960938 395.339844 302.976562 395.339844 302.992188 C 395.210938 305.988281 392.734375 308.34375 389.757812 308.34375 M 389.746094 299.664062 C 388.101562 299.664062 386.726562 300.964844 386.664062 302.628906 C 386.585938 304.332031 387.921875 305.773438 389.621094 305.84375 C 389.667969 305.847656 389.710938 305.847656 389.757812 305.847656 C 391.402344 305.847656 392.769531 304.546875 392.839844 302.886719 C 392.90625 301.179688 391.589844 299.738281 389.882812 299.664062 C 389.832031 299.664062 389.789062 299.664062 389.746094 299.664062 " fill-opacity="1" fill-rule="nonzero"/><path fill="#905e54" d="M 389.757812 305.847656 C 389.710938 305.847656 389.667969 305.847656 389.621094 305.84375 C 387.921875 305.773438 386.585938 304.332031 386.664062 302.628906 C 386.726562 300.964844 388.101562 299.664062 389.746094 299.664062 C 389.789062 299.664062 389.832031 299.664062 389.882812 299.664062 C 391.589844 299.738281 392.90625 301.179688 392.839844 302.886719 C 392.769531 304.546875 391.402344 305.847656 389.757812 305.847656 M 388.6875 300.667969 C 388.027344 300.667969 387.484375 301.1875 387.449219 301.855469 C 387.421875 302.542969 387.960938 303.113281 388.632812 303.148438 C 388.648438 303.148438 388.667969 303.148438 388.683594 303.148438 C 389.347656 303.148438 389.890625 302.628906 389.925781 301.960938 C 389.949219 301.273438 389.421875 300.695312 388.742188 300.667969 C 388.722656 300.667969 388.707031 300.667969 388.6875 300.667969 " fill-opacity="1" fill-rule="nonzero"/><path fill="#ffffff" d="M 388.683594 303.148438 C 388.667969 303.148438 388.648438 303.148438 388.632812 303.148438 C 387.960938 303.113281 387.421875 302.542969 387.449219 301.855469 C 387.484375 301.1875 388.027344 300.667969 388.6875 300.667969 C 388.707031 300.667969 388.722656 300.667969 388.742188 300.667969 C 389.421875 300.695312 389.949219 301.273438 389.925781 301.960938 C 389.890625 302.628906 389.347656 303.148438 388.683594 303.148438 " fill-opacity="1" fill-rule="nonzero"/><path fill="#905e54" d="M 395.332031 302.992188 C 395.121094 301.515625 394.453125 300.242188 393.476562 299.324219 C 392.5 298.421875 391.261719 297.882812 389.9375 297.839844 C 389.851562 297.835938 389.769531 297.835938 389.6875 297.835938 C 388.507812 297.835938 387.289062 298.261719 386.320312 299.027344 C 385.273438 299.855469 384.511719 301.074219 384.171875 302.523438 C 383.9375 301.042969 384.496094 299.40625 385.609375 298.257812 C 386.671875 297.140625 388.203125 296.5 389.789062 296.5 C 389.867188 296.5 389.949219 296.5 390.027344 296.503906 C 391.632812 296.574219 393.261719 297.355469 394.25 298.625 C 395.253906 299.847656 395.675781 301.503906 395.339844 302.945312 C 395.335938 302.960938 395.335938 302.976562 395.332031 302.992188 " fill-opacity="1" fill-rule="nonzero"/><path fill="#905e54" d="M 370.269531 305.308594 C 369.824219 303.210938 369.574219 301.324219 369.578125 300.160156 C 369.578125 299.792969 369.574219 296.277344 372.738281 294.289062 C 372.542969 298.4375 372.75 301.285156 372.75 301.285156 C 372.65625 303.515625 371.570312 304.691406 370.269531 305.308594 " fill-opacity="1" fill-rule="nonzero"/><path fill="#1a1310" d="M 448.453125 315.800781 C 446.152344 318.324219 444.113281 320.203125 435.589844 320.21875 C 430.046875 320.226562 425.5625 319.160156 422.714844 314.75 C 420.429688 311.21875 419.835938 309.027344 418.902344 305.582031 C 418.171875 302.863281 418.082031 300.402344 418.613281 298.394531 C 419.507812 294.988281 422.183594 292.863281 426.582031 292.855469 C 431.382812 292.847656 440.0625 292.832031 444.625 292.824219 C 453.339844 292.808594 453.347656 299.5 453.355469 300.015625 C 453.378906 303.339844 451.363281 312.605469 448.453125 315.800781 M 416.378906 296.398438 L 406.539062 296.414062 C 405.46875 296.417969 405.003906 295.667969 404.804688 295.320312 C 404.804688 295.320312 403.972656 293.855469 403.625 293.140625 C 403.421875 292.734375 403.476562 292.179688 404.425781 292.179688 L 418.480469 292.15625 C 419.425781 292.15625 419.476562 292.703125 419.28125 293.109375 C 418.9375 293.824219 418.113281 295.296875 418.113281 295.296875 C 417.914062 295.644531 417.453125 296.394531 416.378906 296.398438 M 404.050781 305.609375 C 403.128906 309.0625 402.542969 311.253906 400.269531 314.789062 C 397.433594 319.214844 392.96875 320.292969 387.417969 320.304688 C 378.898438 320.320312 376.839844 318.449219 374.535156 315.933594 C 371.613281 312.75 369.570312 303.484375 369.578125 300.160156 C 369.582031 299.644531 369.5625 292.953125 378.28125 292.941406 C 382.84375 292.929688 391.53125 292.914062 396.324219 292.90625 C 403.324219 292.894531 405.988281 298.285156 404.050781 305.609375 M 458.171875 293.453125 C 455.257812 291.460938 450.105469 289.917969 445.738281 289.925781 C 440.683594 289.929688 431.265625 289.949219 425.613281 289.960938 C 425.390625 289.960938 425.15625 289.960938 424.933594 289.960938 L 397.96875 290.011719 C 397.808594 290.011719 397.640625 290.011719 397.464844 290.011719 C 391.851562 290.019531 382.265625 290.035156 377.152344 290.042969 C 372.792969 290.054688 367.636719 291.617188 364.742188 293.613281 C 364.347656 293.878906 364.289062 294.070312 364.289062 294.636719 C 364.289062 295.082031 364.289062 296.09375 364.296875 296.503906 C 364.296875 296.832031 364.441406 297.382812 364.921875 297.382812 C 365.148438 297.382812 365.796875 297.375 366.234375 297.375 C 366.800781 297.375 367.125 297.703125 367.117188 298.300781 C 367.113281 302.097656 369.472656 313.140625 372.835938 316.78125 C 375.5 319.65625 377.871094 321.792969 387.691406 321.773438 C 394.09375 321.761719 399.242188 320.527344 402.519531 315.472656 C 405.132812 311.4375 405.816406 308.460938 406.867188 304.523438 C 407.460938 302.304688 407.675781 300.242188 407.542969 298.414062 L 415.390625 298.398438 C 415.253906 300.226562 415.476562 302.292969 416.078125 304.503906 C 417.152344 308.441406 417.835938 311.414062 420.472656 315.4375 C 423.753906 320.480469 428.917969 321.699219 435.320312 321.691406 C 445.140625 321.675781 447.496094 319.535156 450.148438 316.640625 C 453.5 312.992188 455.835938 301.941406 455.800781 298.148438 C 455.796875 297.550781 456.128906 297.21875 456.691406 297.21875 C 457.128906 297.21875 457.777344 297.214844 458 297.214844 C 458.476562 297.214844 458.628906 296.660156 458.628906 296.339844 C 458.628906 295.929688 458.628906 294.914062 458.628906 294.46875 C 458.628906 293.902344 458.5625 293.710938 458.171875 293.453125 " fill-opacity="1" fill-rule="nonzero"/><path fill="#fbc5bb" d="M 435.523438 320.214844 C 430.007812 320.214844 425.546875 319.140625 422.714844 314.75 C 420.433594 311.222656 419.835938 309.035156 418.90625 305.601562 C 418.90625 305.597656 418.902344 305.589844 418.902344 305.582031 C 418.480469 304.007812 418.273438 302.523438 418.273438 301.160156 C 418.277344 300.179688 418.382812 299.257812 418.605469 298.417969 C 418.609375 298.40625 418.609375 298.398438 418.613281 298.394531 C 419.507812 294.992188 422.179688 292.867188 426.570312 292.855469 C 427.0625 292.890625 427.523438 292.902344 427.957031 292.902344 C 428.265625 292.902344 428.566406 292.894531 428.859375 292.890625 C 429.484375 292.890625 430.066406 292.871094 430.632812 292.847656 C 433.328125 292.84375 436.386719 292.835938 439.15625 292.832031 C 439.441406 292.90625 439.722656 292.992188 440.011719 293.082031 C 441.535156 293.535156 443.027344 294.246094 444.425781 295.121094 L 444.703125 294.84375 C 444.167969 294.105469 443.539062 293.4375 442.859375 292.828125 C 443.496094 292.824219 444.089844 292.824219 444.625 292.824219 C 444.632812 292.824219 444.644531 292.824219 444.65625 292.824219 C 447.664062 292.824219 449.632812 293.625 450.917969 294.695312 C 450.921875 300.351562 450.277344 304.515625 450.277344 304.515625 C 450.199219 306.417969 450.902344 307.625 451.882812 308.382812 C 451.023438 311.363281 449.839844 314.273438 448.453125 315.800781 C 446.152344 318.320312 444.113281 320.199219 435.589844 320.214844 C 435.566406 320.214844 435.542969 320.214844 435.523438 320.214844 M 427.039062 304.3125 C 426.902344 307.394531 429.304688 310 432.382812 310.128906 C 432.464844 310.132812 432.542969 310.132812 432.621094 310.132812 C 435.605469 310.132812 438.074219 307.78125 438.203125 304.777344 C 438.558594 303.324219 438.140625 301.644531 437.113281 300.410156 C 436.125 299.148438 434.503906 298.355469 432.898438 298.289062 C 432.820312 298.289062 432.746094 298.285156 432.667969 298.285156 C 431.078125 298.285156 429.542969 298.929688 428.476562 300.046875 C 427.355469 301.195312 426.808594 302.835938 427.039062 304.3125 " fill-opacity="1" fill-rule="nonzero"/><path fill="#ffffff" d="M 432.621094 310.132812 C 432.542969 310.132812 432.464844 310.132812 432.382812 310.128906 C 429.304688 310 426.902344 307.394531 427.039062 304.3125 C 427.371094 302.859375 428.144531 301.640625 429.191406 300.816406 C 430.160156 300.050781 431.375 299.625 432.550781 299.625 C 432.636719 299.625 432.722656 299.625 432.804688 299.632812 C 434.132812 299.675781 435.363281 300.21875 436.347656 301.117188 C 437.316406 302.027344 437.984375 303.304688 438.203125 304.777344 C 438.074219 307.78125 435.605469 310.132812 432.621094 310.132812 M 432.609375 301.449219 C 430.96875 301.449219 429.601562 302.757812 429.527344 304.414062 C 429.460938 306.121094 430.78125 307.554688 432.488281 307.632812 C 432.53125 307.632812 432.578125 307.632812 432.621094 307.632812 C 434.269531 307.632812 435.640625 306.335938 435.707031 304.671875 C 435.777344 302.972656 434.449219 301.527344 432.742188 301.457031 C 432.699219 301.449219 432.65625 301.449219 432.609375 301.449219 " fill-opacity="1" fill-rule="nonzero"/><path fill="#905e54" d="M 432.621094 307.632812 C 432.578125 307.632812 432.53125 307.632812 432.488281 307.632812 C 430.78125 307.554688 429.460938 306.121094 429.527344 304.414062 C 429.601562 302.757812 430.96875 301.449219 432.609375 301.449219 C 432.65625 301.449219 432.699219 301.449219 432.742188 301.457031 C 434.449219 301.527344 435.777344 302.972656 435.707031 304.671875 C 435.640625 306.335938 434.269531 307.632812 432.621094 307.632812 M 431.550781 302.457031 C 430.894531 302.457031 430.34375 302.976562 430.316406 303.640625 C 430.285156 304.328125 430.820312 304.902344 431.503906 304.933594 C 431.523438 304.933594 431.542969 304.933594 431.5625 304.933594 C 432.222656 304.933594 432.765625 304.414062 432.796875 303.746094 C 432.824219 303.058594 432.289062 302.488281 431.601562 302.457031 C 431.582031 302.457031 431.570312 302.457031 431.550781 302.457031 " fill-opacity="1" fill-rule="nonzero"/><path fill="#ffffff" d="M 431.5625 304.933594 C 431.542969 304.933594 431.523438 304.933594 431.503906 304.933594 C 430.820312 304.902344 430.285156 304.328125 430.316406 303.640625 C 430.34375 302.976562 430.894531 302.457031 431.550781 302.457031 C 431.570312 302.457031 431.582031 302.457031 431.601562 302.457031 C 432.289062 302.488281 432.824219 303.058594 432.796875 303.746094 C 432.765625 304.414062 432.222656 304.933594 431.5625 304.933594 " fill-opacity="1" fill-rule="nonzero"/><path fill="#905e54" d="M 438.203125 304.777344 C 437.984375 303.304688 437.316406 302.027344 436.347656 301.117188 C 435.363281 300.21875 434.132812 299.675781 432.804688 299.632812 C 432.722656 299.625 432.636719 299.625 432.550781 299.625 C 431.375 299.625 430.160156 300.050781 429.191406 300.816406 C 428.144531 301.640625 427.371094 302.859375 427.039062 304.3125 C 426.808594 302.835938 427.355469 301.195312 428.476562 300.046875 C 429.542969 298.929688 431.078125 298.285156 432.667969 298.285156 C 432.746094 298.285156 432.820312 298.289062 432.898438 298.289062 C 434.503906 298.355469 436.125 299.148438 437.113281 300.410156 C 438.140625 301.644531 438.558594 303.324219 438.203125 304.777344 " fill-opacity="1" fill-rule="nonzero"/><path fill="#905e54" d="M 451.882812 308.382812 C 450.902344 307.625 450.199219 306.417969 450.277344 304.515625 C 450.277344 304.515625 450.921875 300.351562 450.917969 294.695312 C 453.34375 296.710938 453.355469 299.679688 453.355469 300.015625 C 453.355469 300.03125 453.355469 300.050781 453.355469 300.070312 C 453.355469 301.828125 452.8125 305.148438 451.882812 308.382812 " fill-opacity="1" fill-rule="nonzero"/><path fill="#905e54" d="M 444.425781 295.121094 C 443.027344 294.246094 441.535156 293.535156 440.011719 293.082031 C 439.722656 292.992188 439.441406 292.90625 439.15625 292.832031 C 440.484375 292.832031 441.738281 292.828125 442.859375 292.828125 C 443.539062 293.4375 444.167969 294.105469 444.703125 294.84375 L 444.425781 295.121094 M 427.957031 292.902344 C 427.523438 292.902344 427.0625 292.890625 426.570312 292.855469 C 426.574219 292.855469 426.578125 292.855469 426.582031 292.855469 C 427.742188 292.851562 429.132812 292.851562 430.632812 292.847656 C 430.066406 292.871094 429.484375 292.890625 428.859375 292.890625 C 428.566406 292.894531 428.265625 292.902344 427.957031 292.902344 " fill-opacity="1" fill-rule="nonzero"/><path fill="#6d625e" d="M 418.90625 305.601562 C 418.90625 305.597656 418.902344 305.589844 418.902344 305.582031 C 418.902344 305.589844 418.90625 305.597656 418.90625 305.601562 M 418.273438 301.160156 C 418.277344 300.179688 418.382812 299.257812 418.605469 298.417969 C 418.382812 299.257812 418.277344 300.179688 418.273438 301.160156 M 453.355469 300.070312 C 453.355469 300.050781 453.355469 300.03125 453.355469 300.015625 C 453.355469 299.679688 453.34375 296.710938 450.917969 294.695312 C 449.632812 293.625 447.664062 292.824219 444.65625 292.824219 C 444.644531 292.824219 444.632812 292.824219 444.625 292.824219 C 444.089844 292.824219 443.496094 292.824219 442.859375 292.828125 C 441.738281 292.828125 440.484375 292.832031 439.15625 292.832031 C 436.386719 292.835938 433.328125 292.84375 430.632812 292.847656 C 429.132812 292.851562 427.742188 292.851562 426.582031 292.855469 C 426.578125 292.855469 426.574219 292.855469 426.570312 292.855469 C 422.179688 292.867188 419.507812 294.992188 418.613281 298.394531 C 419.507812 294.988281 422.183594 292.855469 426.582031 292.847656 C 431.382812 292.835938 440.0625 292.824219 444.625 292.816406 C 444.632812 292.816406 444.644531 292.816406 444.65625 292.816406 C 453.339844 292.816406 453.347656 299.492188 453.355469 300.011719 C 453.355469 300.03125 453.355469 300.050781 453.355469 300.070312 " fill-opacity="1" fill-rule="nonzero"/><path fill="#413835" d="M 410.011719 290.984375 L 392.832031 290.984375 L 384.234375 290.953125 L 375.648438 290.890625 L 384.234375 290.808594 L 392.828125 290.753906 L 410.011719 290.691406 L 427.199219 290.691406 L 435.796875 290.71875 L 444.386719 290.773438 L 435.796875 290.867188 L 427.199219 290.917969 L 410.011719 290.984375 " fill-opacity="1" fill-rule="nonzero"/><path fill="#f79387" d="M 316.320312 410.058594 C 316.320312 410.058594 308.792969 415.039062 310.292969 424.816406 C 311.816406 434.585938 324.953125 449.535156 334.292969 446.359375 C 334.292969 446.359375 339.839844 441.109375 333.605469 432.050781 C 327.378906 422.992188 330.582031 422.738281 332.742188 423.675781 C 334.902344 424.617188 337.15625 425.105469 336.71875 422.019531 C 336.289062 418.933594 330.042969 408.460938 316.320312 410.058594 " fill-opacity="1" fill-rule="nonzero"/><path fill="#d3d2d2" d="M 326.273438 403.632812 L 305.265625 409.914062 L 307.78125 418.316406 L 328.773438 412.03125 L 326.273438 403.632812 " fill-opacity="1" fill-rule="nonzero"/><path fill="#2a2322" d="M 328.171875 403.363281 L 303.054688 410.964844 L 282.625 305.921875 L 330.554688 333.148438 L 328.171875 403.363281 " fill-opacity="1" fill-rule="nonzero"/><path fill="#352e2c" d="M 289.449219 321.179688 C 279.695312 306.832031 279.234375 294.53125 291.015625 281.933594 C 297.4375 275.082031 313.503906 284.988281 323.351562 299.273438 C 333.199219 313.566406 335.871094 334.402344 329.992188 335.644531 C 314.921875 338.832031 297.726562 333.371094 289.449219 321.179688 " fill-opacity="1" fill-rule="nonzero"/><path fill="#352e2c" d="M 525.964844 331.953125 L 491.671875 428.484375 L 464.484375 415.25 L 474.261719 330.167969 L 525.964844 331.953125 " fill-opacity="1" fill-rule="nonzero"/><path fill="#f79387" d="M 403.382812 448.789062 C 403.382812 448.789062 404.332031 457.773438 395.832031 462.828125 C 387.328125 467.867188 367.429688 467.242188 363.933594 458.019531 C 363.933594 458.019531 364.464844 450.398438 375.421875 449.449219 C 386.371094 448.488281 384.535156 445.859375 382.4375 444.789062 C 380.347656 443.722656 378.53125 442.292969 381.179688 440.664062 C 383.84375 439.035156 395.894531 437.1875 403.382812 448.789062 " fill-opacity="1" fill-rule="nonzero"/><path fill="#d3d2d2" d="M 402.023438 437.03125 L 410.535156 457.234375 L 402.449219 460.640625 L 393.949219 440.433594 L 402.023438 437.03125 " fill-opacity="1" fill-rule="nonzero"/><path fill="#352e2c" d="M 491.769531 428.527344 L 410.234375 458.816406 L 400.429688 435.152344 L 476.355469 401.300781 L 491.769531 428.527344 " fill-opacity="1" fill-rule="nonzero"/><path fill="#352e2c" d="M 520.5 342.496094 C 529.804688 327.847656 529.878906 315.53125 517.714844 303.320312 C 511.085938 296.65625 486.566406 304.066406 477.164062 318.65625 C 467.765625 333.238281 480.527344 354.515625 486.441406 355.582031 C 501.609375 358.296875 512.59375 354.929688 520.5 342.496094 " fill-opacity="1" fill-rule="nonzero"/><g fill="#21485c" fill-opacity="1"><g transform="translate(121.211318, 624.781792)"><g><path d="M 125.6875 -383.453125 C 113.476562 -337.441406 107.375 -280.914062 107.375 -213.875 C 107.375 -146.84375 113.476562 -90.316406 125.6875 -44.296875 C 137.90625 1.710938 152.675781 36.785156 170 60.921875 C 187.320312 85.066406 211.320312 109.921875 242 135.484375 L 240.296875 149.96875 C 107.367188 74.988281 40.90625 -46.289062 40.90625 -213.875 C 40.90625 -381.46875 107.367188 -502.472656 240.296875 -576.890625 L 242 -563.25 C 211.320312 -537.125 187.320312 -512.128906 170 -488.265625 C 152.675781 -464.410156 137.90625 -429.472656 125.6875 -383.453125 Z M 125.6875 -383.453125 "/></g></g></g><g fill="#21485c" fill-opacity="1"><g transform="translate(404.969191, 624.781792)"><g><path d="M 158.0625 -42.59375 C 170.28125 -88.613281 176.390625 -145.140625 176.390625 -212.171875 C 176.390625 -279.210938 170.28125 -335.738281 158.0625 -381.75 C 145.851562 -427.769531 131.082031 -462.847656 113.75 -486.984375 C 96.425781 -511.128906 72.425781 -535.984375 41.75 -561.546875 L 43.453125 -576.03125 C 176.390625 -501.050781 242.859375 -379.625 242.859375 -211.75 C 242.859375 -43.882812 176.390625 76.972656 43.453125 150.828125 L 41.75 137.1875 C 72.425781 111.0625 96.425781 86.066406 113.75 62.203125 C 131.082031 38.347656 145.851562 3.414062 158.0625 -42.59375 Z M 158.0625 -42.59375 "/></g></g></g></svg>