<svg xmlns="http://www.w3.org/2000/svg" xmlns:xlink="http://www.w3.org/1999/xlink" width="500" zoomAndPan="magnify" viewBox="0 0 375 374.999991" height="500" preserveAspectRatio="xMidYMid meet" version="1.0"><defs><clipPath id="0480d877c9"><path d="M 37.5 34.695312 L 342.75 34.695312 L 342.75 339.945312 L 37.5 339.945312 Z M 37.5 34.695312 " clip-rule="nonzero"/></clipPath><clipPath id="6a4d9e2c58"><path d="M 37.5 109.695312 L 37.5 265.304688 C 37.5 306.726562 71.078125 340.304688 112.5 340.304688 L 268.109375 340.304688 C 309.527344 340.304688 343.109375 306.726562 343.109375 265.304688 L 343.109375 109.695312 C 343.109375 68.273438 309.527344 34.695312 268.109375 34.695312 L 112.5 34.695312 C 71.078125 34.695312 37.5 68.273438 37.5 109.695312 Z M 37.5 109.695312 " clip-rule="nonzero"/></clipPath><clipPath id="200cbbbe9f"><path d="M 166 177 L 215 177 L 215 227 L 166 227 Z M 166 177 " clip-rule="nonzero"/></clipPath><clipPath id="ce6550a714"><path d="M 37.5 109.695312 L 37.5 265.304688 C 37.5 306.726562 71.078125 340.304688 112.5 340.304688 L 268.109375 340.304688 C 309.527344 340.304688 343.109375 306.726562 343.109375 265.304688 L 343.109375 109.695312 C 343.109375 68.273438 309.527344 34.695312 268.109375 34.695312 L 112.5 34.695312 C 71.078125 34.695312 37.5 68.273438 37.5 109.695312 Z M 37.5 109.695312 " clip-rule="nonzero"/></clipPath><clipPath id="52a53a626e"><path d="M 154 185 L 226 185 L 226 229 L 154 229 Z M 154 185 " clip-rule="nonzero"/></clipPath><clipPath id="f755af0110"><path d="M 37.5 109.695312 L 37.5 265.304688 C 37.5 306.726562 71.078125 340.304688 112.5 340.304688 L 268.109375 340.304688 C 309.527344 340.304688 343.109375 306.726562 343.109375 265.304688 L 343.109375 109.695312 C 343.109375 68.273438 309.527344 34.695312 268.109375 34.695312 L 112.5 34.695312 C 71.078125 34.695312 37.5 68.273438 37.5 109.695312 Z M 37.5 109.695312 " clip-rule="nonzero"/></clipPath><clipPath id="ac8ab040ff"><path d="M 123 111 L 186 111 L 186 134 L 123 134 Z M 123 111 " clip-rule="nonzero"/></clipPath><clipPath id="1e7817f7b0"><path d="M 37.5 109.695312 L 37.5 265.304688 C 37.5 306.726562 71.078125 340.304688 112.5 340.304688 L 268.109375 340.304688 C 309.527344 340.304688 343.109375 306.726562 343.109375 265.304688 L 343.109375 109.695312 C 343.109375 68.273438 309.527344 34.695312 268.109375 34.695312 L 112.5 34.695312 C 71.078125 34.695312 37.5 68.273438 37.5 109.695312 Z M 37.5 109.695312 " clip-rule="nonzero"/></clipPath><clipPath id="016ed5c78f"><path d="M 195 111 L 258 111 L 258 134 L 195 134 Z M 195 111 " clip-rule="nonzero"/></clipPath><clipPath id="325e46076c"><path d="M 37.5 109.695312 L 37.5 265.304688 C 37.5 306.726562 71.078125 340.304688 112.5 340.304688 L 268.109375 340.304688 C 309.527344 340.304688 343.109375 306.726562 343.109375 265.304688 L 343.109375 109.695312 C 343.109375 68.273438 309.527344 34.695312 268.109375 34.695312 L 112.5 34.695312 C 71.078125 34.695312 37.5 68.273438 37.5 109.695312 Z M 37.5 109.695312 " clip-rule="nonzero"/></clipPath><clipPath id="60ce13afc7"><path d="M 231 164 L 253 164 L 253 242 L 231 242 Z M 231 164 " clip-rule="nonzero"/></clipPath><clipPath id="a2bedfeeca"><path d="M 37.5 109.695312 L 37.5 265.304688 C 37.5 306.726562 71.078125 340.304688 112.5 340.304688 L 268.109375 340.304688 C 309.527344 340.304688 343.109375 306.726562 343.109375 265.304688 L 343.109375 109.695312 C 343.109375 68.273438 309.527344 34.695312 268.109375 34.695312 L 112.5 34.695312 C 71.078125 34.695312 37.5 68.273438 37.5 109.695312 Z M 37.5 109.695312 " clip-rule="nonzero"/></clipPath><clipPath id="7fc6072ff9"><path d="M 127 164 L 149 164 L 149 242 L 127 242 Z M 127 164 " clip-rule="nonzero"/></clipPath><clipPath id="d01a11b293"><path d="M 37.5 109.695312 L 37.5 265.304688 C 37.5 306.726562 71.078125 340.304688 112.5 340.304688 L 268.109375 340.304688 C 309.527344 340.304688 343.109375 306.726562 343.109375 265.304688 L 343.109375 109.695312 C 343.109375 68.273438 309.527344 34.695312 268.109375 34.695312 L 112.5 34.695312 C 71.078125 34.695312 37.5 68.273438 37.5 109.695312 Z M 37.5 109.695312 " clip-rule="nonzero"/></clipPath><clipPath id="d36694e43a"><path d="M 105 95 L 275 95 L 275 158 L 105 158 Z M 105 95 " clip-rule="nonzero"/></clipPath><clipPath id="81e039c6ae"><path d="M 37.5 109.695312 L 37.5 265.304688 C 37.5 306.726562 71.078125 340.304688 112.5 340.304688 L 268.109375 340.304688 C 309.527344 340.304688 343.109375 306.726562 343.109375 265.304688 L 343.109375 109.695312 C 343.109375 68.273438 309.527344 34.695312 268.109375 34.695312 L 112.5 34.695312 C 71.078125 34.695312 37.5 68.273438 37.5 109.695312 Z M 37.5 109.695312 " clip-rule="nonzero"/></clipPath><clipPath id="dc61ece0fb"><path d="M 115 247 L 266 247 L 266 266 L 115 266 Z M 115 247 " clip-rule="nonzero"/></clipPath><clipPath id="87eafebef5"><path d="M 37.5 109.695312 L 37.5 265.304688 C 37.5 306.726562 71.078125 340.304688 112.5 340.304688 L 268.109375 340.304688 C 309.527344 340.304688 343.109375 306.726562 343.109375 265.304688 L 343.109375 109.695312 C 343.109375 68.273438 309.527344 34.695312 268.109375 34.695312 L 112.5 34.695312 C 71.078125 34.695312 37.5 68.273438 37.5 109.695312 Z M 37.5 109.695312 " clip-rule="nonzero"/></clipPath><clipPath id="a50c5676f4"><path d="M 105 261 L 275 261 L 275 280 L 105 280 Z M 105 261 " clip-rule="nonzero"/></clipPath><clipPath id="d9d5939b44"><path d="M 37.5 109.695312 L 37.5 265.304688 C 37.5 306.726562 71.078125 340.304688 112.5 340.304688 L 268.109375 340.304688 C 309.527344 340.304688 343.109375 306.726562 343.109375 265.304688 L 343.109375 109.695312 C 343.109375 68.273438 309.527344 34.695312 268.109375 34.695312 L 112.5 34.695312 C 71.078125 34.695312 37.5 68.273438 37.5 109.695312 Z M 37.5 109.695312 " clip-rule="nonzero"/></clipPath><clipPath id="965c38f365"><path d="M 122 237 L 155 237 L 155 253 L 122 253 Z M 122 237 " clip-rule="nonzero"/></clipPath><clipPath id="6676542092"><path d="M 37.5 109.695312 L 37.5 265.304688 C 37.5 306.726562 71.078125 340.304688 112.5 340.304688 L 268.109375 340.304688 C 309.527344 340.304688 343.109375 306.726562 343.109375 265.304688 L 343.109375 109.695312 C 343.109375 68.273438 309.527344 34.695312 268.109375 34.695312 L 112.5 34.695312 C 71.078125 34.695312 37.5 68.273438 37.5 109.695312 Z M 37.5 109.695312 " clip-rule="nonzero"/></clipPath><clipPath id="060845d241"><path d="M 226 237 L 258 237 L 258 253 L 226 253 Z M 226 237 " clip-rule="nonzero"/></clipPath><clipPath id="12a8e3caeb"><path d="M 37.5 109.695312 L 37.5 265.304688 C 37.5 306.726562 71.078125 340.304688 112.5 340.304688 L 268.109375 340.304688 C 309.527344 340.304688 343.109375 306.726562 343.109375 265.304688 L 343.109375 109.695312 C 343.109375 68.273438 309.527344 34.695312 268.109375 34.695312 L 112.5 34.695312 C 71.078125 34.695312 37.5 68.273438 37.5 109.695312 Z M 37.5 109.695312 " clip-rule="nonzero"/></clipPath><clipPath id="d48f9954f4"><path d="M 226 153 L 258 153 L 258 169 L 226 169 Z M 226 153 " clip-rule="nonzero"/></clipPath><clipPath id="3b0522a959"><path d="M 37.5 109.695312 L 37.5 265.304688 C 37.5 306.726562 71.078125 340.304688 112.5 340.304688 L 268.109375 340.304688 C 309.527344 340.304688 343.109375 306.726562 343.109375 265.304688 L 343.109375 109.695312 C 343.109375 68.273438 309.527344 34.695312 268.109375 34.695312 L 112.5 34.695312 C 71.078125 34.695312 37.5 68.273438 37.5 109.695312 Z M 37.5 109.695312 " clip-rule="nonzero"/></clipPath><clipPath id="ee15ce8dbd"><path d="M 122 153 L 155 153 L 155 169 L 122 169 Z M 122 153 " clip-rule="nonzero"/></clipPath><clipPath id="9f0d82fa69"><path d="M 37.5 109.695312 L 37.5 265.304688 C 37.5 306.726562 71.078125 340.304688 112.5 340.304688 L 268.109375 340.304688 C 309.527344 340.304688 343.109375 306.726562 343.109375 265.304688 L 343.109375 109.695312 C 343.109375 68.273438 309.527344 34.695312 268.109375 34.695312 L 112.5 34.695312 C 71.078125 34.695312 37.5 68.273438 37.5 109.695312 Z M 37.5 109.695312 " clip-rule="nonzero"/></clipPath><clipPath id="1df15455f7"><path d="M 187.394531 199.546875 L 194.574219 199.546875 L 194.574219 207.085938 L 187.394531 207.085938 Z M 187.394531 199.546875 " clip-rule="nonzero"/></clipPath><clipPath id="d4128be784"><path d="M 194.550781 202.125 C 194.398438 204.824219 193.351562 206.25 192.523438 206.699219 C 192 207 191.398438 207.148438 190.800781 207 C 189.898438 206.851562 188.324219 206.101562 187.800781 205.199219 C 187.273438 204.300781 187.351562 202.574219 187.574219 201.75 C 187.800781 201.074219 188.25 200.699219 188.699219 200.324219 C 189.148438 199.949219 189.675781 199.648438 190.351562 199.574219 C 191.25 199.5 193.648438 200.625 193.648438 200.625 " clip-rule="nonzero"/></clipPath></defs><g clip-path="url(#0480d877c9)"><g clip-path="url(#6a4d9e2c58)"><path fill="#059e54" d="M 343.101562 187.496094 C 343.101562 189.996094 343.039062 192.496094 342.917969 194.996094 C 342.792969 197.492188 342.609375 199.984375 342.367188 202.472656 C 342.121094 204.960938 341.816406 207.445312 341.449219 209.917969 C 341.082031 212.390625 340.652344 214.855469 340.164062 217.308594 C 339.675781 219.757812 339.128906 222.199219 338.523438 224.625 C 337.914062 227.050781 337.246094 229.460938 336.523438 231.851562 C 335.796875 234.246094 335.011719 236.621094 334.167969 238.972656 C 333.328125 241.328125 332.425781 243.660156 331.46875 245.972656 C 330.511719 248.28125 329.5 250.566406 328.429688 252.828125 C 327.363281 255.089844 326.238281 257.320312 325.058594 259.527344 C 323.878906 261.730469 322.648438 263.90625 321.363281 266.050781 C 320.078125 268.195312 318.738281 270.308594 317.351562 272.386719 C 315.960938 274.46875 314.519531 276.511719 313.03125 278.519531 C 311.542969 280.527344 310.003906 282.5 308.417969 284.433594 C 306.832031 286.367188 305.199219 288.257812 303.519531 290.113281 C 301.839844 291.964844 300.117188 293.773438 298.347656 295.542969 C 296.578125 297.3125 294.769531 299.035156 292.914062 300.714844 C 291.0625 302.394531 289.167969 304.027344 287.238281 305.613281 C 285.304688 307.199219 283.332031 308.738281 281.324219 310.226562 C 279.316406 311.71875 277.273438 313.15625 275.191406 314.546875 C 273.113281 315.933594 271 317.273438 268.855469 318.558594 C 266.710938 319.84375 264.535156 321.078125 262.332031 322.253906 C 260.125 323.433594 257.890625 324.558594 255.632812 325.628906 C 253.371094 326.695312 251.085938 327.710938 248.773438 328.667969 C 246.464844 329.625 244.132812 330.523438 241.777344 331.367188 C 239.421875 332.207031 237.050781 332.992188 234.65625 333.71875 C 232.261719 334.445312 229.855469 335.109375 227.429688 335.71875 C 225.003906 336.324219 222.5625 336.875 220.109375 337.363281 C 217.65625 337.851562 215.195312 338.277344 212.722656 338.644531 C 210.246094 339.011719 207.765625 339.316406 205.277344 339.5625 C 202.789062 339.808594 200.296875 339.992188 197.796875 340.113281 C 195.300781 340.238281 192.800781 340.296875 190.300781 340.296875 C 187.800781 340.296875 185.300781 340.238281 182.804688 340.113281 C 180.304688 339.992188 177.8125 339.808594 175.324219 339.5625 C 172.835938 339.316406 170.355469 339.011719 167.878906 338.644531 C 165.40625 338.277344 162.945312 337.851562 160.492188 337.363281 C 158.039062 336.875 155.597656 336.324219 153.171875 335.71875 C 150.746094 335.109375 148.339844 334.445312 145.945312 333.71875 C 143.550781 332.992188 141.179688 332.207031 138.824219 331.367188 C 136.46875 330.523438 134.136719 329.625 131.828125 328.667969 C 129.515625 327.710938 127.230469 326.695312 124.96875 325.628906 C 122.710938 324.558594 120.476562 323.433594 118.269531 322.253906 C 116.066406 321.078125 113.890625 319.84375 111.746094 318.558594 C 109.601562 317.273438 107.488281 315.933594 105.410156 314.546875 C 103.328125 313.15625 101.285156 311.71875 99.277344 310.226562 C 97.269531 308.738281 95.296875 307.199219 93.363281 305.613281 C 91.433594 304.027344 89.539062 302.394531 87.6875 300.714844 C 85.832031 299.035156 84.023438 297.3125 82.253906 295.542969 C 80.484375 293.773438 78.761719 291.964844 77.082031 290.113281 C 75.402344 288.257812 73.769531 286.367188 72.183594 284.433594 C 70.597656 282.5 69.058594 280.527344 67.570312 278.519531 C 66.082031 276.511719 64.640625 274.46875 63.25 272.386719 C 61.863281 270.308594 60.523438 268.195312 59.238281 266.050781 C 57.953125 263.90625 56.722656 261.730469 55.542969 259.527344 C 54.363281 257.320312 53.238281 255.089844 52.171875 252.828125 C 51.101562 250.566406 50.089844 248.28125 49.132812 245.972656 C 48.175781 243.660156 47.273438 241.328125 46.433594 238.972656 C 45.589844 236.621094 44.804688 234.246094 44.078125 231.851562 C 43.355469 229.460938 42.6875 227.050781 42.078125 224.625 C 41.472656 222.199219 40.925781 219.757812 40.4375 217.308594 C 39.949219 214.855469 39.519531 212.390625 39.152344 209.917969 C 38.785156 207.445312 38.480469 204.960938 38.234375 202.472656 C 37.992188 199.984375 37.808594 197.492188 37.683594 194.996094 C 37.5625 192.496094 37.5 189.996094 37.5 187.496094 C 37.5 184.996094 37.5625 182.496094 37.683594 180 C 37.808594 177.5 37.992188 175.007812 38.234375 172.519531 C 38.480469 170.03125 38.785156 167.550781 39.152344 165.078125 C 39.519531 162.601562 39.949219 160.140625 40.4375 157.6875 C 40.925781 155.234375 41.472656 152.796875 42.078125 150.371094 C 42.6875 147.945312 43.355469 145.535156 44.078125 143.140625 C 44.804688 140.75 45.589844 138.375 46.433594 136.019531 C 47.273438 133.664062 48.175781 131.332031 49.132812 129.023438 C 50.089844 126.710938 51.101562 124.425781 52.171875 122.167969 C 53.238281 119.90625 54.363281 117.671875 55.542969 115.46875 C 56.722656 113.261719 57.953125 111.085938 59.238281 108.941406 C 60.523438 106.796875 61.863281 104.683594 63.25 102.605469 C 64.640625 100.527344 66.082031 98.480469 67.570312 96.472656 C 69.058594 94.464844 70.597656 92.496094 72.183594 90.5625 C 73.769531 88.628906 75.402344 86.734375 77.082031 84.882812 C 78.761719 83.03125 80.484375 81.21875 82.253906 79.449219 C 84.023438 77.683594 85.832031 75.957031 87.6875 74.277344 C 89.539062 72.601562 91.433594 70.96875 93.363281 69.378906 C 95.296875 67.792969 97.269531 66.257812 99.277344 64.765625 C 101.285156 63.277344 103.328125 61.835938 105.410156 60.449219 C 107.488281 59.058594 109.601562 57.722656 111.746094 56.433594 C 113.890625 55.148438 116.066406 53.917969 118.269531 52.738281 C 120.476562 51.558594 122.710938 50.4375 124.96875 49.367188 C 127.230469 48.296875 129.515625 47.285156 131.828125 46.328125 C 134.136719 45.371094 136.46875 44.472656 138.824219 43.628906 C 141.179688 42.785156 143.550781 42 145.945312 41.277344 C 148.339844 40.550781 150.746094 39.882812 153.171875 39.277344 C 155.597656 38.667969 158.039062 38.121094 160.492188 37.632812 C 162.945312 37.144531 165.40625 36.71875 167.878906 36.351562 C 170.355469 35.984375 172.835938 35.675781 175.324219 35.433594 C 177.8125 35.1875 180.304688 35.003906 182.804688 34.878906 C 185.300781 34.757812 187.800781 34.695312 190.300781 34.695312 C 192.800781 34.695312 195.300781 34.757812 197.796875 34.878906 C 200.296875 35.003906 202.789062 35.1875 205.277344 35.433594 C 207.765625 35.675781 210.246094 35.984375 212.722656 36.351562 C 215.195312 36.71875 217.65625 37.144531 220.109375 37.632812 C 222.5625 38.121094 225.003906 38.667969 227.429688 39.277344 C 229.855469 39.882812 232.261719 40.550781 234.65625 41.277344 C 237.050781 42 239.421875 42.785156 241.777344 43.628906 C 244.132812 44.472656 246.464844 45.371094 248.773438 46.328125 C 251.085938 47.285156 253.371094 48.296875 255.632812 49.367188 C 257.890625 50.4375 260.125 51.558594 262.332031 52.738281 C 264.535156 53.917969 266.710938 55.148438 268.855469 56.433594 C 271 57.722656 273.113281 59.058594 275.191406 60.449219 C 277.273438 61.835938 279.316406 63.277344 281.324219 64.765625 C 283.332031 66.257812 285.304688 67.792969 287.238281 69.378906 C 289.167969 70.96875 291.0625 72.601562 292.914062 74.277344 C 294.769531 75.957031 296.578125 77.683594 298.347656 79.449219 C 300.117188 81.21875 301.839844 83.03125 303.519531 84.882812 C 305.199219 86.734375 306.832031 88.628906 308.417969 90.5625 C 310.003906 92.496094 311.542969 94.464844 313.03125 96.472656 C 314.519531 98.480469 315.960938 100.527344 317.351562 102.605469 C 318.738281 104.683594 320.078125 106.796875 321.363281 108.941406 C 322.648438 111.085938 323.878906 113.261719 325.058594 115.46875 C 326.238281 117.671875 327.363281 119.90625 328.429688 122.167969 C 329.5 124.425781 330.511719 126.710938 331.46875 129.023438 C 332.425781 131.332031 333.328125 133.664062 334.167969 136.019531 C 335.011719 138.375 335.796875 140.75 336.523438 143.140625 C 337.246094 145.535156 337.914062 147.945312 338.523438 150.371094 C 339.128906 152.796875 339.675781 155.234375 340.164062 157.6875 C 340.652344 160.140625 341.082031 162.601562 341.449219 165.078125 C 341.816406 167.550781 342.121094 170.03125 342.367188 172.519531 C 342.609375 175.007812 342.792969 177.5 342.917969 180 C 343.039062 182.496094 343.101562 184.996094 343.101562 187.496094 Z M 343.101562 187.496094 " fill-opacity="1" fill-rule="nonzero"/></g></g><g clip-path="url(#200cbbbe9f)"><g clip-path="url(#ce6550a714)"><path fill="#ffffff" d="M 190.300781 226.6875 C 189.582031 226.6875 188.863281 226.328125 188.503906 225.605469 C 188.144531 225.246094 183.46875 217.339844 168.371094 217.339844 C 167.289062 217.339844 166.210938 216.257812 166.210938 215.179688 L 166.210938 179.226562 C 166.210938 177.789062 167.289062 177.070312 168.371094 177.070312 C 180.953125 177.070312 187.425781 182.105469 190.300781 184.980469 C 193.175781 182.105469 199.648438 177.070312 212.230469 177.070312 C 213.3125 177.070312 214.390625 177.789062 214.390625 179.226562 L 214.390625 215.179688 C 214.390625 216.257812 213.3125 217.339844 212.230469 217.339844 C 197.492188 217.339844 192.457031 225.246094 192.097656 225.605469 C 192.097656 225.96875 191.738281 226.328125 191.378906 226.328125 C 191.019531 226.6875 190.660156 226.6875 190.300781 226.6875 Z M 170.527344 213.023438 C 181.671875 213.742188 187.425781 218.058594 190.300781 220.933594 C 193.175781 218.058594 198.929688 213.742188 210.074219 213.023438 L 210.074219 181.386719 C 197.132812 182.105469 192.457031 188.933594 192.097656 189.652344 C 192.097656 190.015625 191.738281 190.375 191.378906 190.375 C 190.300781 191.09375 188.863281 190.734375 188.503906 189.652344 C 188.144531 189.292969 183.828125 182.105469 170.527344 181.386719 Z M 170.527344 213.023438 " fill-opacity="1" fill-rule="evenodd"/></g></g><g clip-path="url(#52a53a626e)"><g clip-path="url(#f755af0110)"><path fill="#ffffff" d="M 190.300781 228.484375 C 189.941406 228.484375 189.582031 228.484375 189.582031 228.484375 C 189.222656 228.484375 189.222656 228.484375 189.222656 228.484375 C 175.199219 220.214844 157.941406 228.484375 157.941406 228.484375 C 157.222656 228.84375 156.503906 228.84375 155.785156 228.125 C 155.066406 227.765625 154.707031 227.046875 154.707031 226.328125 L 154.707031 187.496094 C 154.707031 186.417969 155.785156 185.339844 156.863281 185.339844 L 168.371094 185.339844 C 169.808594 185.339844 170.527344 186.417969 170.527344 187.496094 C 170.527344 188.574219 169.808594 189.652344 168.371094 189.652344 L 159.023438 189.652344 L 159.023438 223.449219 C 165.132812 221.292969 178.4375 217.699219 190.300781 224.167969 C 202.164062 217.699219 215.46875 221.292969 221.578125 223.449219 L 221.578125 189.652344 L 212.230469 189.652344 C 210.792969 189.652344 210.074219 188.574219 210.074219 187.496094 C 210.074219 186.417969 210.792969 185.339844 212.230469 185.339844 L 223.738281 185.339844 C 224.816406 185.339844 225.894531 186.417969 225.894531 187.496094 L 225.894531 226.328125 C 225.894531 227.046875 225.535156 227.765625 224.816406 228.125 C 224.097656 228.84375 223.378906 228.84375 222.660156 228.484375 C 222.660156 228.484375 205.042969 220.214844 191.378906 228.484375 C 191.378906 228.484375 191.378906 228.484375 191.019531 228.484375 C 191.019531 228.484375 190.660156 228.484375 190.300781 228.484375 Z M 190.300781 228.484375 " fill-opacity="1" fill-rule="evenodd"/></g></g><g clip-path="url(#ac8ab040ff)"><g clip-path="url(#1e7817f7b0)"><path fill="#ffffff" d="M 125.585938 133.566406 C 124.507812 133.566406 123.789062 132.847656 123.429688 132.128906 C 123.070312 130.691406 123.789062 129.613281 124.867188 129.253906 L 182.75 111.636719 C 183.828125 111.277344 184.90625 111.996094 185.265625 113.074219 C 185.625 114.152344 184.90625 115.589844 183.828125 115.949219 L 125.945312 133.566406 C 125.945312 133.566406 125.585938 133.566406 125.585938 133.566406 Z M 125.585938 133.566406 " fill-opacity="1" fill-rule="evenodd"/></g></g><g clip-path="url(#016ed5c78f)"><g clip-path="url(#325e46076c)"><path fill="#ffffff" d="M 255.015625 133.566406 C 255.015625 133.566406 254.65625 133.566406 254.65625 133.566406 L 196.773438 115.949219 C 195.695312 115.589844 194.976562 114.152344 195.335938 113.074219 C 195.695312 111.996094 196.773438 111.277344 197.851562 111.636719 L 255.734375 129.253906 C 256.8125 129.613281 257.53125 130.691406 257.171875 132.128906 C 256.8125 132.847656 256.09375 133.566406 255.015625 133.566406 Z M 255.015625 133.566406 " fill-opacity="1" fill-rule="evenodd"/></g></g><g clip-path="url(#60ce13afc7)"><g clip-path="url(#a2bedfeeca)"><path fill="#ffffff" d="M 250.703125 241.425781 L 233.804688 241.425781 C 232.367188 241.425781 231.648438 240.707031 231.648438 239.269531 L 231.648438 166.285156 C 231.648438 165.207031 232.367188 164.128906 233.804688 164.128906 L 250.703125 164.128906 C 252.140625 164.128906 252.859375 165.207031 252.859375 166.285156 L 252.859375 239.269531 C 252.859375 240.707031 252.140625 241.425781 250.703125 241.425781 Z M 235.960938 237.113281 L 248.542969 237.113281 L 248.542969 168.441406 L 235.960938 168.441406 Z M 235.960938 237.113281 " fill-opacity="1" fill-rule="evenodd"/></g></g><g clip-path="url(#7fc6072ff9)"><g clip-path="url(#d01a11b293)"><path fill="#ffffff" d="M 146.796875 241.425781 L 129.898438 241.425781 C 128.460938 241.425781 127.742188 240.707031 127.742188 239.269531 L 127.742188 166.285156 C 127.742188 165.207031 128.460938 164.128906 129.898438 164.128906 L 146.796875 164.128906 C 148.234375 164.128906 148.953125 165.207031 148.953125 166.285156 L 148.953125 239.269531 C 148.953125 240.707031 148.234375 241.425781 146.796875 241.425781 Z M 132.058594 237.113281 L 144.640625 237.113281 L 144.640625 168.441406 L 132.058594 168.441406 Z M 132.058594 237.113281 " fill-opacity="1" fill-rule="evenodd"/></g></g><g clip-path="url(#d36694e43a)"><g clip-path="url(#81e039c6ae)"><path fill="#ffffff" d="M 272.632812 157.65625 L 107.96875 157.65625 C 106.890625 157.65625 105.8125 156.9375 105.8125 155.5 L 105.8125 122.421875 C 105.8125 121.703125 106.53125 120.625 107.25 120.625 L 189.582031 95.457031 C 189.941406 95.457031 190.660156 95.457031 191.019531 95.457031 L 273.351562 120.625 C 274.070312 120.625 274.789062 121.703125 274.789062 122.421875 L 274.789062 155.5 C 274.789062 156.9375 273.710938 157.65625 272.632812 157.65625 Z M 110.125 153.339844 L 270.476562 153.339844 L 270.476562 124.21875 L 190.300781 99.769531 L 110.125 124.21875 Z M 110.125 153.339844 " fill-opacity="1" fill-rule="evenodd"/></g></g><g clip-path="url(#dc61ece0fb)"><g clip-path="url(#87eafebef5)"><path fill="#ffffff" d="M 262.925781 265.875 L 117.675781 265.875 C 116.238281 265.875 115.519531 264.796875 115.519531 263.71875 L 115.519531 250.054688 C 115.519531 248.976562 116.238281 247.898438 117.675781 247.898438 L 262.925781 247.898438 C 264.363281 247.898438 265.082031 248.976562 265.082031 250.054688 L 265.082031 263.71875 C 265.082031 264.796875 264.363281 265.875 262.925781 265.875 Z M 119.832031 261.558594 L 260.769531 261.558594 L 260.769531 252.210938 L 119.832031 252.210938 Z M 119.832031 261.558594 " fill-opacity="1" fill-rule="evenodd"/></g></g><g clip-path="url(#a50c5676f4)"><g clip-path="url(#d9d5939b44)"><path fill="#ffffff" d="M 272.632812 279.535156 L 107.96875 279.535156 C 106.890625 279.535156 105.8125 278.816406 105.8125 277.378906 L 105.8125 263.71875 C 105.8125 262.640625 106.890625 261.558594 107.96875 261.558594 L 272.632812 261.558594 C 273.710938 261.558594 274.789062 262.640625 274.789062 263.71875 L 274.789062 277.378906 C 274.789062 278.816406 273.710938 279.535156 272.632812 279.535156 Z M 110.125 275.222656 L 270.476562 275.222656 L 270.476562 265.875 L 110.125 265.875 Z M 110.125 275.222656 " fill-opacity="1" fill-rule="evenodd"/></g></g><g clip-path="url(#965c38f365)"><g clip-path="url(#6676542092)"><path fill="#ffffff" d="M 152.191406 252.210938 L 124.867188 252.210938 C 123.429688 252.210938 122.707031 251.132812 122.707031 250.054688 L 122.707031 243.582031 C 122.707031 239.988281 125.585938 237.113281 128.820312 237.113281 L 147.875 237.113281 C 151.472656 237.113281 154.347656 239.988281 154.347656 243.582031 L 154.347656 250.054688 C 154.347656 251.132812 153.269531 252.210938 152.191406 252.210938 Z M 127.023438 247.898438 L 150.035156 247.898438 L 150.035156 243.582031 C 150.035156 242.503906 148.953125 241.425781 147.875 241.425781 L 128.820312 241.425781 C 127.742188 241.425781 127.023438 242.503906 127.023438 243.582031 Z M 127.023438 247.898438 " fill-opacity="1" fill-rule="evenodd"/></g></g><g clip-path="url(#060845d241)"><g clip-path="url(#12a8e3caeb)"><path fill="#ffffff" d="M 255.734375 252.210938 L 228.410156 252.210938 C 227.332031 252.210938 226.253906 251.132812 226.253906 250.054688 L 226.253906 243.582031 C 226.253906 239.988281 229.128906 237.113281 232.726562 237.113281 L 251.78125 237.113281 C 255.015625 237.113281 257.894531 239.988281 257.894531 243.582031 L 257.894531 250.054688 C 257.894531 251.132812 257.171875 252.210938 255.734375 252.210938 Z M 230.566406 247.898438 L 253.578125 247.898438 L 253.578125 243.582031 C 253.578125 242.503906 252.859375 241.425781 251.78125 241.425781 L 232.726562 241.425781 C 231.648438 241.425781 230.566406 242.503906 230.566406 243.582031 Z M 230.566406 247.898438 " fill-opacity="1" fill-rule="evenodd"/></g></g><g clip-path="url(#d48f9954f4)"><g clip-path="url(#3b0522a959)"><path fill="#ffffff" d="M 251.78125 168.441406 L 232.726562 168.441406 C 229.128906 168.441406 226.253906 165.566406 226.253906 161.96875 L 226.253906 155.5 C 226.253906 154.421875 227.332031 153.339844 228.410156 153.339844 L 255.734375 153.339844 C 257.171875 153.339844 257.894531 154.421875 257.894531 155.5 L 257.894531 161.96875 C 257.894531 165.566406 255.015625 168.441406 251.78125 168.441406 Z M 230.566406 157.65625 L 230.566406 161.96875 C 230.566406 163.050781 231.648438 164.128906 232.726562 164.128906 L 251.78125 164.128906 C 252.859375 164.128906 253.578125 163.050781 253.578125 161.96875 L 253.578125 157.65625 Z M 230.566406 157.65625 " fill-opacity="1" fill-rule="evenodd"/></g></g><g clip-path="url(#ee15ce8dbd)"><g clip-path="url(#9f0d82fa69)"><path fill="#ffffff" d="M 147.875 168.441406 L 128.820312 168.441406 C 125.585938 168.441406 122.707031 165.566406 122.707031 161.96875 L 122.707031 155.5 C 122.707031 154.421875 123.429688 153.339844 124.867188 153.339844 L 152.191406 153.339844 C 153.269531 153.339844 154.347656 154.421875 154.347656 155.5 L 154.347656 161.96875 C 154.347656 165.566406 151.472656 168.441406 147.875 168.441406 Z M 127.023438 157.65625 L 127.023438 161.96875 C 127.023438 163.050781 127.742188 164.128906 128.820312 164.128906 L 147.875 164.128906 C 148.953125 164.128906 150.035156 163.050781 150.035156 161.96875 L 150.035156 157.65625 Z M 127.023438 157.65625 " fill-opacity="1" fill-rule="evenodd"/></g></g><g clip-path="url(#1df15455f7)"><g clip-path="url(#d4128be784)"><path fill="#ffffff" d="M 184.574219 196.574219 L 197.699219 196.574219 L 197.699219 210.058594 L 184.574219 210.058594 Z M 184.574219 196.574219 " fill-opacity="1" fill-rule="nonzero"/></g></g></svg>